<svg xmlns="http://www.w3.org/2000/svg" xmlns:xlink="http://www.w3.org/1999/xlink" width="134.871" height="25" viewBox="11.512 2.134 134.871 25"><path fill="#002F7C" d="M144.255 16.16l-.007.004a6.239 6.239 0 0 1 1.801 3.974 6.249 6.249 0 0 1-10.109 5.339l-.005.006a6.246 6.246 0 0 0 10.491-5.005 6.226 6.226 0 0 0-2.171-4.318m-11.072 7.111c-.198.11-.243.277-.142.534.09.235.239.336.398.271.123-.047.147-.158.093-.44l-.021-.11c-.052-.274-.061-.395-.026-.515a.357.357 0 0 1 .229-.268c.282-.114.549.063.707.458.173.428.078.752-.256.893l-.086-.21c.236-.1.296-.319.169-.632-.104-.253-.266-.364-.434-.297-.138.054-.172.181-.116.469l.018.125.018.106c.038.212.041.289.021.38a.34.34 0 0 1-.219.243c-.267.108-.521-.05-.662-.407-.156-.388-.071-.678.224-.811l.085.211zm-.18-2.257l.95-.798.003.293-.799.666.261.286.564-.01.002.23-1.61.036-.005-.23.632-.016h.087l.083-.001-.052-.058-.058-.055-.712-.77-.005-.307zm.717-2.498l.619.219-.076.217-.621-.217-1.114.335.093-.265.693-.194.087-.023c.032-.012.055-.016.114-.027-.055-.066-.065-.079-.127-.159l-.425-.581.09-.252.667.947zm1.089-2.965l-.342.42 1.018.832-.244.298-1.018-.831-.337.413-.233-.188.924-1.129zm2.175-1.522l-.815.473.174.299.744-.437.141.236-.747.439.2.343.831-.488.151.258-1.169.679-.811-1.39 1.147-.673zm3.115.625l-.417.028-.209-.348-.654.104-.087.393-.4.104.421-1.76.4-.064.946 1.543zm-.921-.829a2.394 2.394 0 0 1-.173-.331 2.498 2.498 0 0 1-.065.365l-.068.311.468-.077-.162-.268zm3.51 1.344l-.34-.13.128-.478c.016-.057.037-.133.067-.232.022-.102.049-.181.063-.238.023-.062.041-.13.063-.2l.04-.114a6.284 6.284 0 0 1-.22.352c-.035.059-.069.106-.099.149l-.458.641-.293-.078-.092-.771a1.015 1.015 0 0 1-.017-.173l-.01-.23c-.004-.044-.004-.108-.004-.195l-.038.195c-.05.21-.071.302-.134.555l-.133.521-.358-.057.404-1.577.539.106.079.746c.019.175.025.32.016.529.063-.12.08-.16.151-.268l.125-.189.425-.608.513.174-.417 1.57z"/><path fill="#002F7C" d="M139.609 18.277c-.193.172-.583.542-.955.902l-.426.407a5.786 5.786 0 0 0-1.036-.094c-.786 0-1.508.218-1.834.553-.124.128-.188.267-.182.412.007.382.44.571.575.623.695.26 1.28.187 1.896-.245.339-.238.747-.619 1.065-.927.248.056.53.129.833.221l.282.081c-.366.357-.737.731-1.08 1.035l-.026.024c-.48.421-.826.726-1.326.837-.352.078-.603.005-.682-.046-.01.002-.019.017-.019.017.288.236.561.373 1.034.333.449-.039.967-.321 1.495-.819l.719-.702.501-.497 1.014.3c.012 0 .019.002.019.002-.008 0-.627.61-.627.61l-.539.538c-.554.535-.854.813-1.173 1.04-.535.378-.99.577-1.393.604-.211.014-.512 0-.762-.147-.014-.002-.023.011-.023.011.269.233.604.513 1.181.496.648-.021 1.225-.332 2.121-1.153.407-.377.813-.796 1.171-1.164l.665-.678c.439.096.828.137 1.267.129.628-.017 1.167-.316 1.173-.66.009-.256-.2-.393-.328-.473a1.406 1.406 0 0 0-.774-.229c-.473 0-.969.209-1.469.622l-.335.298a1.929 1.929 0 0 0-.121-.033l-.928-.265c.272-.253.507-.473.714-.661.511-.448 1.069-.637 1.399-.656.241-.017.652.005.827.125.006-.001.019-.018.019-.018-.454-.391-.854-.444-1.176-.444s-.836.104-1.466.589c-.257.201-.59.537-.942.889 0-.002-.468-.144-.468-.144l-.112-.034-.493-.151c.009 0 .28-.269.28-.269.332-.324.646-.633.889-.837.892-.749 1.447-.847 1.838-.851.424 0 .769.087 1.011.263.004-.001.016-.018.016-.018-.497-.452-.856-.597-1.478-.604-.544-.006-1.195.299-1.831.858m-3.495 2.668c-.287-.02-.43-.133-.43-.357 0-.03.022-.734 1.638-.815.183-.011.391-.019.703.019-.016 0-.185.157-.185.157l-.104.092c-.386.355-1.037.945-1.622.904m6.538-.572c.467-.314.851-.481 1.091-.473.145.001.313.047.313.22 0 .187-.174.335-.51.457-.293.104-.744.132-1.24.075.133-.119.252-.215.346-.279"/><path fill="none" d="M139.449 20.72v.478"/><path fill="#002F7C" d="M143.347 13.885a.266.266 0 0 1 .491.204.26.26 0 0 1-.346.139.261.261 0 0 1-.145-.343m.444.209a.224.224 0 0 0-.089-.299.223.223 0 0 0-.218.387.23.23 0 0 0 .307-.088m-.157.078l-.043-.022-.01-.161-.043-.022-.063.117-.038-.019.143-.254.108.061c.044.025.084.062.053.117-.022.051-.07.051-.118.025l.011.158zm-.034-.218c.031.018.085.052.103.014.019-.027-.015-.052-.041-.064l-.067-.038-.039.064.044.024z"/><path fill="#B50029" d="M14.187 21.684c.235 1.006.197 2.667-.478 3.5-.969 1.197-1.897-.117-2.138-1.106-.259-1.066-.227-2.923.556-3.774.269-.339.701-.553 1.1-.274.617.424.748.966.96 1.654"/><path fill="#FFF" d="M13.285 22.99c.043.111-.064.301.126.339.125.104.419.063.396.262-.239-.014-.418-.232-.694-.173-.143.028-.268.11-.41.152-.018-.021-.043-.038-.031-.065.141-.111.341-.111.473-.238l.008-.347c.067-.084.152-.013.132.07m.224.775c.133.13.042.3.062.468-.009.367.003.676.092 1.027-.002.046-.019.098-.065.115-.044.003-.051-.043-.074-.064-.031-.476-.08-.944-.091-1.429-.032-.124-.212-.044-.293-.063a.237.237 0 0 0-.125.063c-.025.478 0 .973-.08 1.469-.016.017-.036.021-.06.02l-.025-.038c.042-.489.034-1.03.07-1.495.059-.075.169-.146.286-.134.1-.011.215.021.303.061m-1.04.803c.013.117-.01.206.003.303.017.113-.031.222-.045.334-.002.056-.048.103-.021.162h.057c.096-.049.082-.168.093-.265.026-.112.009-.198.023-.293.012-.215.016-.396.017-.59.008-.055 0-.08.004-.123.038-.18.004-.39-.016-.571-.068-.18-.272-.191-.424-.234-.043-.025-.06-.081-.063-.123.037-.082.136-.111.22-.117.028-.017.051-.013.077-.021a.517.517 0 0 1 .125-.031c.036-.008.047-.041.047-.075-.07-.104-.149.016-.245.011-.109.047-.311.039-.334.211-.021.073.021.139.061.19a.215.215 0 0 0 .144.059c.1.034.242.042.284.15-.001.051.012.163.014.198a.523.523 0 0 1 0 .125c.024.066-.002.14-.005.211-.027.059-.12.028-.175.031-.047-.023-.108-.005-.148-.043a.458.458 0 0 1-.012-.196c.096-.048.173-.033.269-.083a.062.062 0 0 0 .012-.019c.004-.011.006-.023 0-.034-.006-.01-.012-.013-.018-.022-.06-.06-.076.005-.162.01-.018 0-.031.002-.051.001-.125.007-.038-.161-.083-.225-.021-.012-.038-.064-.074-.048-.085.062.008.169-.014.253.022.233.018.489-.026.734.028.108-.024.253-.019.368-.018.049-.007.107-.025.156.008.058-.052.143.008.184.023-.021.052-.033.068-.067.029-.164.062-.322.081-.49.004-.031.023-.056.061-.046.081.008.099.053.173.056.106-.025.036-.103.018-.114-.088-.006-.078-.041-.162-.057-.024-.002-.08.013-.072-.025a.69.69 0 0 1 .027-.186c.07-.022.146 0 .222 0 .027.004.095.012.104.042.013.083-.005.225-.018.309m1.382-2.854l-.116-.021c-.043-.034-.084-.055-.136-.086-.096-.073-.245-.118-.352-.226-.099.006-.141.099-.232.151-.011.009-.032.023-.046.001.039-.078.116-.112.171-.17.035-.025.081-.045.111-.073.068.025.094.072.146.097.083.04.119.083.189.113.075.046.121.069.188.097.038.026.135.016.093.107l-.016.01z"/><path fill="#FFF" d="M13.661 20.565c-.008.041-.061.064-.117.065-.067-.001-.083.021-.139.054-.016.019-.032.046-.021.071-.001.052.086.067.143.086.018.003.03.02.028.041-.022.017-.054-.002-.084.005-.088.02-.185-.018-.269-.005-.038.012-.045 0-.095.018-.022.005-.035.005-.058.013-.054.021-.153 0-.159.06a1.147 1.147 0 0 0-.029.189c-.005.028-.002.063-.019.093 0 .089.019.229.042.354-.004.026-.009.058 0 .084.049.054.146.017.183.027.073 0 .114.008.173.003.054.01.114.003.174.017.007-.007.027.015.037.022 0 .024-.03.026-.054.029a.46.46 0 0 1-.157-.009c-.134-.004-.237.02-.39.015-.072.003-.106.005-.197.003-.012-.005-.079.005-.097.005-.08-.003-.088-.003-.168-.015-.02-.014-.055.01-.065-.022-.011-.028.024-.025.037-.03l.218.002a.455.455 0 0 0 .201-.032c.011-.025.008-.049.009-.07.005-.102-.022-.204-.013-.328.012-.063.001-.15.013-.214.005-.059.005-.197.049-.229l.191-.048c.07.005.125-.01.201-.005.041-.007.086-.025.104-.068.004-.039-.023-.078-.061-.083-.049-.01-.043-.005-.099-.015-.034-.008-.071.001-.096-.04a.4.4 0 0 1-.071-.321c.009-.021.027-.049.056-.028.036.045.008.089.003.135-.013.109.052.156.09.182.047.017.055.009.109.004.052-.039.024-.102.046-.156-.009-.083.013-.123.044-.197.035 0 .035.038.045.062l-.003.037c.009.069-.007.153.025.235.021.031.022.023.061.023.052-.019.095-.044.104-.098.021-.056-.022-.166.06-.171.023-.005.021.005.026.018l-.011.232z"/><path fill="#FFF" d="M13.657 21.298a.138.138 0 0 1-.078-.023c-.058-.073-.221-.106-.278-.156-.083-.033-.089.004-.145.032-.031.038-.077.054-.115.076-.03.027-.037.04-.069.045-.013-.005-.03-.019-.018-.03.038-.036.053-.058.089-.082.065-.037.136-.092.197-.134.062.033.197.075.267.105.054.053.137.072.179.136.005.018-.012.028-.029.031m-.309 1.046c.023.089.005.255-.038.288-.038.051-.077.051-.117.063-.119.012-.088.017-.203.03l-.184.018c-.117.002-.2.01-.328.008-.056.011-.119-.018-.177-.035-.012-.019-.042-.019-.042-.054 0-.034.071-.02.126-.019.111.01.219.021.33.017.116-.013.154-.009.298-.013a.496.496 0 0 0 .111-.029c.104-.037.095-.034.122-.132.015-.09.001-.114-.097-.141-.113-.029-.198-.007-.27-.081-.05-.069.012-.16-.095-.21-.094.013-.157.02-.259.017-.053 0-.09.005-.144.004-.028-.009-.068-.004-.116-.008-.035 0-.038-.007-.074-.007-.016-.02-.048-.039-.021-.066.04-.02.074.002.11-.018.091-.001.171 0 .271-.002.036.002.075.002.104.006.089-.011.172.007.271-.002.076.002.137.009.195.004.059.005.094.014.125.007.071-.015.123.004.177-.002.086.009.115-.021.182-.005.025.005.036.035.047.043-.01.016-.013.034-.035.038-.059.028-.116.01-.201.01-.059.011-.116.001-.196.013-.045-.012-.102-.013-.163-.017a.406.406 0 0 0-.123.011.153.153 0 0 0 .051.133c.047.034.139.029.203.041.059.021.135.028.16.09m-.522-2.018c-.012.089.016.255-.082.339-.078.022-.18-.013-.233.066-.045.068.008.13-.01.201.022.087.113.119.159.189a.198.198 0 0 1 .057.093c-.018.014-.04.022-.055.012l-.019-.019-.031-.036c-.029-.02-.062-.069-.1-.078-.131-.001-.2.121-.302.187a1.247 1.247 0 0 1-.101.074c-.022.023-.041.037-.063.056a.323.323 0 0 1-.129.071l-.012-.021a.317.317 0 0 1 .089-.072c.073-.081.146-.175.248-.225.07-.063.172-.111.208-.208.002-.034-.018-.064-.035-.085-.007-.057.024-.121-.043-.151a.322.322 0 0 1-.188-.062.397.397 0 0 1-.057-.407l.01-.003c.063.016.042.082.045.133.003.068.018.149.071.196a.17.17 0 0 0 .084.06c.027-.004.06-.023.063-.05.037-.096-.021-.186.022-.284-.001-.023-.006-.068.029-.083l.066.015c.003.062-.024.114-.017.181.003.059-.012.125.034.16.021.022.052.033.081.021.077-.004.118-.076.13-.126-.002-.078.02-.147.013-.195l.017-.036c.03.016.047.046.051.087m-.164 1.245c-.038.003-.033-.046-.058-.064-.041-.037-.083-.109-.15-.081-.031.02-.06.043-.096.064-.101.118-.206.172-.31.277-.026.006-.038-.01-.043-.028.029-.044.077-.075.117-.108.031-.019.055-.06.091-.084.023-.026.038-.045.059-.063.059-.062.107-.079.16-.135.024-.021.061-.038.086-.018.024.06.095.091.14.136.018.028.068.08.004.104"/><path fill="#00125D" d="M41.229 17.781l-.066.045c-.547-.329-1.411-.583-2.233-.583-1.665 0-2.97 1.171-2.97 2.938 0 1.852 1.523 2.892 3.08 2.892 1.018 0 2.013-.362 2.541-.877l.077.053-.317 1.515c-.559.33-1.567.504-2.356.504-2.583 0-4.743-1.556-4.743-4.097 0-2.324 1.773-4.163 4.7-4.163.973 0 1.906.231 2.584.525l-.297 1.248zm8.875 6.298a18.06 18.06 0 0 1-.054-1.327v-5.237c0-.393.021-.897.054-1.325h-1.71c.034.428.056.933.056 1.325v1.93h-4.085v-1.93c0-.393.021-.897.054-1.325H42.71c.032.428.054.933.054 1.325v5.237c0 .428-.022.889-.054 1.327h1.708a18.63 18.63 0 0 1-.054-1.327v-2.114h4.085v2.114c0 .428-.021.889-.056 1.327h1.711zm3.682 0a18.071 18.071 0 0 1-.056-1.327v-5.237c0-.393.023-.897.056-1.325h-1.708c.032.428.052.933.052 1.325v5.237c0 .428-.02.889-.052 1.327h1.708zm9.244-7.889c-.032.408-.054.944-.054 1.348v6.628h-.251l-5.534-5.652v4.239c0 .428.023.889.057 1.327H55.79c.032-.438.053-.899.053-1.327v-5.618l-.833-.845v-.1h2.027l4.59 4.723v-3.397c0-.427-.023-.885-.056-1.325h1.459zm9.939 7.889a18.94 18.94 0 0 1-.889-1.5l-3.713-6.795h-.374l-4.415 8.295h1.764c.142-.407.306-.802.438-1.063l.482-.984h3.79l.517 1.018c.152.306.338.667.427 1.03h1.973zm-4.877-5.883h.055l1.37 2.75h-2.728l1.303-2.75zm16.873 5.883a19.845 19.845 0 0 1-.887-1.5l-3.714-6.795h-.376l-4.414 8.295h1.765c.143-.407.307-.802.439-1.063l.482-.984h3.79l.516 1.018c.155.306.342.667.427 1.03h1.972zm-4.877-5.883h.054l1.372 2.75h-2.729l1.303-2.75zm7.155 5.883a18.637 18.637 0 0 1-.055-1.327v-5.237c0-.393.022-.897.055-1.325h-1.71c.033.428.055.933.055 1.325v5.237c0 .428-.021.889-.055 1.327h1.71zm2.005 0c.031-.438.054-.899.054-1.327v-5.237c0-.393-.021-.897-.054-1.325h3.076c1.755 0 2.916.91 2.916 2.138s-.921 1.961-2.028 2.168l1.994 2.235c.362.416.767.843 1.261 1.248v.099h-2.071l-3.494-4.097v2.771c0 .428.021.889.056 1.326h-1.709v.001zm1.654-4.294h.92c1.063 0 1.71-.429 1.71-1.371 0-.82-.625-1.227-1.72-1.227h-.91v2.598zm10.945 4.294l.33-1.413-.092-.043c-.413.229-.962.371-1.552.371h-1.898v-5.479c0-.393.023-.897.058-1.326h-1.709c.032.429.054.934.054 1.326v5.237c0 .428-.021.889-.054 1.326h4.863v.001zm2.946 0a18.06 18.06 0 0 1-.054-1.327v-5.237c0-.393.021-.897.054-1.325h-1.71c.032.428.057.933.057 1.325v5.237c0 .428-.024.889-.057 1.327h1.71zm9.236-7.889c-.032.408-.054.944-.054 1.348v6.628h-.253l-5.535-5.652v4.239c0 .428.022.889.057 1.327h-1.459c.034-.438.057-.899.057-1.327v-5.618l-.835-.845v-.1h2.027l4.59 4.723v-3.397c0-.427-.02-.885-.055-1.325h1.46zm7.175 7.889l.338-1.413-.087-.043c-.417.239-.953.371-1.567.371h-2.585v-2.541h2.06c.503 0 .954.043 1.392.152l.284-1.193h-3.735v-2.147h2.212c.571 0 1.098.055 1.579.197l.306-1.272h-5.752c.034.429.055.934.055 1.326v5.237c0 .428-.021.889-.055 1.326h5.555zm6.619-6.146c-.525-.471-1.47-.788-2.29-.788-1.097 0-1.679.361-1.679.889 0 .602.769.907 2.171 1.511 2.026.865 2.508 1.38 2.508 2.433 0 1.346-1.326 2.289-3.308 2.289-1.118 0-2.277-.406-2.969-.854l.296-1.436h.097c.527.678 1.634 1.127 2.588 1.127 1.029 0 1.752-.382 1.752-.998 0-.579-.579-.832-2.156-1.488-1.832-.756-2.545-1.358-2.545-2.519 0-1.185 1.041-2.093 3.256-2.093.874 0 2.015.284 2.66.646l-.295 1.281h-.086z"/><path fill="#DD5365" d="M23.921 7.785c.229.003.355.094.494.166.271.144.446.263.806.269.189 0 .383.022.561.108.619.294.971 1.345 1.082 1.926.037.201.02.409 0 .611-.018.2-.04.391 0 .558.067.303.185.305.264.305h.001c.077 0 .171-.022.271-.042.072-.016.144-.032.225-.042.177-.025.35-.038.517-.038.238 0 .468.026.686.081.234.056.457.079.695.101.175.015.354.03.542.063.185.032.823.149 1.183.306.205.087.362.229.518.365.13.121.259.232.414.315.896.479 1.159 1.039.893 1.944a9.382 9.382 0 0 1-.083.277c-.085.303-.177.62-.277.909-.125.371-.322.532-.552.722-.066.056-.138.114-.211.182-.215.198-.375.447-.54.714-.232.369-.475.75-.88.988-.333.197-.602.21-.938.229l-.061.001c-.151.072.01.391.12.586.06.103.126.219.186.377.041.112.043.231.045.342.003.102.005.195.031.265a.411.411 0 0 0 .105.117.635.635 0 0 1 .223.305c.103.345.071 1.081-.031 1.341a.916.916 0 0 1-.176.238 1.39 1.39 0 0 0-.154.195.927.927 0 0 0-.064.226c-.025.124-.053.268-.143.396-.353.507-1.114.773-1.725.987-.151.054-.294.104-.413.151a1.141 1.141 0 0 1-.427.102c-.176 0-.311-.065-.466-.138a4.06 4.06 0 0 0-.258-.115c-.259-.098-.495-.119-.771-.143-.135-.011-.275-.022-.425-.043-.287-.041-.469-.172-.645-.291l-.077-.051h-.026c-.263 0-.457-.058-.581-.172-.284.409-.716.721-1.345.977-.421.234-.861.335-1.241.402l-.268.082a3.516 3.516 0 0 1-1.087.165c-.136 0-.278-.009-.412-.022-.494 0-.882-.113-1.192-.339a3.047 3.047 0 0 1-.865-.626c-.348-.239-.731-.524-.919-.907-.223-.459-.114-.662.028-.926.04-.071.08-.149.12-.238.007-.021.02-.046.032-.074.251-.576.332-.828.35-.935-.285-.089-.538-.347-.767-.785a3.486 3.486 0 0 0-.338-.556 3.282 3.282 0 0 0-.205-.222c-.053-.051-.124-.111-.145-.132-.261-.255-.58-.411-.888-.564-.28-.138-.567-.28-.801-.495a1.78 1.78 0 0 1-.422-.552c-.37-.57-.733-1.176-.837-1.775-.103-.59.046-.936.232-1.294.054-.125.119-.247.191-.361.033-.066.064-.125.089-.184.043-.09.07-.164.093-.228.06-.158.104-.281.298-.491.235-.252.43-.381.69-.507.281-.142.604-.241.858-.265.019-.002.194-.027.259-.014a.783.783 0 0 0 .175.027l.033-.001a.461.461 0 0 0 .176-.065c.081-.043.172-.05.301-.05h.022c.275.016 1.25.513 1.525.521 0 0 .07.005.101-.003.035-.007.071-.038.071-.038.125-.106.222-.242.301-.417a.24.24 0 0 0 .021-.046h.001l.037-.097c.011-.035.023-.068.033-.104.054-.186.094-.391.13-.586.011-.055.019-.111.03-.164l.013-.046.011-.059.008-.056c.006-.014.009-.03.014-.044l.002-.012c.001-.012.006-.026.006-.041l.007-.016c.002-.017.006-.029.012-.049l.001-.005c.005-.015.007-.03.013-.045l.004-.012c.003-.018.009-.034.013-.049v-.003c.008-.017.011-.031.018-.044l.003-.015c.004-.017.009-.031.015-.048l.001-.002.019-.044.004-.013c.005-.017.012-.033.018-.048.01-.016.013-.028.02-.043l.006-.014.021-.044c.101-.198.162-.437.23-.693.137-.514.277-1.039.73-1.317.2-.12.409-.138.61-.156.172-.015.333-.031.48-.105a1.86 1.86 0 0 0 .341-.243c.153-.129.315-.267.54-.334a.822.822 0 0 1 .071-.019l.017-.005c.02-.006.045-.011.064-.015l.015-.004c.018-.003.038-.006.054-.013l.018-.001c.019-.005.042-.007.061-.012l.019-.001.049-.008.02-.001.057-.005.023-.002c.014-.001.028-.001.041-.003l.036-.001c.014 0 .024 0 .038-.002h.134c.072.002.152.005.236.012h.005c.032.002.061.003.09.008l.015.001.091.008c.075.007.14.011.205.011.2 0 .353-.031.565-.077.179-.039.391-.078.513-.075"/><defs><path id="a" d="M23.646 7.921c-.411.077-.617.15-1.019.11-.367-.036-.718-.061-1.113.059-.353.108-.542.407-.861.57-.35.18-.742.052-1.083.258-.628.385-.613 1.354-.916 1.963-.336.668-.192 1.714-.83 2.224 0 0-.039.031-.093.043-.042.008-.122.008-.122.008-.294-.008-1.16-.5-1.544-.52-.198-.011-.296.097-.482.115-.091.008-.17 0-.245-.006-.076-.007-.146-.014-.225-.008a2.497 2.497 0 0 0-.815.252 1.982 1.982 0 0 0-.659.482c-.255.276-.224.378-.371.688-.319.683-.636.98-.501 1.767.119.68.59 1.378.974 1.973.443.689 1.348.762 1.962 1.361.22.216.486.466.674.698.164.202.759.791.796 1.001.031.185-.303.928-.389 1.13-.185.427-.403.541-.151 1.055.303.609 1.167.991 1.663 1.424.671.582 1.677.366 2.497.239.855-.13 1.618-.259 2.282-.939.345-.354.494-.719 1.073-.521.431.144.59.452 1.055.521.45.064.813.036 1.218.192.453.174.556.355 1.068.15.598-.24 1.664-.497 2.083-1.098.132-.187.107-.422.196-.602.067-.129.291-.324.327-.424.088-.231.125-.938.03-1.259-.057-.195-.273-.275-.327-.411-.07-.186-.008-.423-.077-.614-.171-.467-.592-.907-.288-1.114.049-.028.677-.009 1.033-.219.661-.391.866-1.197 1.398-1.688.322-.293.582-.41.736-.857.128-.376.241-.785.358-1.183.268-.913-.059-1.392-.835-1.808-.358-.19-.57-.523-.921-.676-.308-.132-.847-.243-1.159-.298-.439-.076-.826-.063-1.247-.167a2.92 2.92 0 0 0-1.159-.041c-.423.062-.756.263-.885-.307-.08-.365.07-.792 0-1.171-.108-.58-.449-1.58-1.02-1.852-.337-.162-.724-.048-1.087-.25-.321-.18-.481-.264-.792-.264-.062.003-.131.006-.207.014"/></defs><clipPath id="b"><use xlink:href="#a" overflow="visible"/></clipPath><radialGradient id="c" cx="-392.509" cy="-449.088" r=".855" gradientTransform="translate(4326.632 4940.553) scale(10.9647)" gradientUnits="userSpaceOnUse"><stop offset="0" stop-color="#fff"/><stop offset=".068" stop-color="#fff"/><stop offset=".38" stop-color="#f9dde3"/><stop offset="1" stop-color="#dd5365"/></radialGradient><path clip-path="url(#b)" fill="url(#c)" d="M12.634 7.91h20.597v17.241H12.634z"/><defs><path id="d" d="M23.821 7.895a1.708 1.708 0 0 0-.175.025c-.411.077-.614.139-1.019.101a6.846 6.846 0 0 0-.393-.02 2.24 2.24 0 0 0-.72.088c-.353.108-.542.407-.861.57-.35.18-.742.052-1.083.258-.628.385-.613 1.354-.916 1.963-.251.501-.234 1.209-.476 1.747.019.197.054.389.108.574.095.301.679.278.571.862l.023.093c.47 1.559 3.253 1.175 4.047.566.403-.313 1.176-.564 1.485-.953.268-.346 1.148-.623 1.37-.991.346-.575.792-1.349.75-1.875-.129-1.626-1.114-2.378-1.876-2.728-.363-.165-.471-.283-.793-.283a.286.286 0 0 1-.042.003"/></defs><clipPath id="e"><use xlink:href="#d" overflow="visible"/></clipPath><radialGradient id="f" cx="-404.656" cy="-459.219" r=".854" gradientTransform="translate(3431.156 3877.795) scale(8.4246)" gradientUnits="userSpaceOnUse"><stop offset="0" stop-color="#dd5365"/><stop offset=".209" stop-color="#dd5365"/><stop offset=".297" stop-color="#df5c6d"/><stop offset=".439" stop-color="#e47483"/><stop offset=".619" stop-color="#ec9ba6"/><stop offset=".826" stop-color="#f6d0d7"/><stop offset=".871" stop-color="#f9dde3"/><stop offset="1" stop-color="#f9dde3"/></radialGradient><path clip-path="url(#e)" fill="url(#f)" d="M18.177 7.894h8.397v7.822h-8.397z"/><defs><path id="g" d="M24.098 8.094c-.054.007-.115.018-.182.028-.427.079-.641.155-1.06.112-.069-.005-.332-.019-.407-.026a2.216 2.216 0 0 0-.747.089c-.367.11-.566.416-.896.583-.364.188-.775.055-1.124.266-.35.213-.766.974-.895 1.933-.044.32.176.62.134.985-.188 1.558.256 1.204.588 1.836.623 1.177.561 1.538.252 1.474.343.414.659.943.405 1.278 1.062.229 2.412-.059 2.929-.457.423-.327 1.006-.645 1.33-1.053.28-.356.8-1.493 1.033-1.871.361-.594.754-.715 1.037-1.816.474-1.842-.463-2.63-1.452-3.046-.31-.128-.711-.317-.914-.317l-.031.002"/></defs><clipPath id="h"><use xlink:href="#g" overflow="visible"/></clipPath><radialGradient id="i" cx="-399.295" cy="-456.665" r=".855" gradientTransform="matrix(9.3886 0 0 8.9389 3771.804 4092.53)" gradientUnits="userSpaceOnUse"><stop offset="0" stop-color="#dd5365"/><stop offset=".087" stop-color="#de596b"/><stop offset=".206" stop-color="#e26b7b"/><stop offset=".344" stop-color="#e88895"/><stop offset=".494" stop-color="#f0b0ba"/><stop offset=".638" stop-color="#f9dde3"/><stop offset=".764" stop-color="#fae4e9"/><stop offset=".954" stop-color="#fef9fa"/><stop offset="1" stop-color="#fff"/></radialGradient><path clip-path="url(#h)" fill="url(#i)" d="M18.735 8.093h8.233v8.788h-8.233z"/><defs><path id="j" d="M22.522 17.882c-.656.173-1.834.015-2.407.407-.506.346-.981.831-1.223 1.381-.596.653-1.245 1.226-1.604 1.735-.405.56-.478 1.447-.218 1.963.719 1.433 2.525 1.887 3.903 1.45 1.336-.302 2.975-.681 3.159-2.458.092-.881.338-1.788.048-2.602-.217-.596-.271-1.919-1.31-1.919-.106.001-.22.014-.348.043"/></defs><clipPath id="k"><use xlink:href="#j" overflow="visible"/></clipPath><radialGradient id="l" cx="-424.712" cy="-476.33" r=".855" gradientTransform="translate(2608.765 2922.767) scale(6.0957)" gradientUnits="userSpaceOnUse"><stop offset="0" stop-color="#fff"/><stop offset=".411" stop-color="#f9dde3"/><stop offset="1" stop-color="#dd5365"/></radialGradient><path clip-path="url(#k)" fill="url(#l)" d="M16.811 17.84h7.66v7.415h-7.66z"/><defs><path id="m" d="M12.765 15.698c-.014.646.505 1.343.789 1.896.41.802.782.833 1.51 1.225.606.327.991.71 1.333 1.37.89 1.708 1.857.116 2.628-.51.571-.464.923-1.5.755-2.244-.112-.495-.515-1.216-.928-1.521l.258.176c-.326-.323-.074-.729-.221-1.121-.126-.348-.334-.77-.518-1.152-.277-.574-.591-.429-.873-.285-.151.076-.292.153-.41.12-.365-.094-.894-.213-1.236-.349a1.939 1.939 0 0 0-.707-.135c-1.238-.002-2.348 1.191-2.38 2.53"/></defs><clipPath id="n"><use xlink:href="#m" overflow="visible"/></clipPath><radialGradient id="o" cx="-409.236" cy="-463.178" r=".855" gradientTransform="translate(3191.936 3607.877) scale(7.7512)" gradientUnits="userSpaceOnUse"><stop offset="0" stop-color="#fff"/><stop offset=".068" stop-color="#fff"/><stop offset=".429" stop-color="#f9dde3"/><stop offset="1" stop-color="#dd5365"/></radialGradient><path clip-path="url(#n)" fill="url(#o)" d="M12.751 13.166h7.197v8.73h-7.197z"/><defs><path id="p" d="M27.265 11.972c-.371.064-.758.334-1.02.516-.294.232-.472.814-.767.988-.684.318-.703.482-1.076 1.075-.305.486-.691 1.168-.993 1.698-.004.207.013.412.053.609.061.333.442.864.432 1.153l.015-.115c.313 1.692 3.753 2.202 3.121 1.377-1.638-2.129.909-3.169 1.23-2.771 2.001 2.488 2.806 1.024 2.999.771.412-.557.733-1.124.834-1.671.637-3.533-1.341-3.039-2.46-3.522a2.143 2.143 0 0 0-.177.002c-.429.026-.646.071-1.055-.025a6.745 6.745 0 0 1-.193-.046 1.268 1.268 0 0 1-.2-.034 2.508 2.508 0 0 0-.399-.035c-.113 0-.226.008-.344.03"/></defs><clipPath id="q"><use xlink:href="#p" overflow="visible"/></clipPath><radialGradient id="r" cx="-380.536" cy="-438.932" r=".856" gradientTransform="translate(5983.816 6872.706) scale(15.631)" gradientUnits="userSpaceOnUse"><stop offset="0" stop-color="#dd5365"/><stop offset=".307" stop-color="#dd5365"/><stop offset=".411" stop-color="#e36e7e"/><stop offset=".635" stop-color="#f1b3bd"/><stop offset=".761" stop-color="#f9dde3"/><stop offset="1" stop-color="#f9dde3"/></radialGradient><path clip-path="url(#q)" fill="url(#r)" d="M23.403 11.942h9.325v8.156h-9.325z"/><defs><path id="s" d="M26.911 19.001c.007.002.013-.004.017-.008.002-.004.003-.008.001-.008-.003.001-.008.005-.018.016m-.692-6.518c-.104.113-.211.22-.268.313-.146.242-.216.374-.492.529-.193.106-.339.156-.477.313-.133.154-.235.316-.354.481-.226.322-.664.398-1.058.404-.096.004-.19-.003-.278-.004-.542.354-1.112.554-1.633.427-.322-.082-.724-.653-1.026-.606-.304.046.175.202-.068.461-.269.289-.594.052-.822-.186-.156-.162-.265-.324-.281-.319-.066.021.01.19.005.269-.015.17-.167.271-.185.443-.019.169.006.265.027.354.024.104.077.232.07.411-.009.301-.008.203-.019.505-.025.591-.272.837-.418 1.424-.156.641.505.978-.29 2.174-.266.396-1.458.951-1.384 1.42.338-.057.524-.432.767-.677.571-.577 2.133-1.184 3.051-1.226.957-.044.04 1.019.307 1.226.258.202-.263.763.031.62.308-.148.724-1.538.891-1.879.109-.225 1.625-3.735 1.664 1.563.007.505.305.749.165 1.234-.07.229-.957 1.505.505 1.36.196-1.105-.641-1.89-.208-2.429.23-.286 1.037-.339 1.022-.713-.033-.82.346-.802.695-.783.216.011.421.022.512-.161.14-.286.208-.393.238-.428-.015-.002-.033-.027-.042-.124-.037-.364.288-.367.136-.713.347.084.443-.26.73-.339.196-.055.593-.032.794.001.481.078.718.859.817.811.113-.167-.157-.584-.41-.817-.203-.187-.445-.562-.61-.78-.246-.319-.087-.752-.445-.937-.111-.055-.2-.036-.308-.017-.159.03-.356.059-.719-.161-1.9 1.345-.291-.685-.407-1.183-.231-.656-.746-.845-.205-2.255.001-.008-.004-.014-.011-.014.001 0-.005.003-.009.008"/></defs><clipPath id="t"><use xlink:href="#s" overflow="visible"/></clipPath><radialGradient id="u" cx="-406.743" cy="-460.989" r=".854" gradientTransform="translate(3325.314 3760.351) scale(8.1181)" gradientUnits="userSpaceOnUse"><stop offset="0" stop-color="#fff"/><stop offset=".092" stop-color="#fff"/><stop offset=".374" stop-color="#f9dde3"/><stop offset=".467" stop-color="#f1b7c0"/><stop offset=".588" stop-color="#e98c99"/><stop offset=".697" stop-color="#e26d7d"/><stop offset=".789" stop-color="#de5a6b"/><stop offset=".853" stop-color="#dd5365"/><stop offset="1" stop-color="#dd5365"/></radialGradient><path clip-path="url(#t)" fill="url(#u)" d="M17.196 12.475h12.265v11.184H17.196z"/><path fill="#FFF" d="M20.211 19.256c-.198-.144 0-.646.236-.899.237-.252.599-.662.502-.709-.093-.048-.502.047-.628 0-.125-.048.708-.377.803-.426.094-.047-.599-.235-.852-.268-.252-.03-.77.048-.723-.063.046-.109.346-.251.408-.314.063-.063-.393-.299-.425-.409-.03-.109.095-.22.567-.109.474.109.869.063 1.071.109.205.049.315.094.394.142.08.049.137-.124.201-.097.066.025.215.124.228.025.014-.098-.063-.272-.195-.39-.13-.117-.337-.352-.363-.436-.026-.085-.131-.286-.014-.331.118-.046.221-.006.285-.035.064-.025.181-.198.35-.128.169.072.247.136.299.177a.28.28 0 0 0 .228.039c.078-.026.209-.184.357-.092.149.092.417.305.656.253.24-.053.376-.168.448-.312.072-.143.274-.589.358-.675.083-.086.298-.253.265-.188-.031.063-.244.539-.232.778.012.241-.038.3.039.357.077.059.174.039.26 0 .085-.04.22-.135.239-.077.019.057-.481.396-.629.538-.149.143-.292.435-.219.552.07.117.355.065.498.065.144 0 .449.02.41.089-.04.071-.553.417-.553.475 0 .059.313.168.488.175.175.007.59.072.752.111.161.039.298.033.331.124.033.089.086.167.026.176a2.293 2.293 0 0 1-.526-.092c-.117-.046-.72-.182-.856-.174-.137.006-.539-.008-.609.128-.073.138.225.228.292.287.065.057.306.31.157.337-.149.026-.273-.084-.333-.104a2.751 2.751 0 0 1-.35-.229c-.058-.044-.31-.317-.436-.305-.123.014-.376.059-.517.151-.144.089-.301.266-.384.362-.085.097-.429.318-.571.437-.143.116-.929.739-1.072.843-.145.106-.5.249-.661.132"/><path fill="#B50029" d="M22.479 14.6c-.056-.086-.036-.289.014-.415.04-.109.376-.726.727-.608.141.046.233.106.274.256.07.25.079.623-.113.814-.273.275-.745.185-.902-.047m-1.634.75c.097-.019.229-.139.25-.235.03-.13.288-.142.301-.193.013-.054-.267-.73-.417-.792-.179-.077-.232.048-.395.034-.125-.011-.236-.06-.313.075-.115.209-.331.482-.158.71.174.23.423.461.732.401m3.901.544c-.048.054-.15.092-.212.024.204-.247.375-.34.629-.53.09-.097.018-.509.064-.645.048-.137.471-.427.658-.329.094.05.187.08.24.162.101.156.099.419.1.538.005.167-.085.29-.135.451-.046.154-.326.131-.453.144-.167.015-.329-.115-.487-.018-.088.057-.333.124-.404.203m-1.893.579c.056-.104-.003-.254.016-.362.013-.087.043-.223-.052-.275-.044.205-.079.439-.002.637.009.022.037.002.038 0m-3.839.555c.218-.318.466-.425.754-.48.007-.038-.08-.069-.111-.07-.198-.038-.348-.157-.476-.31-.246-.297-.389-.535-.792-.412-.429.131-.445.834-.325 1.176.145.406.699.458.95.096m8.455-.528c.44-.165.798.053.581.418-.11.187-.074.403-.2.593-.098.15-.343.232-.525.167-.166-.059-.399-.164-.516-.284-.135-.141-.175-.252-.396-.311-.359-.094-.75-.004-1.101-.136.401-.203.855.018 1.275-.011.181-.011.307-.33.882-.436m-2.167.437c-.112-.057-.235-.063-.315-.011.074.018.239.042.315.011m-5.408 1.278c-.402-.478-1.25.433-1.309.492-.061.06-.224.177-.239.241-.049.188.388.442.524.521.178.104.332.373.579.183.243-.182.264-.356.328-.637.059-.249.161-.509.352-.687.194-.178.43-.311.588-.524-.387-.03-.543.286-.823.411m5.976-2.07c-.077-.305-.619.016-.754-.012.155.039.38.026.583.057.06.012.188.02.171-.045m-2.33 1.761c.154.085.203.297.361.39.135.08.331.179.463.28.071.058.15.312.031.371-.175.086-.239-.254-.328.03-.089.281-.433.413-.499.715-.046.209-.19.496-.057.699a.24.24 0 0 0 .18.102c.16.02.184.01.323.097.172.11.314.159.501.073.18-.084.328-.212.37-.417-.022-.223-.104-.439-.096-.665.005-.226.106-.359-.012-.583a1.008 1.008 0 0 0-.333-.396c-.122-.091-.162-.263-.251-.387-.146-.204-.407-.438-.5-.539a.443.443 0 0 0-.349-.163c-.153 0-.377.172-.488.305-.145.173-.342.271-.491.413-.163.157-.127.396-.209.591-.07.167-.203.362-.22.546.111-.062.188-.236.255-.338.05-.074.099-.152.156-.223.064-.073.155-.076.223-.14.195-.188.215-.423.342-.633.109-.175.467-.209.628-.128m3.666 1.901c-.014-.121-.054-.239-.025-.361.037-.151-.017-.272-.089-.414-.083-.163-.338-.543-.565-.44-.08.037-.158.133-.253.079-.115-.067-.151-.169-.294-.218-.128-.045-.265-.064-.398-.1-.087-.021-.166-.047-.279-.056.089.187.392.299.542.423.325.27.169.579.148.921-.004.107-.04.255.032.356.071.104.343.124.408.163.035.022.366.135.508.056.141-.081.277-.318.265-.409m-3.618 3.147c.098-.019.231.083.445.163.215.084.387.133.559.143.174.006.494.204.551.32.057.114.091.427-.008.609-.099.178-.271.417-.182.813.09.396.256.542-.032.519-.288-.026-.501-.124-.666-.174-.164-.048-.403-.074-.584-.295-.18-.224-.297-.181-.592-.362-.296-.181-.478-.559-.328-.725.147-.164.599-.567.656-.657.058-.091.139-.347.181-.354m5.872-2.327c0-.092.214-.235.229-.294a2.2 2.2 0 0 0-.02-.558c-.039-.148-.064-.311.046-.383.111-.071.416-.17.596-.09.183.078.333.15.5.213.169.065.611.294.69.456.077.16.182.337.063.513-.117.175-.116.298-.206.377-.085.071-.313.238-.436.395-.125.157-.215.488-.365.559-.149.071-.447.162-.531.059a.668.668 0 0 1-.11-.422c.02-.091.227-.261.175-.41-.053-.149-.202-.168-.364-.228-.163-.058-.267-.097-.267-.187M15.641 21.95c-.081-.087-.159-.16-.12-.245.039-.087.139-.271.16-.418a3.597 3.597 0 0 0 0-.588c-.014-.098.053-.251.08-.344.026-.093-.006-.266.163-.325.173-.058.353-.04.504-.012.153.025.457.104.544.271.086.165.14.356.239.422.098.066.403.2.41.247.006.045-.059.106-.166.29-.106.187-.1.663-.114.755-.011.093-.005.445-.125.522-.119.08-.311 0-.482-.085-.172-.087-.419-.182-.517-.272-.088-.08-.088-.185-.147-.212-.059-.026-.349.081-.429-.006m6.438-1.727c.068.07.091.303.089.37-.006.135-.019.325-.088.413-.069.091-.308.218-.379.243-.071.024-.286.102-.407-.007-.054-.046-.234-.17-.292-.283-.056-.113-.121-.541.097-.781.103-.116.291-.125.413-.228.109-.09.208-.194.325-.272.009.118-.085.262-.003.369.058.077.177.102.245.176m2.702-2.689c-.152-.021-.218-.071-.379-.065.093.139.335.116.486.174.069.024.119.073.168.104.166.095.468.206.512.255.041.053.338.18.5.117.068-.023.189-.052.159-.141-.127-.261-.495-.167-.691-.292-.064-.038-.064-.09-.161-.106-.093-.018-.206-.007-.275-.034-.07-.031-.214 0-.319-.012m-1.774-2.357s.003.041-.022.154c-.024.111-.073.354.028.548 0 0 .054-.063.041-.237-.013-.176.014-.196.017-.253 0-.058-.064-.212-.064-.212"/><path fill="#B50029" d="M22.34 17.232c.066.081-.024.21-.079.282-.058.08-.157.124-.352.33a8.403 8.403 0 0 0-.453.513c-.054.07-.178.26-.225.219-.047-.044.095-.308.13-.366.035-.058.24-.341.312-.383.071-.04.437-.347.424-.389-.013-.042-.136-.029-.195-.019-.057.015-.335.114-.412.131-.076.019-.17-.028-.059-.124.113-.094.142-.112.201-.126.057-.011.225-.017.26-.052s.04-.148.005-.17c-.035-.025-.087-.008-.136-.008-.046 0-.607-.1-.7-.117-.093-.018-.629-.16-.725-.177-.094-.018-.105-.083.048-.083s.431.054.531.054c.099 0 .217-.019.324-.013.106.007.407.059.494.03.089-.03.212-.084.23-.142.019-.057.03-.128-.024-.183-.053-.053-.288-.211-.354-.336-.063-.123-.128-.248-.194-.282-.065-.035-.177-.055-.225-.119-.047-.064-.07-.242.011-.207.083.037.308.156.344.201.034.047.092.164.164.248.071.081.224.225.295.265.07.043.211.146.253.234.224.013.27 0 .417.009.147.004.379.025.424.052.048.024.208.1.261.048.053-.055.199-.365.259-.442.058-.076.331-.412.383-.5.054-.09.372-.343.402-.325.028.017.093.058-.024.164-.118.105-.455.437-.501.519-.048.083-.235.388-.272.454-.033.063-.134.136-.103.176.027.042.223.094.263.135.042.042.167.267.077.326-.088.058-.194.004-.27-.077-.079-.082-.12-.17-.201-.225-.081-.053-.182-.083-.335-.136a1.648 1.648 0 0 0-.589-.041c-.094.023-.282.089-.29.194-.006.111.028.24.206.458"/><path fill="#B50029" d="M22.604 16.277c-.053 0-.23-.16-.289-.276-.058-.119-.184-.342-.224-.396s-.065-.171-.106-.206c-.04-.035-.228-.259-.175-.289.054-.028.246.166.271.219.022.053.211.312.258.375.046.065.188.29.224.355.034.063.094.218.041.218"/><path fill="#00125D" d="M64.258 3.94c-.539.429-1.413.375-2.088.294l.083-1.347c-.325-.35-.54-.672-1.051-.753-.674.513-.056 1.59-.323 2.37a4.815 4.815 0 0 1-1.521.271c-.271-.056-.487-.488-.755-.192-.216 1.455 0 3.1.968 4.202.458.109.981-.323 1.415-.269.083 1.323-.123 2.639.124 3.905l.159.16c.945-1.211.61-2.827.901-4.279.703-.028 1.472-.35 2.197-.109l.673-.671c.3-.461-.268-.727-.375-1.106.375-.512.997-.837 1.02-1.507-.378-.433-.862-.862-1.427-.969m-4.282 3.582l-.108-.167c.189-.723-.508-1.904.819-2.15h.216l.056 2.181c-.215.136-.717.136-.983.136m2.116-.514l.078-2.099c.46-.163 1.295-.025 1.782-.025-.408.782-.429 2.036-1.86 2.124m15.979.943c-.565.213-1.211.241-1.83.213v-.051c.135-.889.968-.744 1.397-1.147.107-.189.244-.28 0-.443-.62-.107-.586-.674-1.258-.728-.271.054-.189.379-.405.483-.189.057-1.098.082-1.264-.025-.133-1.021 1.34-.207 1.744-.8.159-.295-.135-.438-.296-.545l-2.721.35-.054-.054c.243-.353.829-.679 1.259-.599l-.157.303c.461 0 .729-.219 1.079-.486.861-.271 2.179.51 2.368-.673-.159-.645-.9-.27-1.252-.324.086-.163.232-.321.232-.54-.191-.402-.33-.461-.68-.542-.565.188-.756.862-1.103 1.293l-1.525.117-.105-.78c-.27-.432-.518-.41-.924-.519-.564.326-.078 1.053-.051 1.485-.379.187-.946.107-1.212.454.023.27.188.516.348.674.35.242.781-.025 1.129-.106.595.458-.429.323-.375.727.16.539.835.171 1.238.199.054.159.082.473-.023.634-1.229.41-1.132-.727-1.996-.431-.322.188-.081.541-.106.755l-.566.055c-.185.026-.215.242-.215.403.188.321.566.386.969.334.133.107.16.771.108.903-.675.161-1.403.19-2.074.35-.058.242.083.297.16.513.081.216.325.325.623.243.995-.241 1.991-.591 3.069-.648l.078.112c-.026.132.083.429-.026.511l-1.86.324c-.132.132-.025.185.031.294.297.943 1.238.122 1.83.418.082.808.055 1.654.326 2.383.943-.486.548-1.681.762-2.548.645-.132 1.419.107 2.037.165.214-.189.566-.204.51-.554-.322-.995-1.698-.43-2.479-.539l-.108-.106c-.025-.162-.095-.46.063-.567 1.051-.104 2.417 0 3.39.162l.402-.267c.162-.136.268-.194.215-.409-.216-.186-.429-.401-.702-.426m-4.439.35l-.942.058c.139-.243-.051-1.278.46-1.168l.482.021v1.089zm1.133-.136c0-.213-.087-1.381.969-1.121 0 .272-.698 1.012-.969 1.121m29.322-4.41c-.54.511-1.463.422-2.174.34.087-.482-.198-.824-.422-1.194-.398-.171-.799-.425-1.08-.026l.281 1.275c-.227.2-.576.2-.829.281-.511.06-1.418.427-1.418-.481-.224-.084-.368-.424-.625-.196-.087.849-.682 1.53-.537 2.41.139.255.23.682.624.623.513-.228.367-.907.65-1.305l1.104-.453c.455-.029 1.116-.51 1.488.056.253.086.389.058.644-.056.199-.426.932-.341 1.328-.253-.115.451-.766.733-.963 1.047.879.171 1.503-.595 2.298-.368.34.085.821.14 1.047-.171.088-.255.088-.539-.053-.765-.566-.026-.741-.848-1.363-.764m-18.111.468c.292.085.726.145.984-.027.119-.233.35-.465.205-.786-.349-.229-.668-.779-1.131-.779-.434.317-.059.926-.231 1.392l.173.2zm2.957.58h.173c.348.086.464.375.607.635.321.089.416-.143.618-.343.116-.292.233-.727.032-1.046-.438-.462-.996-.724-1.605-.491-.263.522.551.75.175 1.245m-.754 3.347c.116-.232.316-.219.231-.509-.146-.518-.725-.325-1.102-.553-.143-.73.609-1.154.581-1.819-.203-.496-.756-.639-1.248-.755l-1.448.606c-.113-.232-.405-.462-.668-.579-.172.896.034 2.05-.025 3.008l-.146.232a8.432 8.432 0 0 0-1.68.522c-.088.259.059.302.143.508.438.143.962-.08 1.394-.08.09.347-.115.765-.058 1.111-.114.348-.202.813-.549.872l-.089.984c0 .146 0 .348.176.348 1.016-.84.81-2.392 1.07-3.521.319.261.261 1 .607 1.317.263.061.171-.136.288-.338.174-.292-.027-.768-.174-1.029.057-.173.761-.117.849-.203.173.463.09 1.291.058 1.752-.146.667-1.05.08-1.456.052-.025.174.176.261.176.406.812.32.377 1.623 1.448 1.565.292-.202.548-.434.724-.756-.058-.984-.087-2.156.03-3.086.258.033.636.117.868-.055m-1.707-.797l-.427.088c0-.347.062-.98-.404-1.125-.203-.056-.308-.238-.364.136l.165 1.112c-.058.06-.392.101-.512.101-.055-.552.12-1.238.148-1.788l1.364-.58.088.113c-.087.668.001 1.276-.058 1.943"/><path fill="#00125D" d="M87.802 6.657c1.274-.205 2.726-.347 4.143-.29.172-.09.261-.29.261-.464-.173-.232-.404-.694-.779-.609-1.218.407-2.523.521-3.768.813-.057.233.085.377.143.55m12.889-.154l.057-.482c-.115-.51-.545-.539-.972-.593-.829 1.654-1.595 2.415-2.638 3.771 1.419-.425 2.532-1.561 3.553-2.696m2.213-.084c-.426.112-.913-.253-1.198-.084.17.284.85.312.538.708l.367-.025c.572.14.938.681 1.194 1.132.396.143.735-.115.966-.341.142-.257.063-.343.006-.654-.454-.568-1.134-1.333-1.873-.736m-10.927 4.343c-.408.147-.96.089-1.19-.318-.376-.957-.112-2.193.315-3.064l-.085-.173c-.462-.868-1.159.03-1.824-.084-.262-.091-.521-.234-.664.084.113.811-.032 1.592-.296 2.262-.199.347-.373.897-.807.954v.348c0 .232.072.436.333.436.611-.405.9-1.102 1.219-1.738.232-.579.263-1.218.491-1.797.148 0 .445-.146.56-.03-.232 1.45-.832 3.432.532 4.417.572.32 2.049.25 2.775-.417.373-1.073-.407-1.941-.523-2.898-.144.695-.084 1.67-.836 2.018m11.486-.404c-.565.226-1.316.341-1.968.17-.03-.453.03-1.014.114-1.438l1.261-.145c.283-.137.506-.373.394-.685-.196-.284-.564-.424-.88-.539-.848.595-1.956.539-2.945.711-.061.623.586.751 1.068.949-.169.368.053 1.173-.169 1.542-.566.086-1.298.057-1.805.339-.201.086-.147.286-.091.429.199.224.428.484.77.454 1.586-.253 3.399-.282 4.931-.054.399-.257.566-.627.455-1.082-.369-.254-.709-.536-1.135-.651"/></svg>