<?xml version="1.0" encoding="utf-8"?>
<!-- Generator: Adobe Illustrator 16.0.0, SVG Export Plug-In . SVG Version: 6.00 Build 0)  -->
<!DOCTYPE svg PUBLIC "-//W3C//DTD SVG 1.1//EN" "http://www.w3.org/Graphics/SVG/1.1/DTD/svg11.dtd">
<svg version="1.1" id="圖層_1" xmlns="http://www.w3.org/2000/svg" xmlns:xlink="http://www.w3.org/1999/xlink" x="0px" y="0px"
	 width="134.871px" height="25px" viewBox="11.512 2.134 134.871 25" enable-background="new 11.512 2.134 134.871 25"
	 xml:space="preserve">
<g>
	<path fill="#002F7C" d="M144.255,16.16l-0.007,0.004c1.021,1.027,1.693,2.418,1.801,3.974c0.24,3.445-2.353,6.431-5.794,6.672
		c-1.619,0.111-3.14-0.402-4.315-1.333l-0.005,0.006c1.225,1.138,2.898,1.788,4.694,1.662c3.443-0.239,6.037-3.226,5.797-6.667
		C146.306,18.736,145.483,17.209,144.255,16.16"/>
	<path fill="#002F7C" d="M133.183,23.271c-0.198,0.11-0.243,0.277-0.142,0.534c0.09,0.235,0.239,0.336,0.398,0.271
		c0.123-0.047,0.147-0.158,0.093-0.44l-0.021-0.11c-0.052-0.274-0.061-0.395-0.026-0.515c0.032-0.135,0.11-0.222,0.229-0.268
		c0.282-0.114,0.549,0.063,0.707,0.458c0.173,0.428,0.078,0.752-0.256,0.893l-0.086-0.21c0.236-0.1,0.296-0.319,0.169-0.632
		c-0.104-0.253-0.266-0.364-0.434-0.297c-0.138,0.054-0.172,0.181-0.116,0.469l0.018,0.125l0.018,0.106
		c0.038,0.212,0.041,0.289,0.021,0.38c-0.031,0.116-0.101,0.197-0.219,0.243c-0.267,0.108-0.521-0.05-0.662-0.407
		c-0.156-0.388-0.071-0.678,0.224-0.811L133.183,23.271z"/>
	<polygon fill="#002F7C" points="133.003,21.014 133.953,20.216 133.956,20.509 133.157,21.175 133.418,21.461 133.982,21.451 
		133.984,21.681 132.374,21.717 132.369,21.487 133.001,21.471 133.088,21.471 133.171,21.47 133.119,21.412 133.061,21.357 
		132.349,20.587 132.344,20.28 	"/>
	<path fill="#002F7C" d="M133.72,18.516l0.619,0.219l-0.076,0.217l-0.621-0.217l-1.114,0.335l0.093-0.265l0.693-0.194l0.087-0.023
		c0.032-0.012,0.055-0.016,0.114-0.027c-0.055-0.066-0.065-0.079-0.127-0.159l-0.425-0.581l0.09-0.252L133.72,18.516z"/>
	<polygon fill="#002F7C" points="134.809,15.551 134.467,15.971 135.485,16.803 135.241,17.101 134.223,16.27 133.886,16.683 
		133.653,16.495 134.577,15.366 	"/>
	<polygon fill="#002F7C" points="136.984,14.029 136.169,14.502 136.343,14.801 137.087,14.364 137.228,14.6 136.481,15.039 
		136.681,15.382 137.512,14.894 137.663,15.152 136.494,15.831 135.683,14.441 136.83,13.768 	"/>
	<path fill="#002F7C" d="M140.099,14.654l-0.417,0.028l-0.209-0.348l-0.654,0.104l-0.087,0.393l-0.4,0.104l0.421-1.76l0.4-0.064
		L140.099,14.654z M139.178,13.825c-0.089-0.149-0.123-0.215-0.173-0.331c-0.013,0.116-0.025,0.201-0.065,0.365l-0.068,0.311
		l0.468-0.077L139.178,13.825z"/>
	<path fill="#002F7C" d="M142.688,15.169l-0.34-0.13l0.128-0.478c0.016-0.057,0.037-0.133,0.067-0.232
		c0.022-0.102,0.049-0.181,0.063-0.238c0.023-0.062,0.041-0.13,0.063-0.2l0.04-0.114c-0.096,0.163-0.132,0.219-0.22,0.352
		c-0.035,0.059-0.069,0.106-0.099,0.149l-0.458,0.641l-0.293-0.078l-0.092-0.771c-0.01-0.04-0.013-0.095-0.017-0.173
		c-0.004-0.1-0.008-0.177-0.01-0.23c-0.004-0.044-0.004-0.108-0.004-0.195l-0.038,0.195c-0.05,0.21-0.071,0.302-0.134,0.555
		l-0.133,0.521l-0.358-0.057l0.404-1.577l0.539,0.106l0.079,0.746c0.019,0.175,0.025,0.32,0.016,0.529
		c0.063-0.12,0.08-0.16,0.151-0.268c0.048-0.072,0.089-0.135,0.125-0.189l0.425-0.608l0.513,0.174L142.688,15.169z"/>
	<path fill="#002F7C" d="M139.609,18.277c-0.193,0.172-0.583,0.542-0.955,0.902l-0.426,0.407c-0.343-0.062-0.685-0.094-1.036-0.094
		c-0.786,0-1.508,0.218-1.834,0.553c-0.124,0.128-0.188,0.267-0.182,0.412c0.007,0.382,0.44,0.571,0.575,0.623
		c0.695,0.26,1.28,0.187,1.896-0.245c0.339-0.238,0.747-0.619,1.065-0.927c0.248,0.056,0.53,0.129,0.833,0.221l0.282,0.081
		c-0.366,0.357-0.737,0.731-1.08,1.035l-0.026,0.024c-0.48,0.421-0.826,0.726-1.326,0.837c-0.352,0.078-0.603,0.005-0.682-0.046
		c-0.01,0.002-0.019,0.017-0.019,0.017c0.288,0.236,0.561,0.373,1.034,0.333c0.449-0.039,0.967-0.321,1.495-0.819l0.719-0.702
		l0.501-0.497c0,0.001,1.014,0.3,1.014,0.3c0.012,0,0.019,0.002,0.019,0.002c-0.008,0-0.627,0.61-0.627,0.61l-0.539,0.538
		c-0.554,0.535-0.854,0.813-1.173,1.04c-0.535,0.378-0.99,0.577-1.393,0.604c-0.211,0.014-0.512,0-0.762-0.147
		c-0.014-0.002-0.023,0.011-0.023,0.011c0.269,0.233,0.604,0.513,1.181,0.496c0.648-0.021,1.225-0.332,2.121-1.153
		c0.407-0.377,0.813-0.796,1.171-1.164l0.665-0.678c0.439,0.096,0.828,0.137,1.267,0.129c0.628-0.017,1.167-0.316,1.173-0.66
		c0.009-0.256-0.2-0.393-0.328-0.473c-0.104-0.072-0.387-0.229-0.774-0.229c-0.473,0-0.969,0.209-1.469,0.622l-0.335,0.298
		c0.003-0.002-0.121-0.033-0.121-0.033l-0.928-0.265c0.272-0.253,0.507-0.473,0.714-0.661c0.511-0.448,1.069-0.637,1.399-0.656
		c0.241-0.017,0.652,0.005,0.827,0.125c0.006-0.001,0.019-0.018,0.019-0.018c-0.454-0.391-0.854-0.444-1.176-0.444
		s-0.836,0.104-1.466,0.589c-0.257,0.201-0.59,0.537-0.942,0.889c0-0.002-0.468-0.144-0.468-0.144l-0.112-0.034l-0.493-0.151
		c0.009,0,0.28-0.269,0.28-0.269c0.332-0.324,0.646-0.633,0.889-0.837c0.892-0.749,1.447-0.847,1.838-0.851
		c0.424,0,0.769,0.087,1.011,0.263c0.004-0.001,0.016-0.018,0.016-0.018c-0.497-0.452-0.856-0.597-1.478-0.604
		C140.896,17.413,140.245,17.718,139.609,18.277 M136.114,20.945c-0.287-0.02-0.43-0.133-0.43-0.357c0-0.03,0.022-0.734,1.638-0.815
		c0.183-0.011,0.391-0.019,0.703,0.019c-0.016,0-0.185,0.157-0.185,0.157l-0.104,0.092C137.35,20.396,136.699,20.986,136.114,20.945
		 M142.652,20.373c0.467-0.314,0.851-0.481,1.091-0.473c0.145,0.001,0.313,0.047,0.313,0.22c0,0.187-0.174,0.335-0.51,0.457
		c-0.293,0.104-0.744,0.132-1.24,0.075C142.439,20.533,142.558,20.437,142.652,20.373"/>
	<line fill="none" x1="139.449" y1="20.72" x2="139.449" y2="21.198"/>
	<path fill="#002F7C" d="M143.347,13.885c0.061-0.138,0.213-0.199,0.35-0.142c0.136,0.061,0.197,0.211,0.141,0.346
		c-0.059,0.138-0.213,0.198-0.346,0.139C143.352,14.172,143.294,14.018,143.347,13.885 M143.791,14.094
		c0.058-0.109,0.013-0.244-0.089-0.299c-0.109-0.061-0.247-0.026-0.305,0.084c-0.062,0.106-0.019,0.244,0.087,0.303
		C143.591,14.239,143.729,14.203,143.791,14.094 M143.634,14.172l-0.043-0.022l-0.01-0.161l-0.043-0.022l-0.063,0.117l-0.038-0.019
		l0.143-0.254l0.108,0.061c0.044,0.025,0.084,0.062,0.053,0.117c-0.022,0.051-0.07,0.051-0.118,0.025L143.634,14.172z M143.6,13.954
		c0.031,0.018,0.085,0.052,0.103,0.014c0.019-0.027-0.015-0.052-0.041-0.064l-0.067-0.038l-0.039,0.064L143.6,13.954z"/>
	<path fill="#B50029" d="M14.187,21.684c0.235,1.006,0.197,2.667-0.478,3.5c-0.969,1.197-1.897-0.117-2.138-1.106
		c-0.259-1.066-0.227-2.923,0.556-3.774c0.269-0.339,0.701-0.553,1.1-0.274C13.844,20.454,13.975,20.996,14.187,21.684"/>
	<path fill="#FFFFFF" d="M13.285,22.99c0.043,0.111-0.064,0.301,0.126,0.339c0.125,0.104,0.419,0.063,0.396,0.262
		c-0.239-0.014-0.418-0.232-0.694-0.173c-0.143,0.028-0.268,0.11-0.41,0.152c-0.018-0.021-0.043-0.038-0.031-0.065
		c0.141-0.111,0.341-0.111,0.473-0.238l0.008-0.347C13.22,22.836,13.305,22.907,13.285,22.99"/>
	<path fill="#FFFFFF" d="M13.509,23.765c0.133,0.13,0.042,0.3,0.062,0.468c-0.009,0.367,0.003,0.676,0.092,1.027
		c-0.002,0.046-0.019,0.098-0.065,0.115c-0.044,0.003-0.051-0.043-0.074-0.064c-0.031-0.476-0.08-0.944-0.091-1.429
		c-0.032-0.124-0.212-0.044-0.293-0.063c-0.046,0.004-0.086,0.031-0.125,0.063c-0.025,0.478,0,0.973-0.08,1.469
		c-0.016,0.017-0.036,0.021-0.06,0.02l-0.025-0.038c0.042-0.489,0.034-1.03,0.07-1.495c0.059-0.075,0.169-0.146,0.286-0.134
		C13.306,23.693,13.421,23.725,13.509,23.765"/>
	<path fill="#FFFFFF" d="M12.469,24.568c0.013,0.117-0.01,0.206,0.003,0.303c0.017,0.113-0.031,0.222-0.045,0.334
		c-0.002,0.056-0.048,0.103-0.021,0.162h0.057c0.096-0.049,0.082-0.168,0.093-0.265c0.026-0.112,0.009-0.198,0.023-0.293
		c0.012-0.215,0.016-0.396,0.017-0.59c0.008-0.055,0-0.08,0.004-0.123c0.038-0.18,0.004-0.39-0.016-0.571
		c-0.068-0.18-0.272-0.191-0.424-0.234c-0.043-0.025-0.06-0.081-0.063-0.123c0.037-0.082,0.136-0.111,0.22-0.117
		c0.028-0.017,0.051-0.013,0.077-0.021c0.051-0.018,0.082-0.026,0.125-0.031c0.036-0.008,0.047-0.041,0.047-0.075
		c-0.07-0.104-0.149,0.016-0.245,0.011c-0.109,0.047-0.311,0.039-0.334,0.211c-0.021,0.073,0.021,0.139,0.061,0.19
		c0.031,0.027,0.067,0.054,0.144,0.059c0.1,0.034,0.242,0.042,0.284,0.15c-0.001,0.051,0.012,0.163,0.014,0.198
		c0.005,0.044,0.005,0.08,0,0.125c0.024,0.066-0.002,0.14-0.005,0.211c-0.027,0.059-0.12,0.028-0.175,0.031
		c-0.047-0.023-0.108-0.005-0.148-0.043c-0.021-0.056-0.019-0.133-0.012-0.196c0.096-0.048,0.173-0.033,0.269-0.083
		c0.004-0.004,0.008-0.01,0.012-0.019c0.004-0.011,0.006-0.023,0-0.034c-0.006-0.01-0.012-0.013-0.018-0.022
		c-0.06-0.06-0.076,0.005-0.162,0.01c-0.018,0-0.031,0.002-0.051,0.001c-0.125,0.007-0.038-0.161-0.083-0.225
		c-0.021-0.012-0.038-0.064-0.074-0.048c-0.085,0.062,0.008,0.169-0.014,0.253c0.022,0.233,0.018,0.489-0.026,0.734
		c0.028,0.108-0.024,0.253-0.019,0.368c-0.018,0.049-0.007,0.107-0.025,0.156c0.008,0.058-0.052,0.143,0.008,0.184
		c0.023-0.021,0.052-0.033,0.068-0.067c0.029-0.164,0.062-0.322,0.081-0.49c0.004-0.031,0.023-0.056,0.061-0.046
		c0.081,0.008,0.099,0.053,0.173,0.056c0.106-0.025,0.036-0.103,0.018-0.114c-0.088-0.006-0.078-0.041-0.162-0.057
		c-0.024-0.002-0.08,0.013-0.072-0.025c0.001-0.059,0.01-0.136,0.027-0.186c0.07-0.022,0.146,0,0.222,0
		c0.027,0.004,0.095,0.012,0.104,0.042C12.5,24.342,12.482,24.484,12.469,24.568"/>
	<path fill="#FFFFFF" d="M13.851,21.714l-0.116-0.021c-0.043-0.034-0.084-0.055-0.136-0.086c-0.096-0.073-0.245-0.118-0.352-0.226
		c-0.099,0.006-0.141,0.099-0.232,0.151c-0.011,0.009-0.032,0.023-0.046,0.001c0.039-0.078,0.116-0.112,0.171-0.17
		c0.035-0.025,0.081-0.045,0.111-0.073c0.068,0.025,0.094,0.072,0.146,0.097c0.083,0.04,0.119,0.083,0.189,0.113
		c0.075,0.046,0.121,0.069,0.188,0.097c0.038,0.026,0.135,0.016,0.093,0.107L13.851,21.714z"/>
	<path fill="#FFFFFF" d="M13.661,20.565c-0.008,0.041-0.061,0.064-0.117,0.065c-0.067-0.001-0.083,0.021-0.139,0.054
		c-0.016,0.019-0.032,0.046-0.021,0.071c-0.001,0.052,0.086,0.067,0.143,0.086c0.018,0.003,0.03,0.02,0.028,0.041
		c-0.022,0.017-0.054-0.002-0.084,0.005c-0.088,0.02-0.185-0.018-0.269-0.005c-0.038,0.012-0.045,0-0.095,0.018
		c-0.022,0.005-0.035,0.005-0.058,0.013c-0.054,0.021-0.153,0-0.159,0.06c-0.014,0.059-0.025,0.125-0.029,0.189
		c-0.005,0.028-0.002,0.063-0.019,0.093c0,0.089,0.019,0.229,0.042,0.354c-0.004,0.026-0.009,0.058,0,0.084
		c0.049,0.054,0.146,0.017,0.183,0.027c0.073,0,0.114,0.008,0.173,0.003c0.054,0.01,0.114,0.003,0.174,0.017
		c0.007-0.007,0.027,0.015,0.037,0.022c0,0.024-0.03,0.026-0.054,0.029c-0.043,0.005-0.095,0.005-0.157-0.009
		c-0.134-0.004-0.237,0.02-0.39,0.015c-0.072,0.003-0.106,0.005-0.197,0.003c-0.012-0.005-0.079,0.005-0.097,0.005
		c-0.08-0.003-0.088-0.003-0.168-0.015c-0.02-0.014-0.055,0.01-0.065-0.022c-0.011-0.028,0.024-0.025,0.037-0.03
		c0.078,0,0.149,0.002,0.218,0.002c0.096-0.002,0.141-0.005,0.201-0.032c0.011-0.025,0.008-0.049,0.009-0.07
		c0.005-0.102-0.022-0.204-0.013-0.328c0.012-0.063,0.001-0.15,0.013-0.214c0.005-0.059,0.005-0.197,0.049-0.229l0.191-0.048
		c0.07,0.005,0.125-0.01,0.201-0.005c0.041-0.007,0.086-0.025,0.104-0.068c0.004-0.039-0.023-0.078-0.061-0.083
		c-0.049-0.01-0.043-0.005-0.099-0.015c-0.034-0.008-0.071,0.001-0.096-0.04c-0.073-0.089-0.089-0.208-0.071-0.321
		c0.009-0.021,0.027-0.049,0.056-0.028c0.036,0.045,0.008,0.089,0.003,0.135c-0.013,0.109,0.052,0.156,0.09,0.182
		c0.047,0.017,0.055,0.009,0.109,0.004c0.052-0.039,0.024-0.102,0.046-0.156c-0.009-0.083,0.013-0.123,0.044-0.197
		c0.035,0,0.035,0.038,0.045,0.062l-0.003,0.037c0.009,0.069-0.007,0.153,0.025,0.235c0.021,0.031,0.022,0.023,0.061,0.023
		c0.052-0.019,0.095-0.044,0.104-0.098c0.021-0.056-0.022-0.166,0.06-0.171c0.023-0.005,0.021,0.005,0.026,0.018L13.661,20.565z"/>
	<path fill="#FFFFFF" d="M13.657,21.298c-0.024,0-0.054-0.006-0.078-0.023c-0.058-0.073-0.221-0.106-0.278-0.156
		c-0.083-0.033-0.089,0.004-0.145,0.032c-0.031,0.038-0.077,0.054-0.115,0.076c-0.03,0.027-0.037,0.04-0.069,0.045
		c-0.013-0.005-0.03-0.019-0.018-0.03c0.038-0.036,0.053-0.058,0.089-0.082c0.065-0.037,0.136-0.092,0.197-0.134
		c0.062,0.033,0.197,0.075,0.267,0.105c0.054,0.053,0.137,0.072,0.179,0.136C13.691,21.285,13.674,21.295,13.657,21.298"/>
	<path fill="#FFFFFF" d="M13.348,22.344c0.023,0.089,0.005,0.255-0.038,0.288c-0.038,0.051-0.077,0.051-0.117,0.063
		c-0.119,0.012-0.088,0.017-0.203,0.03l-0.184,0.018c-0.117,0.002-0.2,0.01-0.328,0.008c-0.056,0.011-0.119-0.018-0.177-0.035
		c-0.012-0.019-0.042-0.019-0.042-0.054c0-0.034,0.071-0.02,0.126-0.019c0.111,0.01,0.219,0.021,0.33,0.017
		c0.116-0.013,0.154-0.009,0.298-0.013c0.032-0.004,0.091-0.019,0.111-0.029c0.104-0.037,0.095-0.034,0.122-0.132
		c0.015-0.09,0.001-0.114-0.097-0.141c-0.113-0.029-0.198-0.007-0.27-0.081c-0.05-0.069,0.012-0.16-0.095-0.21
		c-0.094,0.013-0.157,0.02-0.259,0.017c-0.053,0-0.09,0.005-0.144,0.004c-0.028-0.009-0.068-0.004-0.116-0.008
		c-0.035,0-0.038-0.007-0.074-0.007c-0.016-0.02-0.048-0.039-0.021-0.066c0.04-0.02,0.074,0.002,0.11-0.018
		c0.091-0.001,0.171,0,0.271-0.002c0.036,0.002,0.075,0.002,0.104,0.006c0.089-0.011,0.172,0.007,0.271-0.002
		c0.076,0.002,0.137,0.009,0.195,0.004c0.059,0.005,0.094,0.014,0.125,0.007c0.071-0.015,0.123,0.004,0.177-0.002
		c0.086,0.009,0.115-0.021,0.182-0.005c0.025,0.005,0.036,0.035,0.047,0.043c-0.01,0.016-0.013,0.034-0.035,0.038
		c-0.059,0.028-0.116,0.01-0.201,0.01c-0.059,0.011-0.116,0.001-0.196,0.013c-0.045-0.012-0.102-0.013-0.163-0.017
		c-0.047-0.003-0.083,0.002-0.123,0.011c-0.003,0.051,0.009,0.096,0.051,0.133c0.047,0.034,0.139,0.029,0.203,0.041
		C13.247,22.275,13.323,22.282,13.348,22.344"/>
	<path fill="#FFFFFF" d="M12.826,20.326c-0.012,0.089,0.016,0.255-0.082,0.339c-0.078,0.022-0.18-0.013-0.233,0.066
		c-0.045,0.068,0.008,0.13-0.01,0.201c0.022,0.087,0.113,0.119,0.159,0.189c0.034,0.036,0.045,0.054,0.057,0.093
		c-0.018,0.014-0.04,0.022-0.055,0.012l-0.019-0.019l-0.031-0.036c-0.029-0.02-0.062-0.069-0.1-0.078
		c-0.131-0.001-0.2,0.121-0.302,0.187c-0.033,0.026-0.065,0.051-0.101,0.074c-0.022,0.023-0.041,0.037-0.063,0.056
		c-0.045,0.036-0.077,0.057-0.129,0.071l-0.012-0.021c0.011-0.021,0.055-0.05,0.089-0.072c0.073-0.081,0.146-0.175,0.248-0.225
		c0.07-0.063,0.172-0.111,0.208-0.208c0.002-0.034-0.018-0.064-0.035-0.085c-0.007-0.057,0.024-0.121-0.043-0.151
		c-0.078,0.007-0.166-0.045-0.188-0.062c-0.091-0.11-0.116-0.267-0.057-0.407l0.01-0.003c0.063,0.016,0.042,0.082,0.045,0.133
		c0.003,0.068,0.018,0.149,0.071,0.196c0.019,0.027,0.052,0.05,0.084,0.06c0.027-0.004,0.06-0.023,0.063-0.05
		c0.037-0.096-0.021-0.186,0.022-0.284c-0.001-0.023-0.006-0.068,0.029-0.083l0.066,0.015c0.003,0.062-0.024,0.114-0.017,0.181
		c0.003,0.059-0.012,0.125,0.034,0.16c0.021,0.022,0.052,0.033,0.081,0.021c0.077-0.004,0.118-0.076,0.13-0.126
		c-0.002-0.078,0.02-0.147,0.013-0.195l0.017-0.036C12.805,20.255,12.822,20.285,12.826,20.326"/>
	<path fill="#FFFFFF" d="M12.662,21.571c-0.038,0.003-0.033-0.046-0.058-0.064c-0.041-0.037-0.083-0.109-0.15-0.081
		c-0.031,0.02-0.06,0.043-0.096,0.064c-0.101,0.118-0.206,0.172-0.31,0.277c-0.026,0.006-0.038-0.01-0.043-0.028
		c0.029-0.044,0.077-0.075,0.117-0.108c0.031-0.019,0.055-0.06,0.091-0.084c0.023-0.026,0.038-0.045,0.059-0.063
		c0.059-0.062,0.107-0.079,0.16-0.135c0.024-0.021,0.061-0.038,0.086-0.018c0.024,0.06,0.095,0.091,0.14,0.136
		C12.676,21.495,12.726,21.547,12.662,21.571"/>
	<path fill="#00125D" d="M41.229,17.781l-0.066,0.045c-0.547-0.329-1.411-0.583-2.233-0.583c-1.665,0-2.97,1.171-2.97,2.938
		c0,1.852,1.523,2.892,3.08,2.892c1.018,0,2.013-0.362,2.541-0.877l0.077,0.053l-0.317,1.515c-0.559,0.33-1.567,0.504-2.356,0.504
		c-2.583,0-4.743-1.556-4.743-4.097c0-2.324,1.773-4.163,4.7-4.163c0.973,0,1.906,0.231,2.584,0.525L41.229,17.781z M50.104,24.079
		c-0.033-0.438-0.054-0.899-0.054-1.327v-5.237c0-0.393,0.021-0.897,0.054-1.325h-1.71c0.034,0.428,0.056,0.933,0.056,1.325v1.93
		h-4.085v-1.93c0-0.393,0.021-0.897,0.054-1.325H42.71c0.032,0.428,0.054,0.933,0.054,1.325v5.237c0,0.428-0.022,0.889-0.054,1.327
		h1.708c-0.032-0.438-0.054-0.899-0.054-1.327v-2.114h4.085v2.114c0,0.428-0.021,0.889-0.056,1.327H50.104z M53.786,24.079
		c-0.033-0.438-0.056-0.899-0.056-1.327v-5.237c0-0.393,0.023-0.897,0.056-1.325h-1.708c0.032,0.428,0.052,0.933,0.052,1.325v5.237
		c0,0.428-0.02,0.889-0.052,1.327H53.786z M63.03,16.19c-0.032,0.408-0.054,0.944-0.054,1.348v6.628h-0.251l-5.534-5.652v4.239
		c0,0.428,0.023,0.889,0.057,1.327H55.79c0.032-0.438,0.053-0.899,0.053-1.327v-5.618l-0.833-0.845v-0.1h2.027l4.59,4.723v-3.397
		c0-0.427-0.023-0.885-0.056-1.325H63.03z M72.969,24.079c-0.341-0.505-0.638-1.042-0.889-1.5l-3.713-6.795h-0.374l-4.415,8.295
		h1.764c0.142-0.407,0.306-0.802,0.438-1.063l0.482-0.984h3.79l0.517,1.018c0.152,0.306,0.338,0.667,0.427,1.03H72.969z
		 M68.092,18.196h0.055l1.37,2.75h-2.728L68.092,18.196z M84.965,24.079c-0.339-0.505-0.635-1.042-0.887-1.5l-3.714-6.795h-0.376
		l-4.414,8.295h1.765c0.143-0.407,0.307-0.802,0.439-1.063l0.482-0.984h3.79l0.516,1.018c0.155,0.306,0.342,0.667,0.427,1.03H84.965
		z M80.088,18.196h0.054l1.372,2.75h-2.729L80.088,18.196z M87.243,24.079c-0.032-0.438-0.055-0.899-0.055-1.327v-5.237
		c0-0.393,0.022-0.897,0.055-1.325h-1.71c0.033,0.428,0.055,0.933,0.055,1.325v5.237c0,0.428-0.021,0.889-0.055,1.327H87.243z
		 M89.248,24.079c0.031-0.438,0.054-0.899,0.054-1.327v-5.237c0-0.393-0.021-0.897-0.054-1.325h3.076
		c1.755,0,2.916,0.91,2.916,2.138s-0.921,1.961-2.028,2.168l1.994,2.235c0.362,0.416,0.767,0.843,1.261,1.248v0.099h-2.071
		l-3.494-4.097v2.771c0,0.428,0.021,0.889,0.056,1.326h-1.709V24.079z M90.902,19.785h0.92c1.063,0,1.71-0.429,1.71-1.371
		c0-0.82-0.625-1.227-1.72-1.227h-0.91V19.785z M101.847,24.079l0.33-1.413l-0.092-0.043c-0.413,0.229-0.962,0.371-1.552,0.371
		h-1.898v-5.479c0-0.393,0.023-0.897,0.058-1.326h-1.709c0.032,0.429,0.054,0.934,0.054,1.326v5.237
		c0,0.428-0.021,0.889-0.054,1.326H101.847L101.847,24.079z M104.793,24.079c-0.033-0.438-0.054-0.899-0.054-1.327v-5.237
		c0-0.393,0.021-0.897,0.054-1.325h-1.71c0.032,0.428,0.057,0.933,0.057,1.325v5.237c0,0.428-0.024,0.889-0.057,1.327H104.793z
		 M114.029,16.19c-0.032,0.408-0.054,0.944-0.054,1.348v6.628h-0.253l-5.535-5.652v4.239c0,0.428,0.022,0.889,0.057,1.327h-1.459
		c0.034-0.438,0.057-0.899,0.057-1.327v-5.618l-0.835-0.845v-0.1h2.027l4.59,4.723v-3.397c0-0.427-0.02-0.885-0.055-1.325H114.029z
		 M121.204,24.079l0.338-1.413l-0.087-0.043c-0.417,0.239-0.953,0.371-1.567,0.371h-2.585v-2.541h2.06
		c0.503,0,0.954,0.043,1.392,0.152l0.284-1.193h-3.735v-2.147h2.212c0.571,0,1.098,0.055,1.579,0.197l0.306-1.272h-5.752
		c0.034,0.429,0.055,0.934,0.055,1.326v5.237c0,0.428-0.021,0.889-0.055,1.326H121.204L121.204,24.079z M127.823,17.933
		c-0.525-0.471-1.47-0.788-2.29-0.788c-1.097,0-1.679,0.361-1.679,0.889c0,0.602,0.769,0.907,2.171,1.511
		c2.026,0.865,2.508,1.38,2.508,2.433c0,1.346-1.326,2.289-3.308,2.289c-1.118,0-2.277-0.406-2.969-0.854l0.296-1.436h0.097
		c0.527,0.678,1.634,1.127,2.588,1.127c1.029,0,1.752-0.382,1.752-0.998c0-0.579-0.579-0.832-2.156-1.488
		c-1.832-0.756-2.545-1.358-2.545-2.519c0-1.185,1.041-2.093,3.256-2.093c0.874,0,2.015,0.284,2.66,0.646l-0.295,1.281
		L127.823,17.933L127.823,17.933z"/>
	<path fill="#DD5365" d="M23.921,7.785c0.229,0.003,0.355,0.094,0.494,0.166c0.271,0.144,0.446,0.263,0.806,0.269
		c0.189,0,0.383,0.022,0.561,0.108c0.619,0.294,0.971,1.345,1.082,1.926c0.037,0.201,0.02,0.409,0,0.611
		c-0.018,0.2-0.04,0.391,0,0.558c0.067,0.303,0.185,0.305,0.264,0.305h0.001c0.077,0,0.171-0.022,0.271-0.042
		c0.072-0.016,0.144-0.032,0.225-0.042c0.177-0.025,0.35-0.038,0.517-0.038c0.238,0,0.468,0.026,0.686,0.081
		c0.234,0.056,0.457,0.079,0.695,0.101c0.175,0.015,0.354,0.03,0.542,0.063c0.185,0.032,0.823,0.149,1.183,0.306
		c0.205,0.087,0.362,0.229,0.518,0.365c0.13,0.121,0.259,0.232,0.414,0.315c0.896,0.479,1.159,1.039,0.893,1.944
		c-0.025,0.089-0.054,0.185-0.083,0.277c-0.085,0.303-0.177,0.62-0.277,0.909c-0.125,0.371-0.322,0.532-0.552,0.722
		c-0.066,0.056-0.138,0.114-0.211,0.182c-0.215,0.198-0.375,0.447-0.54,0.714c-0.232,0.369-0.475,0.75-0.88,0.988
		c-0.333,0.197-0.602,0.21-0.938,0.229c-0.021,0.001-0.043,0.001-0.061,0.001c-0.151,0.072,0.01,0.391,0.12,0.586
		c0.06,0.103,0.126,0.219,0.186,0.377c0.041,0.112,0.043,0.231,0.045,0.342c0.003,0.102,0.005,0.195,0.031,0.265
		c0.013,0.033,0.059,0.077,0.105,0.117c0.082,0.071,0.183,0.162,0.223,0.305c0.103,0.345,0.071,1.081-0.031,1.341
		c-0.028,0.072-0.096,0.149-0.176,0.238c-0.061,0.069-0.129,0.148-0.154,0.195c-0.031,0.063-0.048,0.143-0.064,0.226
		c-0.025,0.124-0.053,0.268-0.143,0.396c-0.353,0.507-1.114,0.773-1.725,0.987c-0.151,0.054-0.294,0.104-0.413,0.151
		c-0.168,0.069-0.306,0.102-0.427,0.102c-0.176,0-0.311-0.065-0.466-0.138c-0.074-0.036-0.159-0.075-0.258-0.115
		c-0.259-0.098-0.495-0.119-0.771-0.143c-0.135-0.011-0.275-0.022-0.425-0.043c-0.287-0.041-0.469-0.172-0.645-0.291
		c-0.027-0.017-0.05-0.033-0.077-0.051H24.44c-0.263,0-0.457-0.058-0.581-0.172c-0.284,0.409-0.716,0.721-1.345,0.977
		c-0.421,0.234-0.861,0.335-1.241,0.402c-0.106,0.032-0.19,0.058-0.268,0.082c-0.342,0.111-0.708,0.165-1.087,0.165
		c-0.136,0-0.278-0.009-0.412-0.022c-0.494,0-0.882-0.113-1.192-0.339c-0.332-0.161-0.623-0.375-0.865-0.626
		c-0.348-0.239-0.731-0.524-0.919-0.907c-0.223-0.459-0.114-0.662,0.028-0.926c0.04-0.071,0.08-0.149,0.12-0.238
		c0.007-0.021,0.02-0.046,0.032-0.074c0.251-0.576,0.332-0.828,0.35-0.935c-0.285-0.089-0.538-0.347-0.767-0.785
		c-0.124-0.243-0.256-0.458-0.338-0.556c-0.05-0.061-0.124-0.141-0.205-0.222c-0.053-0.051-0.124-0.111-0.145-0.132
		c-0.261-0.255-0.58-0.411-0.888-0.564c-0.28-0.138-0.567-0.28-0.801-0.495c-0.162-0.138-0.298-0.314-0.422-0.552
		c-0.37-0.57-0.733-1.176-0.837-1.775c-0.103-0.59,0.046-0.936,0.232-1.294c0.054-0.125,0.119-0.247,0.191-0.361
		c0.033-0.066,0.064-0.125,0.089-0.184c0.043-0.09,0.07-0.164,0.093-0.228c0.06-0.158,0.104-0.281,0.298-0.491
		c0.235-0.252,0.43-0.381,0.69-0.507c0.281-0.142,0.604-0.241,0.858-0.265c0.019-0.002,0.194-0.027,0.259-0.014
		c0.059,0.014,0.119,0.027,0.175,0.027c0.012,0,0.022,0,0.033-0.001c0.063-0.006,0.114-0.032,0.176-0.065
		c0.081-0.043,0.172-0.05,0.301-0.05h0.022c0.275,0.016,1.25,0.513,1.525,0.521c0,0,0.07,0.005,0.101-0.003
		c0.035-0.007,0.071-0.038,0.071-0.038c0.125-0.106,0.222-0.242,0.301-0.417c0.009-0.014,0.015-0.03,0.021-0.046h0.001
		c0.012-0.032,0.025-0.064,0.037-0.097v0c0.011-0.035,0.023-0.068,0.033-0.104c0.054-0.186,0.094-0.391,0.13-0.586
		c0.011-0.055,0.019-0.111,0.03-0.164l0.013-0.046l0.011-0.059c0.002-0.011,0.008-0.056,0.008-0.056
		c0.006-0.014,0.009-0.03,0.014-0.044l0.002-0.012c0.001-0.012,0.006-0.026,0.006-0.041l0.007-0.016
		c0.002-0.017,0.006-0.029,0.012-0.049l0.001-0.005c0.005-0.015,0.007-0.03,0.013-0.045l0.004-0.012
		c0.003-0.018,0.009-0.034,0.013-0.049v-0.003c0.008-0.017,0.011-0.031,0.018-0.044l0.003-0.015
		c0.004-0.017,0.009-0.031,0.015-0.048l0.001-0.002c0.006-0.014,0.014-0.03,0.019-0.044l0.004-0.013
		c0.005-0.017,0.012-0.033,0.018-0.048v0c0.01-0.016,0.013-0.028,0.02-0.043l0.006-0.014c0.007-0.014,0.014-0.029,0.021-0.044
		c0.101-0.198,0.162-0.437,0.23-0.693c0.137-0.514,0.277-1.039,0.73-1.317c0.2-0.12,0.409-0.138,0.61-0.156
		c0.172-0.015,0.333-0.031,0.48-0.105c0.125-0.064,0.231-0.151,0.341-0.243c0.153-0.129,0.315-0.267,0.54-0.334
		c0.025-0.008,0.045-0.013,0.071-0.019l0.017-0.005c0.02-0.006,0.045-0.011,0.064-0.015l0.015-0.004
		c0.018-0.003,0.038-0.006,0.054-0.013l0.018-0.001c0.019-0.005,0.042-0.007,0.061-0.012l0.019-0.001
		c0.016-0.002,0.033-0.006,0.049-0.008l0.02-0.001c0.017-0.002,0.037-0.003,0.057-0.005c0.006,0,0.023-0.002,0.023-0.002
		c0.014-0.001,0.028-0.001,0.041-0.003c0.011-0.001,0.023-0.001,0.036-0.001c0.014,0,0.024,0,0.038-0.002h0.03h0.031h0.023h0.03
		h0.02c0.072,0.002,0.152,0.005,0.236,0.012h0.005c0.032,0.002,0.061,0.003,0.09,0.008l0.015,0.001
		c0.032,0.003,0.062,0.006,0.091,0.008c0.075,0.007,0.14,0.011,0.205,0.011c0.2,0,0.353-0.031,0.565-0.077
		C23.587,7.821,23.799,7.782,23.921,7.785"/>
	<g>
		<g>
			<defs>
				<path id="SVGID_1_" d="M23.646,7.921c-0.411,0.077-0.617,0.15-1.019,0.11C22.26,7.995,21.909,7.97,21.514,8.09
					c-0.353,0.108-0.542,0.407-0.861,0.57c-0.35,0.18-0.742,0.052-1.083,0.258c-0.628,0.385-0.613,1.354-0.916,1.963
					c-0.336,0.668-0.192,1.714-0.83,2.224c0,0-0.039,0.031-0.093,0.043c-0.042,0.008-0.122,0.008-0.122,0.008
					c-0.294-0.008-1.16-0.5-1.544-0.52c-0.198-0.011-0.296,0.097-0.482,0.115c-0.091,0.008-0.17,0-0.245-0.006
					c-0.076-0.007-0.146-0.014-0.225-0.008c-0.268,0.026-0.584,0.135-0.815,0.252c-0.261,0.127-0.438,0.244-0.659,0.482
					c-0.255,0.276-0.224,0.378-0.371,0.688c-0.319,0.683-0.636,0.98-0.501,1.767c0.119,0.68,0.59,1.378,0.974,1.973
					c0.443,0.689,1.348,0.762,1.962,1.361c0.22,0.216,0.486,0.466,0.674,0.698c0.164,0.202,0.759,0.791,0.796,1.001
					c0.031,0.185-0.303,0.928-0.389,1.13c-0.185,0.427-0.403,0.541-0.151,1.055c0.303,0.609,1.167,0.991,1.663,1.424
					c0.671,0.582,1.677,0.366,2.497,0.239c0.855-0.13,1.618-0.259,2.282-0.939c0.345-0.354,0.494-0.719,1.073-0.521
					c0.431,0.144,0.59,0.452,1.055,0.521c0.45,0.064,0.813,0.036,1.218,0.192c0.453,0.174,0.556,0.355,1.068,0.15
					c0.598-0.24,1.664-0.497,2.083-1.098c0.132-0.187,0.107-0.422,0.196-0.602c0.067-0.129,0.291-0.324,0.327-0.424
					c0.088-0.231,0.125-0.938,0.03-1.259c-0.057-0.195-0.273-0.275-0.327-0.411c-0.07-0.186-0.008-0.423-0.077-0.614
					c-0.171-0.467-0.592-0.907-0.288-1.114c0.049-0.028,0.677-0.009,1.033-0.219c0.661-0.391,0.866-1.197,1.398-1.688
					c0.322-0.293,0.582-0.41,0.736-0.857c0.128-0.376,0.241-0.785,0.358-1.183c0.268-0.913-0.059-1.392-0.835-1.808
					c-0.358-0.19-0.57-0.523-0.921-0.676c-0.308-0.132-0.847-0.243-1.159-0.298c-0.439-0.076-0.826-0.063-1.247-0.167
					c-0.371-0.093-0.755-0.102-1.159-0.041c-0.423,0.062-0.756,0.263-0.885-0.307c-0.08-0.365,0.07-0.792,0-1.171
					c-0.108-0.58-0.449-1.58-1.02-1.852c-0.337-0.162-0.724-0.048-1.087-0.25c-0.321-0.18-0.481-0.264-0.792-0.264
					C23.791,7.91,23.722,7.913,23.646,7.921"/>
			</defs>
			<clipPath id="SVGID_2_">
				<use xlink:href="#SVGID_1_"  overflow="visible"/>
			</clipPath>
			
				<radialGradient id="SVGID_3_" cx="-392.509" cy="-449.0876" r="0.8553" gradientTransform="matrix(10.9647 0 0 10.9647 4326.6318 4940.5527)" gradientUnits="userSpaceOnUse">
				<stop  offset="0" style="stop-color:#FFFFFF"/>
				<stop  offset="0.0675" style="stop-color:#FFFFFF"/>
				<stop  offset="0.3804" style="stop-color:#F9DDE3"/>
				<stop  offset="1" style="stop-color:#DD5365"/>
			</radialGradient>
			<rect x="12.634" y="7.91" clip-path="url(#SVGID_2_)" fill="url(#SVGID_3_)" width="20.597" height="17.241"/>
		</g>
	</g>
	<g>
		<g>
			<defs>
				<path id="SVGID_4_" d="M23.821,7.895c-0.053,0.005-0.109,0.012-0.175,0.025c-0.411,0.077-0.614,0.139-1.019,0.101
					c-0.063-0.007-0.3-0.019-0.393-0.02c-0.231-0.007-0.467,0.013-0.72,0.088c-0.353,0.108-0.542,0.407-0.861,0.57
					c-0.35,0.18-0.742,0.052-1.083,0.258c-0.628,0.385-0.613,1.354-0.916,1.963c-0.251,0.501-0.234,1.209-0.476,1.747
					c0.019,0.197,0.054,0.389,0.108,0.574c0.095,0.301,0.679,0.278,0.571,0.862l0.023,0.093c0.47,1.559,3.253,1.175,4.047,0.566
					c0.403-0.313,1.176-0.564,1.485-0.953c0.268-0.346,1.148-0.623,1.37-0.991c0.346-0.575,0.792-1.349,0.75-1.875
					c-0.129-1.626-1.114-2.378-1.876-2.728c-0.363-0.165-0.471-0.283-0.793-0.283C23.85,7.894,23.835,7.895,23.821,7.895"/>
			</defs>
			<clipPath id="SVGID_5_">
				<use xlink:href="#SVGID_4_"  overflow="visible"/>
			</clipPath>
			
				<radialGradient id="SVGID_6_" cx="-404.6565" cy="-459.2195" r="0.8544" gradientTransform="matrix(8.4246 0 0 8.4246 3431.156 3877.7954)" gradientUnits="userSpaceOnUse">
				<stop  offset="0" style="stop-color:#DD5365"/>
				<stop  offset="0.2086" style="stop-color:#DD5365"/>
				<stop  offset="0.2967" style="stop-color:#DF5C6D"/>
				<stop  offset="0.4394" style="stop-color:#E47483"/>
				<stop  offset="0.6187" style="stop-color:#EC9BA6"/>
				<stop  offset="0.8259" style="stop-color:#F6D0D7"/>
				<stop  offset="0.8712" style="stop-color:#F9DDE3"/>
				<stop  offset="1" style="stop-color:#F9DDE3"/>
			</radialGradient>
			<rect x="18.177" y="7.894" clip-path="url(#SVGID_5_)" fill="url(#SVGID_6_)" width="8.397" height="7.822"/>
		</g>
	</g>
	<g>
		<g>
			<defs>
				<path id="SVGID_7_" d="M24.098,8.094c-0.054,0.007-0.115,0.018-0.182,0.028c-0.427,0.079-0.641,0.155-1.06,0.112
					c-0.069-0.005-0.332-0.019-0.407-0.026c-0.24-0.009-0.484,0.009-0.747,0.089c-0.367,0.11-0.566,0.416-0.896,0.583
					c-0.364,0.188-0.775,0.055-1.124,0.266c-0.35,0.213-0.766,0.974-0.895,1.933c-0.044,0.32,0.176,0.62,0.134,0.985
					c-0.188,1.558,0.256,1.204,0.588,1.836c0.623,1.177,0.561,1.538,0.252,1.474c0.343,0.414,0.659,0.943,0.405,1.278
					c1.062,0.229,2.412-0.059,2.929-0.457c0.423-0.327,1.006-0.645,1.33-1.053c0.28-0.356,0.8-1.493,1.033-1.871
					c0.361-0.594,0.754-0.715,1.037-1.816c0.474-1.842-0.463-2.63-1.452-3.046c-0.31-0.128-0.711-0.317-0.914-0.317
					C24.117,8.093,24.108,8.094,24.098,8.094"/>
			</defs>
			<clipPath id="SVGID_8_">
				<use xlink:href="#SVGID_7_"  overflow="visible"/>
			</clipPath>
			
				<radialGradient id="SVGID_9_" cx="-399.2952" cy="-456.6648" r="0.8548" gradientTransform="matrix(9.3886 0 0 8.9389 3771.804 4092.5303)" gradientUnits="userSpaceOnUse">
				<stop  offset="0" style="stop-color:#DD5365"/>
				<stop  offset="0.0868" style="stop-color:#DE596B"/>
				<stop  offset="0.2058" style="stop-color:#E26B7B"/>
				<stop  offset="0.3436" style="stop-color:#E88895"/>
				<stop  offset="0.4941" style="stop-color:#F0B0BA"/>
				<stop  offset="0.638" style="stop-color:#F9DDE3"/>
				<stop  offset="0.7644" style="stop-color:#FAE4E9"/>
				<stop  offset="0.9536" style="stop-color:#FEF9FA"/>
				<stop  offset="1" style="stop-color:#FFFFFF"/>
			</radialGradient>
			<rect x="18.735" y="8.093" clip-path="url(#SVGID_8_)" fill="url(#SVGID_9_)" width="8.233" height="8.788"/>
		</g>
	</g>
	<g>
		<g>
			<defs>
				<path id="SVGID_10_" d="M22.522,17.882c-0.656,0.173-1.834,0.015-2.407,0.407c-0.506,0.346-0.981,0.831-1.223,1.381
					c-0.596,0.653-1.245,1.226-1.604,1.735c-0.405,0.56-0.478,1.447-0.218,1.963c0.719,1.433,2.525,1.887,3.903,1.45
					c1.336-0.302,2.975-0.681,3.159-2.458c0.092-0.881,0.338-1.788,0.048-2.602c-0.217-0.596-0.271-1.919-1.31-1.919
					C22.764,17.84,22.65,17.853,22.522,17.882"/>
			</defs>
			<clipPath id="SVGID_11_">
				<use xlink:href="#SVGID_10_"  overflow="visible"/>
			</clipPath>
			
				<radialGradient id="SVGID_12_" cx="-424.7122" cy="-476.3303" r="0.8549" gradientTransform="matrix(6.0957 0 0 6.0957 2608.7654 2922.7673)" gradientUnits="userSpaceOnUse">
				<stop  offset="0" style="stop-color:#FFFFFF"/>
				<stop  offset="0.411" style="stop-color:#F9DDE3"/>
				<stop  offset="1" style="stop-color:#DD5365"/>
			</radialGradient>
			<rect x="16.811" y="17.84" clip-path="url(#SVGID_11_)" fill="url(#SVGID_12_)" width="7.66" height="7.415"/>
		</g>
	</g>
	<g>
		<g>
			<defs>
				<path id="SVGID_13_" d="M12.765,15.698c-0.014,0.646,0.505,1.343,0.789,1.896c0.41,0.802,0.782,0.833,1.51,1.225
					c0.606,0.327,0.991,0.71,1.333,1.37c0.89,1.708,1.857,0.116,2.628-0.51c0.571-0.464,0.923-1.5,0.755-2.244
					c-0.112-0.495-0.515-1.216-0.928-1.521l0.258,0.176c-0.326-0.323-0.074-0.729-0.221-1.121c-0.126-0.348-0.334-0.77-0.518-1.152
					c-0.277-0.574-0.591-0.429-0.873-0.285c-0.151,0.076-0.292,0.153-0.41,0.12c-0.365-0.094-0.894-0.213-1.236-0.349
					c-0.235-0.092-0.475-0.135-0.707-0.135C13.907,13.166,12.797,14.359,12.765,15.698"/>
			</defs>
			<clipPath id="SVGID_14_">
				<use xlink:href="#SVGID_13_"  overflow="visible"/>
			</clipPath>
			
				<radialGradient id="SVGID_15_" cx="-409.2361" cy="-463.178" r="0.8545" gradientTransform="matrix(7.7512 0 0 7.7512 3191.936 3607.877)" gradientUnits="userSpaceOnUse">
				<stop  offset="0" style="stop-color:#FFFFFF"/>
				<stop  offset="0.0675" style="stop-color:#FFFFFF"/>
				<stop  offset="0.4294" style="stop-color:#F9DDE3"/>
				<stop  offset="1" style="stop-color:#DD5365"/>
			</radialGradient>
			<rect x="12.751" y="13.166" clip-path="url(#SVGID_14_)" fill="url(#SVGID_15_)" width="7.197" height="8.73"/>
		</g>
	</g>
	<g>
		<g>
			<defs>
				<path id="SVGID_16_" d="M27.265,11.972c-0.371,0.064-0.758,0.334-1.02,0.516c-0.294,0.232-0.472,0.814-0.767,0.988
					c-0.684,0.318-0.703,0.482-1.076,1.075c-0.305,0.486-0.691,1.168-0.993,1.698c-0.004,0.207,0.013,0.412,0.053,0.609
					c0.061,0.333,0.442,0.864,0.432,1.153l0.015-0.115c0.313,1.692,3.753,2.202,3.121,1.377c-1.638-2.129,0.909-3.169,1.23-2.771
					c2.001,2.488,2.806,1.024,2.999,0.771c0.412-0.557,0.733-1.124,0.834-1.671c0.637-3.533-1.341-3.039-2.46-3.522
					c-0.053-0.002-0.112-0.001-0.177,0.002c-0.429,0.026-0.646,0.071-1.055-0.025c-0.063-0.014-0.13-0.03-0.193-0.046
					c-0.062-0.004-0.126-0.017-0.2-0.034c-0.131-0.021-0.263-0.035-0.399-0.035C27.496,11.942,27.383,11.95,27.265,11.972"/>
			</defs>
			<clipPath id="SVGID_17_">
				<use xlink:href="#SVGID_16_"  overflow="visible"/>
			</clipPath>
			
				<radialGradient id="SVGID_18_" cx="-380.5359" cy="-438.9324" r="0.8557" gradientTransform="matrix(15.631 0 0 15.631 5983.8164 6872.7061)" gradientUnits="userSpaceOnUse">
				<stop  offset="0" style="stop-color:#DD5365"/>
				<stop  offset="0.3067" style="stop-color:#DD5365"/>
				<stop  offset="0.4112" style="stop-color:#E36E7E"/>
				<stop  offset="0.6346" style="stop-color:#F1B3BD"/>
				<stop  offset="0.7607" style="stop-color:#F9DDE3"/>
				<stop  offset="1" style="stop-color:#F9DDE3"/>
			</radialGradient>
			<rect x="23.403" y="11.942" clip-path="url(#SVGID_17_)" fill="url(#SVGID_18_)" width="9.325" height="8.156"/>
		</g>
	</g>
	<g>
		<g>
			<defs>
				<path id="SVGID_19_" d="M26.911,19.001c0.007,0.002,0.013-0.004,0.017-0.008c0.002-0.004,0.003-0.008,0.001-0.008
					C26.926,18.986,26.921,18.99,26.911,19.001 M26.219,12.483c-0.104,0.113-0.211,0.22-0.268,0.313
					c-0.146,0.242-0.216,0.374-0.492,0.529c-0.193,0.106-0.339,0.156-0.477,0.313c-0.133,0.154-0.235,0.316-0.354,0.481
					c-0.226,0.322-0.664,0.398-1.058,0.404c-0.096,0.004-0.19-0.003-0.278-0.004c-0.542,0.354-1.112,0.554-1.633,0.427
					c-0.322-0.082-0.724-0.653-1.026-0.606c-0.304,0.046,0.175,0.202-0.068,0.461c-0.269,0.289-0.594,0.052-0.822-0.186
					c-0.156-0.162-0.265-0.324-0.281-0.319c-0.066,0.021,0.01,0.19,0.005,0.269c-0.015,0.17-0.167,0.271-0.185,0.443
					c-0.019,0.169,0.006,0.265,0.027,0.354c0.024,0.104,0.077,0.232,0.07,0.411c-0.009,0.301-0.008,0.203-0.019,0.505
					c-0.025,0.591-0.272,0.837-0.418,1.424c-0.156,0.641,0.505,0.978-0.29,2.174c-0.266,0.396-1.458,0.951-1.384,1.42
					c0.338-0.057,0.524-0.432,0.767-0.677c0.571-0.577,2.133-1.184,3.051-1.226c0.957-0.044,0.04,1.019,0.307,1.226
					c0.258,0.202-0.263,0.763,0.031,0.62c0.308-0.148,0.724-1.538,0.891-1.879c0.109-0.225,1.625-3.735,1.664,1.563
					c0.007,0.505,0.305,0.749,0.165,1.234c-0.07,0.229-0.957,1.505,0.505,1.36c0.196-1.105-0.641-1.89-0.208-2.429
					c0.23-0.286,1.037-0.339,1.022-0.713c-0.033-0.82,0.346-0.802,0.695-0.783c0.216,0.011,0.421,0.022,0.512-0.161
					c0.14-0.286,0.208-0.393,0.238-0.428c-0.015-0.002-0.033-0.027-0.042-0.124c-0.037-0.364,0.288-0.367,0.136-0.713
					c0.347,0.084,0.443-0.26,0.73-0.339c0.196-0.055,0.593-0.032,0.794,0.001c0.481,0.078,0.718,0.859,0.817,0.811
					c0.113-0.167-0.157-0.584-0.41-0.817c-0.203-0.187-0.445-0.562-0.61-0.78c-0.246-0.319-0.087-0.752-0.445-0.937
					c-0.111-0.055-0.2-0.036-0.308-0.017c-0.159,0.03-0.356,0.059-0.719-0.161c-1.9,1.345-0.291-0.685-0.407-1.183
					c-0.231-0.656-0.746-0.845-0.205-2.255c0.001-0.008-0.004-0.014-0.011-0.014C26.229,12.475,26.223,12.478,26.219,12.483"/>
			</defs>
			<clipPath id="SVGID_20_">
				<use xlink:href="#SVGID_19_"  overflow="visible"/>
			</clipPath>
			
				<radialGradient id="SVGID_21_" cx="-406.7434" cy="-460.989" r="0.8544" gradientTransform="matrix(8.1181 0 0 8.1181 3325.3142 3760.3511)" gradientUnits="userSpaceOnUse">
				<stop  offset="0" style="stop-color:#FFFFFF"/>
				<stop  offset="0.092" style="stop-color:#FFFFFF"/>
				<stop  offset="0.3742" style="stop-color:#F9DDE3"/>
				<stop  offset="0.4668" style="stop-color:#F1B7C0"/>
				<stop  offset="0.5878" style="stop-color:#E98C99"/>
				<stop  offset="0.6967" style="stop-color:#E26D7D"/>
				<stop  offset="0.7888" style="stop-color:#DE5A6B"/>
				<stop  offset="0.8528" style="stop-color:#DD5365"/>
				<stop  offset="1" style="stop-color:#DD5365"/>
			</radialGradient>
			<rect x="17.196" y="12.475" clip-path="url(#SVGID_20_)" fill="url(#SVGID_21_)" width="12.265" height="11.184"/>
		</g>
	</g>
	<path fill="#FFFFFF" d="M20.211,19.256c-0.198-0.144,0-0.646,0.236-0.899c0.237-0.252,0.599-0.662,0.502-0.709
		c-0.093-0.048-0.502,0.047-0.628,0c-0.125-0.048,0.708-0.377,0.803-0.426c0.094-0.047-0.599-0.235-0.852-0.268
		c-0.252-0.03-0.77,0.048-0.723-0.063c0.046-0.109,0.346-0.251,0.408-0.314c0.063-0.063-0.393-0.299-0.425-0.409
		c-0.03-0.109,0.095-0.22,0.567-0.109c0.474,0.109,0.869,0.063,1.071,0.109c0.205,0.049,0.315,0.094,0.394,0.142
		c0.08,0.049,0.137-0.124,0.201-0.097c0.066,0.025,0.215,0.124,0.228,0.025c0.014-0.098-0.063-0.272-0.195-0.39
		c-0.13-0.117-0.337-0.352-0.363-0.436c-0.026-0.085-0.131-0.286-0.014-0.331c0.118-0.046,0.221-0.006,0.285-0.035
		c0.064-0.025,0.181-0.198,0.35-0.128c0.169,0.072,0.247,0.136,0.299,0.177c0.053,0.039,0.15,0.063,0.228,0.039
		c0.078-0.026,0.209-0.184,0.357-0.092c0.149,0.092,0.417,0.305,0.656,0.253c0.24-0.053,0.376-0.168,0.448-0.312
		c0.072-0.143,0.274-0.589,0.358-0.675c0.083-0.086,0.298-0.253,0.265-0.188c-0.031,0.063-0.244,0.539-0.232,0.778
		c0.012,0.241-0.038,0.3,0.039,0.357c0.077,0.059,0.174,0.039,0.26,0c0.085-0.04,0.22-0.135,0.239-0.077
		c0.019,0.057-0.481,0.396-0.629,0.538c-0.149,0.143-0.292,0.435-0.219,0.552c0.07,0.117,0.355,0.065,0.498,0.065
		c0.144,0,0.449,0.02,0.41,0.089c-0.04,0.071-0.553,0.417-0.553,0.475c0,0.059,0.313,0.168,0.488,0.175
		c0.175,0.007,0.59,0.072,0.752,0.111c0.161,0.039,0.298,0.033,0.331,0.124c0.033,0.089,0.086,0.167,0.026,0.176
		c-0.06,0.007-0.408-0.047-0.526-0.092c-0.117-0.046-0.72-0.182-0.856-0.174c-0.137,0.006-0.539-0.008-0.609,0.128
		c-0.073,0.138,0.225,0.228,0.292,0.287c0.065,0.057,0.306,0.31,0.157,0.337c-0.149,0.026-0.273-0.084-0.333-0.104
		c-0.057-0.02-0.292-0.183-0.35-0.229c-0.058-0.044-0.31-0.317-0.436-0.305c-0.123,0.014-0.376,0.059-0.517,0.151
		c-0.144,0.089-0.301,0.266-0.384,0.362c-0.085,0.097-0.429,0.318-0.571,0.437c-0.143,0.116-0.929,0.739-1.072,0.843
		C20.727,19.23,20.372,19.373,20.211,19.256"/>
	<path fill="#B50029" d="M22.479,14.6c-0.056-0.086-0.036-0.289,0.014-0.415c0.04-0.109,0.376-0.726,0.727-0.608
		c0.141,0.046,0.233,0.106,0.274,0.256c0.07,0.25,0.079,0.623-0.113,0.814C23.108,14.922,22.636,14.832,22.479,14.6"/>
	<path fill="#B50029" d="M20.845,15.35c0.097-0.019,0.229-0.139,0.25-0.235c0.03-0.13,0.288-0.142,0.301-0.193
		c0.013-0.054-0.267-0.73-0.417-0.792c-0.179-0.077-0.232,0.048-0.395,0.034c-0.125-0.011-0.236-0.06-0.313,0.075
		c-0.115,0.209-0.331,0.482-0.158,0.71C20.287,15.179,20.536,15.41,20.845,15.35"/>
	<path fill="#B50029" d="M24.746,15.894c-0.048,0.054-0.15,0.092-0.212,0.024c0.204-0.247,0.375-0.34,0.629-0.53
		c0.09-0.097,0.018-0.509,0.064-0.645c0.048-0.137,0.471-0.427,0.658-0.329c0.094,0.05,0.187,0.08,0.24,0.162
		c0.101,0.156,0.099,0.419,0.1,0.538c0.005,0.167-0.085,0.29-0.135,0.451c-0.046,0.154-0.326,0.131-0.453,0.144
		c-0.167,0.015-0.329-0.115-0.487-0.018C25.062,15.748,24.817,15.815,24.746,15.894"/>
	<path fill="#B50029" d="M22.853,16.473c0.056-0.104-0.003-0.254,0.016-0.362c0.013-0.087,0.043-0.223-0.052-0.275
		c-0.044,0.205-0.079,0.439-0.002,0.637C22.824,16.495,22.852,16.475,22.853,16.473"/>
	<path fill="#B50029" d="M19.014,17.028c0.218-0.318,0.466-0.425,0.754-0.48c0.007-0.038-0.08-0.069-0.111-0.07
		c-0.198-0.038-0.348-0.157-0.476-0.31c-0.246-0.297-0.389-0.535-0.792-0.412c-0.429,0.131-0.445,0.834-0.325,1.176
		C18.209,17.338,18.763,17.39,19.014,17.028"/>
	<path fill="#B50029" d="M27.469,16.5c0.44-0.165,0.798,0.053,0.581,0.418c-0.11,0.187-0.074,0.403-0.2,0.593
		c-0.098,0.15-0.343,0.232-0.525,0.167c-0.166-0.059-0.399-0.164-0.516-0.284c-0.135-0.141-0.175-0.252-0.396-0.311
		c-0.359-0.094-0.75-0.004-1.101-0.136c0.401-0.203,0.855,0.018,1.275-0.011C26.768,16.925,26.894,16.606,27.469,16.5"/>
	<path fill="#B50029" d="M25.302,16.937c-0.112-0.057-0.235-0.063-0.315-0.011C25.061,16.944,25.226,16.968,25.302,16.937"/>
	<path fill="#B50029" d="M19.894,18.215c-0.402-0.478-1.25,0.433-1.309,0.492c-0.061,0.06-0.224,0.177-0.239,0.241
		c-0.049,0.188,0.388,0.442,0.524,0.521c0.178,0.104,0.332,0.373,0.579,0.183c0.243-0.182,0.264-0.356,0.328-0.637
		c0.059-0.249,0.161-0.509,0.352-0.687c0.194-0.178,0.43-0.311,0.588-0.524C20.33,17.774,20.174,18.09,19.894,18.215"/>
	<path fill="#B50029" d="M25.87,16.145c-0.077-0.305-0.619,0.016-0.754-0.012c0.155,0.039,0.38,0.026,0.583,0.057
		C25.759,16.202,25.887,16.21,25.87,16.145"/>
	<path fill="#B50029" d="M23.54,17.906c0.154,0.085,0.203,0.297,0.361,0.39c0.135,0.08,0.331,0.179,0.463,0.28
		c0.071,0.058,0.15,0.312,0.031,0.371c-0.175,0.086-0.239-0.254-0.328,0.03c-0.089,0.281-0.433,0.413-0.499,0.715
		c-0.046,0.209-0.19,0.496-0.057,0.699c0.04,0.063,0.108,0.093,0.18,0.102c0.16,0.02,0.184,0.01,0.323,0.097
		c0.172,0.11,0.314,0.159,0.501,0.073c0.18-0.084,0.328-0.212,0.37-0.417c-0.022-0.223-0.104-0.439-0.096-0.665
		c0.005-0.226,0.106-0.359-0.012-0.583c-0.091-0.181-0.174-0.274-0.333-0.396c-0.122-0.091-0.162-0.263-0.251-0.387
		c-0.146-0.204-0.407-0.438-0.5-0.539c-0.094-0.101-0.194-0.163-0.349-0.163c-0.153,0-0.377,0.172-0.488,0.305
		c-0.145,0.173-0.342,0.271-0.491,0.413c-0.163,0.157-0.127,0.396-0.209,0.591c-0.07,0.167-0.203,0.362-0.22,0.546
		c0.111-0.062,0.188-0.236,0.255-0.338c0.05-0.074,0.099-0.152,0.156-0.223c0.064-0.073,0.155-0.076,0.223-0.14
		c0.195-0.188,0.215-0.423,0.342-0.633C23.021,17.859,23.379,17.825,23.54,17.906"/>
	<path fill="#B50029" d="M27.206,19.807c-0.014-0.121-0.054-0.239-0.025-0.361c0.037-0.151-0.017-0.272-0.089-0.414
		c-0.083-0.163-0.338-0.543-0.565-0.44c-0.08,0.037-0.158,0.133-0.253,0.079c-0.115-0.067-0.151-0.169-0.294-0.218
		c-0.128-0.045-0.265-0.064-0.398-0.1c-0.087-0.021-0.166-0.047-0.279-0.056c0.089,0.187,0.392,0.299,0.542,0.423
		c0.325,0.27,0.169,0.579,0.148,0.921c-0.004,0.107-0.04,0.255,0.032,0.356c0.071,0.104,0.343,0.124,0.408,0.163
		c0.035,0.022,0.366,0.135,0.508,0.056C27.082,20.135,27.218,19.898,27.206,19.807"/>
	<path fill="#B50029" d="M23.588,22.954c0.098-0.019,0.231,0.083,0.445,0.163c0.215,0.084,0.387,0.133,0.559,0.143
		c0.174,0.006,0.494,0.204,0.551,0.32c0.057,0.114,0.091,0.427-0.008,0.609c-0.099,0.178-0.271,0.417-0.182,0.813
		c0.09,0.396,0.256,0.542-0.032,0.519c-0.288-0.026-0.501-0.124-0.666-0.174c-0.164-0.048-0.403-0.074-0.584-0.295
		c-0.18-0.224-0.297-0.181-0.592-0.362c-0.296-0.181-0.478-0.559-0.328-0.725c0.147-0.164,0.599-0.567,0.656-0.657
		C23.465,23.217,23.546,22.961,23.588,22.954"/>
	<path fill="#B50029" d="M29.46,20.627c0-0.092,0.214-0.235,0.229-0.294c0.012-0.057,0.018-0.409-0.02-0.558
		c-0.039-0.148-0.064-0.311,0.046-0.383c0.111-0.071,0.416-0.17,0.596-0.09c0.183,0.078,0.333,0.15,0.5,0.213
		c0.169,0.065,0.611,0.294,0.69,0.456c0.077,0.16,0.182,0.337,0.063,0.513c-0.117,0.175-0.116,0.298-0.206,0.377
		c-0.085,0.071-0.313,0.238-0.436,0.395c-0.125,0.157-0.215,0.488-0.365,0.559c-0.149,0.071-0.447,0.162-0.531,0.059
		c-0.085-0.104-0.129-0.332-0.11-0.422c0.02-0.091,0.227-0.261,0.175-0.41c-0.053-0.149-0.202-0.168-0.364-0.228
		C29.564,20.756,29.46,20.717,29.46,20.627"/>
	<path fill="#B50029" d="M15.641,21.95c-0.081-0.087-0.159-0.16-0.12-0.245c0.039-0.087,0.139-0.271,0.16-0.418
		c0.019-0.144,0.013-0.487,0-0.588c-0.014-0.098,0.053-0.251,0.08-0.344c0.026-0.093-0.006-0.266,0.163-0.325
		c0.173-0.058,0.353-0.04,0.504-0.012c0.153,0.025,0.457,0.104,0.544,0.271c0.086,0.165,0.14,0.356,0.239,0.422
		c0.098,0.066,0.403,0.2,0.41,0.247c0.006,0.045-0.059,0.106-0.166,0.29c-0.106,0.187-0.1,0.663-0.114,0.755
		c-0.011,0.093-0.005,0.445-0.125,0.522c-0.119,0.08-0.311,0-0.482-0.085c-0.172-0.087-0.419-0.182-0.517-0.272
		c-0.088-0.08-0.088-0.185-0.147-0.212C16.011,21.93,15.721,22.037,15.641,21.95"/>
	<path fill="#B50029" d="M22.079,20.223c0.068,0.07,0.091,0.303,0.089,0.37c-0.006,0.135-0.019,0.325-0.088,0.413
		c-0.069,0.091-0.308,0.218-0.379,0.243c-0.071,0.024-0.286,0.102-0.407-0.007c-0.054-0.046-0.234-0.17-0.292-0.283
		c-0.056-0.113-0.121-0.541,0.097-0.781c0.103-0.116,0.291-0.125,0.413-0.228c0.109-0.09,0.208-0.194,0.325-0.272
		c0.009,0.118-0.085,0.262-0.003,0.369C21.892,20.124,22.011,20.149,22.079,20.223"/>
	<path fill="#B50029" d="M24.781,17.534c-0.152-0.021-0.218-0.071-0.379-0.065c0.093,0.139,0.335,0.116,0.486,0.174
		c0.069,0.024,0.119,0.073,0.168,0.104c0.166,0.095,0.468,0.206,0.512,0.255c0.041,0.053,0.338,0.18,0.5,0.117
		c0.068-0.023,0.189-0.052,0.159-0.141c-0.127-0.261-0.495-0.167-0.691-0.292c-0.064-0.038-0.064-0.09-0.161-0.106
		c-0.093-0.018-0.206-0.007-0.275-0.034C25.03,17.515,24.886,17.546,24.781,17.534"/>
	<path fill="#B50029" d="M23.007,15.177c0,0,0.003,0.041-0.022,0.154c-0.024,0.111-0.073,0.354,0.028,0.548
		c0,0,0.054-0.063,0.041-0.237c-0.013-0.176,0.014-0.196,0.017-0.253C23.071,15.331,23.007,15.177,23.007,15.177"/>
	<path fill="#B50029" d="M22.34,17.232c0.066,0.081-0.024,0.21-0.079,0.282c-0.058,0.08-0.157,0.124-0.352,0.33
		c-0.194,0.206-0.401,0.441-0.453,0.513c-0.054,0.07-0.178,0.26-0.225,0.219c-0.047-0.044,0.095-0.308,0.13-0.366
		c0.035-0.058,0.24-0.341,0.312-0.383c0.071-0.04,0.437-0.347,0.424-0.389c-0.013-0.042-0.136-0.029-0.195-0.019
		c-0.057,0.015-0.335,0.114-0.412,0.131c-0.076,0.019-0.17-0.028-0.059-0.124c0.113-0.094,0.142-0.112,0.201-0.126
		c0.057-0.011,0.225-0.017,0.26-0.052s0.04-0.148,0.005-0.17c-0.035-0.025-0.087-0.008-0.136-0.008c-0.046,0-0.607-0.1-0.7-0.117
		c-0.093-0.018-0.629-0.16-0.725-0.177c-0.094-0.018-0.105-0.083,0.048-0.083c0.153,0,0.431,0.054,0.531,0.054
		c0.099,0,0.217-0.019,0.324-0.013c0.106,0.007,0.407,0.059,0.494,0.03c0.089-0.03,0.212-0.084,0.23-0.142
		c0.019-0.057,0.03-0.128-0.024-0.183c-0.053-0.053-0.288-0.211-0.354-0.336c-0.063-0.123-0.128-0.248-0.194-0.282
		c-0.065-0.035-0.177-0.055-0.225-0.119c-0.047-0.064-0.07-0.242,0.011-0.207c0.083,0.037,0.308,0.156,0.344,0.201
		c0.034,0.047,0.092,0.164,0.164,0.248c0.071,0.081,0.224,0.225,0.295,0.265c0.07,0.043,0.211,0.146,0.253,0.234
		c0.224,0.013,0.27,0,0.417,0.009c0.147,0.004,0.379,0.025,0.424,0.052c0.048,0.024,0.208,0.1,0.261,0.048
		c0.053-0.055,0.199-0.365,0.259-0.442c0.058-0.076,0.331-0.412,0.383-0.5c0.054-0.09,0.372-0.343,0.402-0.325
		c0.028,0.017,0.093,0.058-0.024,0.164c-0.118,0.105-0.455,0.437-0.501,0.519c-0.048,0.083-0.235,0.388-0.272,0.454
		c-0.033,0.063-0.134,0.136-0.103,0.176c0.027,0.042,0.223,0.094,0.263,0.135c0.042,0.042,0.167,0.267,0.077,0.326
		c-0.088,0.058-0.194,0.004-0.27-0.077c-0.079-0.082-0.12-0.17-0.201-0.225c-0.081-0.053-0.182-0.083-0.335-0.136
		c-0.154-0.053-0.496-0.063-0.589-0.041c-0.094,0.023-0.282,0.089-0.29,0.194C22.128,16.885,22.162,17.014,22.34,17.232"/>
	<path fill="#B50029" d="M22.604,16.277c-0.053,0-0.23-0.16-0.289-0.276c-0.058-0.119-0.184-0.342-0.224-0.396
		s-0.065-0.171-0.106-0.206c-0.04-0.035-0.228-0.259-0.175-0.289c0.054-0.028,0.246,0.166,0.271,0.219
		c0.022,0.053,0.211,0.312,0.258,0.375c0.046,0.065,0.188,0.29,0.224,0.355C22.597,16.122,22.657,16.277,22.604,16.277"/>
	<path fill="#00125D" d="M64.258,3.94c-0.539,0.429-1.413,0.375-2.088,0.294l0.083-1.347c-0.325-0.35-0.54-0.672-1.051-0.753
		c-0.674,0.513-0.056,1.59-0.323,2.37c-0.433,0.16-1.038,0.271-1.521,0.271c-0.271-0.056-0.487-0.488-0.755-0.192
		c-0.216,1.455,0,3.1,0.968,4.202c0.458,0.109,0.981-0.323,1.415-0.269c0.083,1.323-0.123,2.639,0.124,3.905l0.159,0.16
		c0.945-1.211,0.61-2.827,0.901-4.279c0.703-0.028,1.472-0.35,2.197-0.109l0.673-0.671c0.3-0.461-0.268-0.727-0.375-1.106
		c0.375-0.512,0.997-0.837,1.02-1.507C65.307,4.476,64.823,4.047,64.258,3.94 M59.976,7.522l-0.108-0.167
		c0.189-0.723-0.508-1.904,0.819-2.15h0.216l0.056,2.181C60.744,7.522,60.242,7.522,59.976,7.522 M62.092,7.008l0.078-2.099
		c0.46-0.163,1.295-0.025,1.782-0.025C63.544,5.666,63.523,6.92,62.092,7.008"/>
	<path fill="#00125D" d="M78.071,7.951c-0.565,0.213-1.211,0.241-1.83,0.213V8.113c0.135-0.889,0.968-0.744,1.397-1.147
		c0.107-0.189,0.244-0.28,0-0.443c-0.62-0.107-0.586-0.674-1.258-0.728c-0.271,0.054-0.189,0.379-0.405,0.483
		c-0.189,0.057-1.098,0.082-1.264-0.025c-0.133-1.021,1.34-0.207,1.744-0.8c0.159-0.295-0.135-0.438-0.296-0.545l-2.721,0.35
		l-0.054-0.054c0.243-0.353,0.829-0.679,1.259-0.599l-0.157,0.303c0.461,0,0.729-0.219,1.079-0.486
		c0.861-0.271,2.179,0.51,2.368-0.673c-0.159-0.645-0.9-0.27-1.252-0.324c0.086-0.163,0.232-0.321,0.232-0.54
		c-0.191-0.402-0.33-0.461-0.68-0.542c-0.565,0.188-0.756,0.862-1.103,1.293l-1.525,0.117L73.5,2.973
		c-0.27-0.432-0.518-0.41-0.924-0.519c-0.564,0.326-0.078,1.053-0.051,1.485c-0.379,0.187-0.946,0.107-1.212,0.454
		c0.023,0.27,0.188,0.516,0.348,0.674c0.35,0.242,0.781-0.025,1.129-0.106c0.595,0.458-0.429,0.323-0.375,0.727
		c0.16,0.539,0.835,0.171,1.238,0.199c0.054,0.159,0.082,0.473-0.023,0.634c-1.229,0.41-1.132-0.727-1.996-0.431
		c-0.322,0.188-0.081,0.541-0.106,0.755L70.962,6.9c-0.185,0.026-0.215,0.242-0.215,0.403c0.188,0.321,0.566,0.386,0.969,0.334
		c0.133,0.107,0.16,0.771,0.108,0.903c-0.675,0.161-1.403,0.19-2.074,0.35c-0.058,0.242,0.083,0.297,0.16,0.513
		c0.081,0.216,0.325,0.325,0.623,0.243c0.995-0.241,1.991-0.591,3.069-0.648L73.68,9.11c-0.026,0.132,0.083,0.429-0.026,0.511
		l-1.86,0.324c-0.132,0.132-0.025,0.185,0.031,0.294c0.297,0.943,1.238,0.122,1.83,0.418c0.082,0.808,0.055,1.654,0.326,2.383
		c0.943-0.486,0.548-1.681,0.762-2.548c0.645-0.132,1.419,0.107,2.037,0.165c0.214-0.189,0.566-0.204,0.51-0.554
		c-0.322-0.995-1.698-0.43-2.479-0.539l-0.108-0.106c-0.025-0.162-0.095-0.46,0.063-0.567c1.051-0.104,2.417,0,3.39,0.162
		l0.402-0.267c0.162-0.136,0.268-0.194,0.215-0.409C78.557,8.191,78.344,7.976,78.071,7.951 M73.632,8.301L72.69,8.359
		c0.139-0.243-0.051-1.278,0.46-1.168l0.482,0.021V8.301z M74.765,8.165c0-0.213-0.087-1.381,0.969-1.121
		C75.734,7.316,75.036,8.056,74.765,8.165"/>
	<path fill="#00125D" d="M104.087,3.755c-0.54,0.511-1.463,0.422-2.174,0.34c0.087-0.482-0.198-0.824-0.422-1.194
		c-0.398-0.171-0.799-0.425-1.08-0.026l0.281,1.275c-0.227,0.2-0.576,0.2-0.829,0.281c-0.511,0.06-1.418,0.427-1.418-0.481
		c-0.224-0.084-0.368-0.424-0.625-0.196c-0.087,0.849-0.682,1.53-0.537,2.41c0.139,0.255,0.23,0.682,0.624,0.623
		c0.513-0.228,0.367-0.907,0.65-1.305l1.104-0.453c0.455-0.029,1.116-0.51,1.488,0.056c0.253,0.086,0.389,0.058,0.644-0.056
		c0.199-0.426,0.932-0.341,1.328-0.253c-0.115,0.451-0.766,0.733-0.963,1.047c0.879,0.171,1.503-0.595,2.298-0.368
		c0.34,0.085,0.821,0.14,1.047-0.171c0.088-0.255,0.088-0.539-0.053-0.765C104.884,4.493,104.709,3.671,104.087,3.755"/>
	<path fill="#00125D" d="M85.976,4.223c0.292,0.085,0.726,0.145,0.984-0.027c0.119-0.233,0.35-0.465,0.205-0.786
		c-0.349-0.229-0.668-0.779-1.131-0.779c-0.434,0.317-0.059,0.926-0.231,1.392L85.976,4.223z"/>
	<path fill="#00125D" d="M88.933,4.803h0.173c0.348,0.086,0.464,0.375,0.607,0.635c0.321,0.089,0.416-0.143,0.618-0.343
		c0.116-0.292,0.233-0.727,0.032-1.046c-0.438-0.462-0.996-0.724-1.605-0.491C88.495,4.08,89.309,4.308,88.933,4.803"/>
	<path fill="#00125D" d="M88.179,8.15c0.116-0.232,0.316-0.219,0.231-0.509c-0.146-0.518-0.725-0.325-1.102-0.553
		c-0.143-0.73,0.609-1.154,0.581-1.819c-0.203-0.496-0.756-0.639-1.248-0.755L85.193,5.12c-0.113-0.232-0.405-0.462-0.668-0.579
		c-0.172,0.896,0.034,2.05-0.025,3.008l-0.146,0.232c-0.575,0.114-1.129,0.287-1.68,0.522c-0.088,0.259,0.059,0.302,0.143,0.508
		c0.438,0.143,0.962-0.08,1.394-0.08c0.09,0.347-0.115,0.765-0.058,1.111c-0.114,0.348-0.202,0.813-0.549,0.872l-0.089,0.984
		c0,0.146,0,0.348,0.176,0.348c1.016-0.84,0.81-2.392,1.07-3.521c0.319,0.261,0.261,1,0.607,1.317
		c0.263,0.061,0.171-0.136,0.288-0.338c0.174-0.292-0.027-0.768-0.174-1.029c0.057-0.173,0.761-0.117,0.849-0.203
		c0.173,0.463,0.09,1.291,0.058,1.752c-0.146,0.667-1.05,0.08-1.456,0.052c-0.025,0.174,0.176,0.261,0.176,0.406
		c0.812,0.32,0.377,1.623,1.448,1.565c0.292-0.202,0.548-0.434,0.724-0.756c-0.058-0.984-0.087-2.156,0.03-3.086
		C87.569,8.238,87.947,8.322,88.179,8.15 M86.472,7.353l-0.427,0.088c0-0.347,0.062-0.98-0.404-1.125
		c-0.203-0.056-0.308-0.238-0.364,0.136l0.165,1.112c-0.058,0.06-0.392,0.101-0.512,0.101c-0.055-0.552,0.12-1.238,0.148-1.788
		l1.364-0.58l0.088,0.113C86.443,6.078,86.531,6.686,86.472,7.353"/>
	<path fill="#00125D" d="M87.802,6.657c1.274-0.205,2.726-0.347,4.143-0.29c0.172-0.09,0.261-0.29,0.261-0.464
		c-0.173-0.232-0.404-0.694-0.779-0.609c-1.218,0.407-2.523,0.521-3.768,0.813C87.602,6.34,87.744,6.484,87.802,6.657"/>
	<path fill="#00125D" d="M100.691,6.503l0.057-0.482c-0.115-0.51-0.545-0.539-0.972-0.593c-0.829,1.654-1.595,2.415-2.638,3.771
		C98.557,8.774,99.67,7.638,100.691,6.503"/>
	<path fill="#00125D" d="M102.904,6.419c-0.426,0.112-0.913-0.253-1.198-0.084c0.17,0.284,0.85,0.312,0.538,0.708l0.367-0.025
		c0.572,0.14,0.938,0.681,1.194,1.132c0.396,0.143,0.735-0.115,0.966-0.341c0.142-0.257,0.063-0.343,0.006-0.654
		C104.323,6.587,103.643,5.822,102.904,6.419"/>
	<path fill="#00125D" d="M91.977,10.762c-0.408,0.147-0.96,0.089-1.19-0.318c-0.376-0.957-0.112-2.193,0.315-3.064l-0.085-0.173
		c-0.462-0.868-1.159,0.03-1.824-0.084c-0.262-0.091-0.521-0.234-0.664,0.084c0.113,0.811-0.032,1.592-0.296,2.262
		c-0.199,0.347-0.373,0.897-0.807,0.954v0.348c0,0.232,0.072,0.436,0.333,0.436c0.611-0.405,0.9-1.102,1.219-1.738
		c0.232-0.579,0.263-1.218,0.491-1.797c0.148,0,0.445-0.146,0.56-0.03c-0.232,1.45-0.832,3.432,0.532,4.417
		c0.572,0.32,2.049,0.25,2.775-0.417c0.373-1.073-0.407-1.941-0.523-2.898C92.669,9.439,92.729,10.414,91.977,10.762"/>
	<path fill="#00125D" d="M103.463,10.358c-0.565,0.226-1.316,0.341-1.968,0.17c-0.03-0.453,0.03-1.014,0.114-1.438l1.261-0.145
		c0.283-0.137,0.506-0.373,0.394-0.685c-0.196-0.284-0.564-0.424-0.88-0.539c-0.848,0.595-1.956,0.539-2.945,0.711
		c-0.061,0.623,0.586,0.751,1.068,0.949c-0.169,0.368,0.053,1.173-0.169,1.542c-0.566,0.086-1.298,0.057-1.805,0.339
		c-0.201,0.086-0.147,0.286-0.091,0.429c0.199,0.224,0.428,0.484,0.77,0.454c1.586-0.253,3.399-0.282,4.931-0.054
		c0.399-0.257,0.566-0.627,0.455-1.082C104.229,10.755,103.889,10.473,103.463,10.358"/>
</g>
</svg>
