<?xml version="1.0" encoding="utf-8"?>
<!-- Generator: Adobe Illustrator 16.0.0, SVG Export Plug-In . SVG Version: 6.00 Build 0)  -->
<!DOCTYPE svg PUBLIC "-//W3C//DTD SVG 1.1//EN" "http://www.w3.org/Graphics/SVG/1.1/DTD/svg11.dtd">
<svg version="1.1" id="圖層_1" xmlns="http://www.w3.org/2000/svg" xmlns:xlink="http://www.w3.org/1999/xlink" x="0px" y="0px"
	 width="157.895px" height="29.268px" viewBox="0 0 157.895 29.268" enable-background="new 0 0 157.895 29.268"
	 xml:space="preserve">
<path fill="#002F7C" d="M155.336,16.404l-0.008,0.004c1.194,1.202,1.982,2.828,2.106,4.646c0.281,4.03-2.751,7.521-6.776,7.803
	c-1.892,0.131-3.67-0.47-5.045-1.558l-0.006,0.007c1.431,1.33,3.389,2.091,5.489,1.943c4.027-0.28,7.06-3.772,6.779-7.797
	C157.735,19.415,156.772,17.63,155.336,16.404"/>
<path fill="#002F7C" d="M142.388,24.719c-0.232,0.129-0.284,0.324-0.166,0.624c0.105,0.275,0.279,0.393,0.467,0.317
	c0.144-0.055,0.172-0.185,0.108-0.515l-0.024-0.13c-0.062-0.32-0.072-0.46-0.032-0.602c0.038-0.157,0.128-0.258,0.267-0.312
	c0.33-0.134,0.642,0.073,0.827,0.535c0.202,0.501,0.091,0.88-0.299,1.044l-0.1-0.245c0.276-0.117,0.346-0.374,0.197-0.739
	c-0.122-0.296-0.31-0.427-0.507-0.348c-0.161,0.063-0.201,0.213-0.136,0.55l0.021,0.144l0.02,0.125
	c0.044,0.248,0.048,0.338,0.024,0.446c-0.036,0.134-0.118,0.229-0.255,0.284c-0.312,0.125-0.609-0.059-0.774-0.477
	c-0.184-0.454-0.084-0.793,0.26-0.948L142.388,24.719z"/>
<polygon fill="#002F7C" points="142.178,22.079 143.289,21.146 143.292,21.489 142.359,22.268 142.663,22.603 143.323,22.591 
	143.324,22.859 141.442,22.902 141.437,22.632 142.175,22.614 142.278,22.614 142.374,22.613 142.314,22.545 142.245,22.481 
	141.413,21.58 141.407,21.221 "/>
<path fill="#002F7C" d="M143.016,19.158l0.724,0.255l-0.089,0.254l-0.726-0.254l-1.303,0.393l0.109-0.31l0.809-0.227l0.103-0.028
	c0.038-0.013,0.064-0.017,0.134-0.032c-0.065-0.077-0.077-0.093-0.149-0.186l-0.496-0.68l0.104-0.294L143.016,19.158z"/>
<polygon fill="#002F7C" points="144.289,15.692 143.89,16.182 145.079,17.156 144.795,17.504 143.604,16.531 143.209,17.014 
	142.937,16.796 144.019,15.475 "/>
<polygon fill="#002F7C" points="146.832,13.91 145.88,14.464 146.083,14.814 146.954,14.302 147.117,14.579 146.245,15.092 
	146.479,15.493 147.45,14.923 147.627,15.223 146.261,16.019 145.313,14.393 146.654,13.606 "/>
<path fill="#002F7C" d="M150.476,14.642l-0.488,0.032l-0.245-0.407l-0.764,0.123l-0.103,0.459l-0.467,0.122l0.492-2.058l0.468-0.075
	L150.476,14.642z M149.399,13.673c-0.104-0.175-0.144-0.252-0.201-0.387c-0.015,0.136-0.03,0.236-0.078,0.427l-0.08,0.362
	l0.547-0.088L149.399,13.673z"/>
<path fill="#002F7C" d="M153.503,15.244l-0.396-0.152l0.149-0.559c0.018-0.066,0.043-0.155,0.079-0.271
	c0.026-0.119,0.057-0.211,0.073-0.278c0.028-0.074,0.048-0.153,0.073-0.235l0.047-0.133c-0.112,0.191-0.155,0.256-0.257,0.412
	c-0.042,0.068-0.081,0.124-0.116,0.173l-0.536,0.749l-0.342-0.09l-0.108-0.902c-0.011-0.047-0.014-0.111-0.019-0.202
	c-0.004-0.116-0.009-0.207-0.011-0.269c-0.005-0.052-0.005-0.127-0.005-0.229l-0.045,0.229c-0.057,0.246-0.082,0.353-0.155,0.648
	l-0.156,0.609l-0.419-0.066l0.472-1.845l0.631,0.125l0.093,0.872c0.021,0.205,0.029,0.374,0.018,0.619
	c0.074-0.14,0.094-0.187,0.177-0.314c0.056-0.084,0.104-0.157,0.146-0.222l0.497-0.711l0.599,0.205L153.503,15.244z"/>
<path fill="#002F7C" d="M149.904,18.878c-0.228,0.201-0.682,0.634-1.118,1.056l-0.499,0.475c-0.4-0.071-0.8-0.109-1.211-0.109
	c-0.92,0-1.762,0.255-2.144,0.647c-0.146,0.149-0.22,0.311-0.213,0.481c0.008,0.447,0.516,0.669,0.673,0.729
	c0.813,0.304,1.497,0.218,2.217-0.287c0.396-0.278,0.874-0.724,1.246-1.084c0.29,0.066,0.62,0.152,0.973,0.259l0.33,0.094
	c-0.428,0.419-0.862,0.856-1.263,1.211l-0.031,0.029c-0.561,0.491-0.965,0.848-1.55,0.979c-0.411,0.091-0.704,0.005-0.797-0.054
	c-0.012,0.002-0.023,0.019-0.023,0.019c0.337,0.276,0.656,0.436,1.21,0.389c0.525-0.046,1.131-0.375,1.748-0.957l0.84-0.822
	l0.587-0.581c0,0.002,1.185,0.35,1.185,0.35c0.013,0,0.022,0.003,0.022,0.003c-0.01,0-0.733,0.714-0.733,0.714l-0.63,0.629
	c-0.648,0.625-0.999,0.949-1.372,1.216c-0.626,0.442-1.158,0.676-1.628,0.707c-0.247,0.016-0.6-0.001-0.892-0.173
	c-0.015-0.002-0.027,0.013-0.027,0.013c0.313,0.273,0.707,0.599,1.381,0.58c0.759-0.024,1.431-0.388,2.48-1.349
	c0.477-0.441,0.952-0.929,1.37-1.361l0.777-0.793c0.514,0.113,0.969,0.161,1.481,0.151c0.736-0.018,1.365-0.369,1.372-0.771
	c0.011-0.3-0.233-0.46-0.384-0.554c-0.121-0.084-0.451-0.268-0.905-0.268c-0.553,0-1.133,0.246-1.718,0.728l-0.391,0.348
	c0.004-0.002-0.142-0.039-0.142-0.039l-1.086-0.309c0.32-0.296,0.594-0.553,0.836-0.773c0.597-0.525,1.25-0.745,1.636-0.767
	c0.283-0.019,0.764,0.004,0.968,0.146c0.008-0.002,0.022-0.022,0.022-0.022c-0.531-0.457-0.999-0.518-1.376-0.518
	c-0.376,0-0.977,0.12-1.714,0.688c-0.3,0.235-0.69,0.628-1.102,1.039c0-0.002-0.547-0.168-0.547-0.168l-0.132-0.04l-0.576-0.177
	c0.011,0,0.328-0.313,0.328-0.313c0.389-0.38,0.755-0.74,1.039-0.981c1.043-0.875,1.693-0.989,2.15-0.994
	c0.496,0,0.898,0.102,1.182,0.307c0.004-0.001,0.019-0.021,0.019-0.021c-0.582-0.527-1.003-0.697-1.729-0.704
	C151.407,17.868,150.647,18.226,149.904,18.878 M145.816,21.998c-0.336-0.022-0.502-0.155-0.502-0.418
	c0-0.035,0.025-0.859,1.914-0.953c0.214-0.012,0.457-0.021,0.822,0.022c-0.018,0-0.216,0.183-0.216,0.183l-0.12,0.108
	C147.261,21.357,146.5,22.047,145.816,21.998 M153.462,21.33c0.545-0.367,0.994-0.563,1.275-0.553
	c0.169,0.002,0.367,0.055,0.367,0.258c0,0.217-0.204,0.391-0.596,0.534c-0.343,0.123-0.871,0.154-1.45,0.088
	C153.212,21.517,153.352,21.406,153.462,21.33"/>
<line fill="#002F7C" x1="149.716" y1="21.736" x2="149.716" y2="22.295"/>
<path fill="#002F7C" d="M154.274,13.742c0.071-0.161,0.25-0.232,0.409-0.166c0.16,0.072,0.23,0.248,0.165,0.405
	c-0.068,0.161-0.249,0.231-0.404,0.162C154.281,14.077,154.212,13.898,154.274,13.742 M154.794,13.987
	c0.069-0.128,0.016-0.286-0.104-0.35c-0.128-0.071-0.288-0.031-0.357,0.098c-0.071,0.125-0.021,0.286,0.103,0.354
	S154.721,14.115,154.794,13.987 M154.61,14.077l-0.05-0.025l-0.012-0.187l-0.05-0.027l-0.074,0.137l-0.044-0.022l0.165-0.297
	l0.128,0.071c0.052,0.029,0.099,0.072,0.062,0.138c-0.027,0.058-0.082,0.058-0.139,0.029L154.61,14.077z M154.57,13.824
	c0.037,0.021,0.099,0.061,0.121,0.016c0.021-0.031-0.018-0.06-0.049-0.075l-0.079-0.044l-0.044,0.075L154.57,13.824z"/>
<path fill="#B50029" d="M3.228,22.863c0.274,1.176,0.23,3.12-0.559,4.093c-1.133,1.4-2.219-0.137-2.5-1.294
	c-0.303-1.247-0.264-3.419,0.651-4.414c0.314-0.396,0.82-0.646,1.286-0.321C2.827,21.424,2.98,22.059,3.228,22.863"/>
<path fill="#FFFFFF" d="M2.173,24.391c0.05,0.131-0.075,0.351,0.148,0.396c0.145,0.121,0.49,0.075,0.462,0.306
	c-0.279-0.016-0.489-0.271-0.811-0.201c-0.167,0.033-0.313,0.128-0.479,0.178c-0.02-0.025-0.05-0.045-0.036-0.078
	c0.164-0.129,0.4-0.129,0.553-0.278l0.01-0.406C2.097,24.211,2.197,24.293,2.173,24.391"/>
<path fill="#FFFFFF" d="M2.435,25.297c0.156,0.152,0.05,0.351,0.073,0.547c-0.011,0.429,0.004,0.79,0.107,1.201
	c-0.002,0.053-0.022,0.114-0.076,0.134c-0.051,0.004-0.059-0.05-0.087-0.075c-0.036-0.556-0.092-1.104-0.106-1.671
	c-0.038-0.144-0.249-0.051-0.343-0.074c-0.054,0.005-0.101,0.037-0.145,0.074c-0.03,0.559,0,1.139-0.094,1.718
	c-0.019,0.019-0.043,0.024-0.07,0.023l-0.03-0.045c0.049-0.571,0.039-1.204,0.082-1.749c0.07-0.087,0.199-0.169,0.335-0.155
	C2.198,25.212,2.332,25.25,2.435,25.297"/>
<path fill="#FFFFFF" d="M1.218,26.236c0.016,0.137-0.012,0.24,0.004,0.353c0.019,0.132-0.037,0.259-0.054,0.391
	c-0.002,0.065-0.055,0.12-0.023,0.189h0.066c0.112-0.057,0.097-0.196,0.11-0.309c0.03-0.132,0.009-0.232,0.026-0.342
	c0.015-0.252,0.018-0.465,0.02-0.691c0.01-0.063,0-0.093,0.005-0.144c0.044-0.209,0.005-0.454-0.018-0.668
	c-0.079-0.21-0.319-0.223-0.496-0.274c-0.051-0.029-0.07-0.095-0.073-0.144c0.042-0.095,0.159-0.129,0.257-0.136
	c0.033-0.019,0.06-0.015,0.091-0.025c0.06-0.021,0.095-0.031,0.147-0.037c0.042-0.009,0.054-0.048,0.054-0.088
	c-0.082-0.12-0.175,0.018-0.286,0.013c-0.128,0.054-0.363,0.045-0.391,0.247c-0.024,0.085,0.025,0.162,0.072,0.222
	c0.037,0.032,0.078,0.063,0.169,0.069c0.116,0.04,0.282,0.048,0.332,0.174c-0.002,0.061,0.013,0.193,0.016,0.234
	c0.006,0.05,0.006,0.093,0,0.145c0.029,0.078-0.003,0.163-0.006,0.247c-0.031,0.068-0.139,0.033-0.205,0.037
	c-0.054-0.029-0.126-0.006-0.172-0.05c-0.025-0.066-0.023-0.156-0.015-0.231c0.113-0.055,0.203-0.039,0.314-0.096
	c0.005-0.005,0.009-0.012,0.014-0.021c0.005-0.013,0.007-0.028,0-0.041c-0.008-0.011-0.015-0.015-0.021-0.025
	c-0.07-0.071-0.089,0.005-0.19,0.01c-0.02,0-0.036,0.002-0.059,0.001c-0.146,0.009-0.045-0.188-0.097-0.263
	c-0.025-0.014-0.044-0.075-0.086-0.055c-0.1,0.071,0.01,0.197-0.017,0.296c0.026,0.272,0.021,0.571-0.031,0.858
	c0.033,0.127-0.028,0.295-0.022,0.431c-0.021,0.058-0.008,0.126-0.03,0.183c0.009,0.067-0.06,0.167,0.009,0.214
	c0.027-0.025,0.062-0.039,0.08-0.079c0.034-0.191,0.072-0.377,0.095-0.573c0.005-0.036,0.027-0.065,0.071-0.054
	c0.094,0.009,0.115,0.063,0.202,0.066c0.124-0.03,0.042-0.12,0.021-0.134c-0.104-0.007-0.091-0.048-0.19-0.066
	c-0.028-0.003-0.093,0.014-0.085-0.031c0.001-0.067,0.012-0.158,0.032-0.216c0.083-0.026,0.171,0,0.259,0
	c0.033,0.004,0.111,0.013,0.122,0.049C1.255,25.972,1.234,26.137,1.218,26.236"/>
<path fill="#FFFFFF" d="M2.835,22.898L2.7,22.874c-0.05-0.041-0.098-0.063-0.159-0.099c-0.112-0.087-0.287-0.14-0.412-0.265
	c-0.115,0.007-0.165,0.115-0.271,0.177c-0.013,0.011-0.038,0.028-0.054,0.001c0.045-0.092,0.135-0.132,0.2-0.199
	c0.041-0.029,0.095-0.051,0.13-0.084c0.08,0.029,0.109,0.083,0.171,0.112c0.098,0.047,0.139,0.097,0.222,0.133
	c0.087,0.053,0.141,0.081,0.219,0.113c0.044,0.031,0.159,0.018,0.109,0.125L2.835,22.898z"/>
<path fill="#FFFFFF" d="M2.613,21.554c-0.009,0.048-0.071,0.076-0.137,0.077c-0.079-0.001-0.098,0.025-0.162,0.063
	c-0.019,0.021-0.037,0.053-0.026,0.082c-0.001,0.061,0.102,0.079,0.167,0.101c0.021,0.003,0.035,0.023,0.033,0.048
	c-0.027,0.02-0.064-0.002-0.099,0.006c-0.103,0.022-0.216-0.021-0.315-0.006c-0.043,0.014-0.051,0-0.11,0.021
	c-0.026,0.005-0.041,0.005-0.067,0.015c-0.063,0.024-0.18,0-0.187,0.07c-0.016,0.068-0.028,0.145-0.033,0.22
	c-0.006,0.034-0.002,0.075-0.021,0.11c0,0.104,0.021,0.268,0.048,0.413c-0.005,0.031-0.01,0.066,0,0.097
	c0.058,0.064,0.17,0.02,0.214,0.033c0.086,0,0.133,0.008,0.202,0.003c0.064,0.011,0.133,0.003,0.204,0.02
	c0.009-0.009,0.033,0.017,0.043,0.025c0,0.03-0.035,0.032-0.063,0.036c-0.051,0.005-0.111,0.005-0.184-0.011
	c-0.156-0.005-0.276,0.023-0.455,0.017C1.58,22.997,1.54,23,1.435,22.997c-0.014-0.006-0.093,0.006-0.113,0.006
	C1.228,23,1.218,23,1.125,22.986c-0.023-0.016-0.064,0.011-0.076-0.026c-0.013-0.033,0.028-0.03,0.044-0.036
	c0.091,0,0.174,0.003,0.255,0.003c0.112-0.003,0.164-0.006,0.235-0.038c0.013-0.03,0.01-0.058,0.011-0.081
	c0.006-0.119-0.026-0.24-0.015-0.384c0.014-0.075,0.001-0.177,0.015-0.252c0.006-0.067,0.006-0.229,0.058-0.267l0.222-0.056
	c0.082,0.005,0.147-0.012,0.236-0.006c0.047-0.009,0.1-0.03,0.122-0.079c0.005-0.046-0.028-0.092-0.072-0.098
	c-0.057-0.011-0.05-0.006-0.116-0.017c-0.039-0.009-0.083,0.002-0.112-0.047c-0.085-0.104-0.104-0.243-0.083-0.376
	c0.011-0.026,0.031-0.057,0.065-0.033c0.042,0.052,0.01,0.104,0.004,0.158c-0.015,0.127,0.062,0.182,0.106,0.212
	c0.054,0.019,0.064,0.011,0.127,0.005c0.06-0.046,0.028-0.119,0.053-0.182c-0.01-0.098,0.015-0.145,0.052-0.232
	c0.041,0,0.041,0.045,0.053,0.072l-0.004,0.044c0.011,0.081-0.008,0.179,0.029,0.275c0.026,0.036,0.027,0.028,0.071,0.028
	c0.061-0.023,0.111-0.052,0.122-0.116c0.024-0.063-0.027-0.193,0.069-0.199c0.027-0.006,0.025,0.006,0.03,0.021L2.613,21.554z"/>
<path fill="#FFFFFF" d="M2.609,22.412c-0.029,0-0.063-0.006-0.091-0.027c-0.069-0.086-0.259-0.125-0.325-0.184
	c-0.097-0.039-0.105,0.004-0.169,0.038c-0.036,0.044-0.09,0.063-0.135,0.089c-0.035,0.033-0.042,0.047-0.08,0.053
	c-0.015-0.006-0.035-0.021-0.021-0.035c0.044-0.043,0.063-0.067,0.104-0.097c0.077-0.044,0.159-0.107,0.23-0.156
	c0.073,0.038,0.231,0.088,0.312,0.123c0.063,0.063,0.16,0.085,0.21,0.159C2.648,22.398,2.628,22.408,2.609,22.412"/>
<path fill="#FFFFFF" d="M2.246,23.635c0.028,0.104,0.006,0.297-0.044,0.337c-0.045,0.059-0.089,0.059-0.136,0.074
	c-0.139,0.014-0.103,0.02-0.238,0.035l-0.214,0.021c-0.137,0.002-0.235,0.012-0.384,0.01c-0.066,0.011-0.139-0.021-0.207-0.041
	c-0.014-0.023-0.048-0.023-0.048-0.064c0-0.04,0.083-0.023,0.147-0.021c0.13,0.01,0.256,0.023,0.385,0.018
	c0.136-0.014,0.18-0.01,0.35-0.014c0.036-0.004,0.106-0.022,0.13-0.035c0.122-0.044,0.11-0.04,0.142-0.153
	c0.018-0.105,0.001-0.134-0.113-0.165c-0.133-0.034-0.232-0.008-0.317-0.094c-0.057-0.082,0.014-0.188-0.111-0.246
	c-0.109,0.015-0.183,0.023-0.303,0.019c-0.062,0-0.105,0.006-0.168,0.005c-0.033-0.01-0.08-0.005-0.135-0.009
	c-0.04,0-0.044-0.008-0.086-0.008c-0.019-0.023-0.057-0.046-0.025-0.078C0.917,23.202,0.958,23.228,1,23.205
	c0.107-0.001,0.2,0,0.317-0.003c0.042,0.003,0.088,0.003,0.122,0.007c0.104-0.012,0.201,0.008,0.317-0.002
	c0.089,0.002,0.16,0.011,0.229,0.005c0.068,0.006,0.11,0.016,0.146,0.008c0.082-0.018,0.144,0.004,0.207-0.002
	c0.101,0.01,0.135-0.024,0.213-0.006c0.028,0.006,0.041,0.041,0.055,0.05c-0.012,0.019-0.016,0.04-0.04,0.045
	c-0.07,0.033-0.136,0.012-0.236,0.012c-0.069,0.012-0.135,0.001-0.229,0.014c-0.053-0.013-0.119-0.014-0.191-0.019
	c-0.055-0.004-0.096,0.003-0.143,0.012c-0.003,0.06,0.011,0.113,0.059,0.157c0.055,0.039,0.163,0.034,0.238,0.048
	C2.129,23.553,2.217,23.563,2.246,23.635"/>
<path fill="#FFFFFF" d="M1.637,21.276c-0.014,0.104,0.019,0.298-0.096,0.396C1.45,21.699,1.33,21.657,1.269,21.75
	c-0.053,0.078,0.009,0.151-0.012,0.235c0.026,0.102,0.132,0.138,0.186,0.22c0.04,0.043,0.052,0.064,0.066,0.11
	c-0.02,0.015-0.046,0.026-0.063,0.013l-0.023-0.021l-0.036-0.043c-0.034-0.023-0.072-0.081-0.117-0.092
	c-0.154-0.001-0.234,0.143-0.354,0.22c-0.039,0.03-0.076,0.059-0.118,0.085c-0.025,0.028-0.047,0.044-0.072,0.065
	c-0.053,0.043-0.091,0.068-0.152,0.084l-0.013-0.025c0.012-0.025,0.063-0.059,0.103-0.084c0.086-0.095,0.171-0.204,0.29-0.263
	c0.081-0.074,0.202-0.13,0.243-0.243c0.002-0.04-0.022-0.075-0.041-0.1c-0.009-0.066,0.028-0.141-0.051-0.176
	c-0.091,0.008-0.195-0.053-0.22-0.073c-0.106-0.129-0.136-0.311-0.067-0.476l0.011-0.003c0.075,0.017,0.049,0.096,0.053,0.156
	c0.004,0.08,0.021,0.174,0.083,0.229c0.022,0.032,0.062,0.058,0.099,0.07c0.032-0.005,0.07-0.028,0.073-0.059
	c0.043-0.112-0.025-0.216,0.025-0.332c-0.002-0.028-0.006-0.081,0.035-0.097l0.078,0.017c0.003,0.072-0.029,0.134-0.021,0.211
	c0.004,0.069-0.014,0.147,0.04,0.188c0.025,0.026,0.061,0.038,0.095,0.023c0.091-0.004,0.138-0.089,0.152-0.147
	c-0.003-0.091,0.024-0.172,0.016-0.229l0.019-0.042C1.612,21.192,1.632,21.228,1.637,21.276"/>
<path fill="#FFFFFF" d="M1.445,22.731c-0.045,0.004-0.039-0.054-0.068-0.076c-0.048-0.043-0.096-0.128-0.176-0.095
	c-0.036,0.022-0.069,0.051-0.112,0.075c-0.118,0.14-0.24,0.201-0.362,0.324c-0.03,0.008-0.044-0.01-0.051-0.033
	c0.034-0.051,0.091-0.088,0.137-0.125c0.036-0.022,0.064-0.07,0.106-0.099c0.028-0.031,0.045-0.053,0.069-0.074
	c0.069-0.071,0.126-0.093,0.186-0.156c0.028-0.025,0.071-0.045,0.102-0.021c0.028,0.069,0.11,0.105,0.163,0.159
	C1.461,22.642,1.52,22.703,1.445,22.731"/>
<path fill="#00125D" d="M34.853,18.298l-0.077,0.052c-0.64-0.385-1.651-0.681-2.612-0.681c-1.947,0-3.473,1.369-3.473,3.435
	c0,2.165,1.781,3.382,3.602,3.382c1.19,0,2.354-0.424,2.971-1.026l0.09,0.063l-0.371,1.771c-0.654,0.384-1.832,0.589-2.755,0.589
	c-3.022,0-5.547-1.82-5.547-4.792c0-2.718,2.074-4.868,5.497-4.868c1.138,0,2.229,0.27,3.022,0.614L34.853,18.298z M45.231,25.663
	c-0.038-0.511-0.063-1.051-0.063-1.55v-6.125c0-0.46,0.025-1.05,0.063-1.55h-1.999c0.039,0.5,0.064,1.09,0.064,1.55v2.256h-4.777
	v-2.256c0-0.46,0.024-1.05,0.063-1.55h-1.998c0.038,0.5,0.064,1.09,0.064,1.55v6.125c0,0.499-0.026,1.039-0.064,1.55h1.998
	c-0.038-0.511-0.063-1.051-0.063-1.55v-2.473h4.777v2.473c0,0.499-0.025,1.039-0.064,1.55H45.231z M49.537,25.663
	c-0.038-0.511-0.064-1.051-0.064-1.55v-6.125c0-0.46,0.026-1.05,0.064-1.55h-1.998c0.037,0.5,0.062,1.09,0.062,1.55v6.125
	c0,0.499-0.024,1.039-0.062,1.55H49.537z M60.348,16.438c-0.038,0.476-0.064,1.103-0.064,1.576v7.751H59.99l-6.471-6.61v4.958
	c0,0.499,0.027,1.039,0.066,1.55h-1.704c0.037-0.511,0.063-1.051,0.063-1.55v-6.572l-0.974-0.987v-0.115h2.371l5.367,5.522v-3.973
	c0-0.499-0.027-1.036-0.065-1.55H60.348z M71.97,25.663c-0.398-0.589-0.745-1.217-1.039-1.754l-4.342-7.945h-0.437l-5.163,9.699
	h2.063c0.166-0.474,0.358-0.936,0.512-1.242l0.564-1.152h4.432l0.604,1.19c0.178,0.358,0.396,0.781,0.499,1.204H71.97z
	 M66.268,18.783h0.063l1.602,3.216h-3.191L66.268,18.783z M85.999,25.663c-0.396-0.589-0.742-1.217-1.037-1.754l-4.343-7.945h-0.438
	l-5.163,9.699h2.063c0.167-0.474,0.359-0.936,0.514-1.242l0.563-1.152h4.433l0.603,1.19c0.181,0.358,0.399,0.781,0.5,1.204H85.999z
	 M80.296,18.783h0.064l1.603,3.216h-3.19L80.296,18.783z M88.664,25.663c-0.037-0.511-0.063-1.051-0.063-1.55v-6.125
	c0-0.46,0.026-1.05,0.063-1.55h-2c0.039,0.5,0.064,1.09,0.064,1.55v6.125c0,0.499-0.025,1.039-0.064,1.55H88.664z M91.009,25.663
	c0.036-0.511,0.063-1.051,0.063-1.55v-6.125c0-0.46-0.026-1.05-0.063-1.55h3.598c2.051,0,3.409,1.065,3.409,2.5
	c0,1.434-1.077,2.293-2.371,2.535l2.331,2.614c0.424,0.487,0.897,0.986,1.474,1.46v0.115h-2.421l-4.087-4.791v3.241
	c0,0.499,0.025,1.039,0.065,1.55H91.009z M92.942,20.643h1.076c1.244,0,2-0.502,2-1.604c0-0.959-0.731-1.434-2.012-1.434h-1.064
	V20.643z M105.741,25.663l0.387-1.652l-0.106-0.05c-0.484,0.268-1.126,0.434-1.816,0.434h-2.219v-6.406
	c0-0.46,0.027-1.05,0.067-1.55h-1.999c0.037,0.5,0.062,1.09,0.062,1.55v6.125c0,0.499-0.024,1.039-0.062,1.55H105.741z
	 M109.188,25.663c-0.039-0.511-0.063-1.051-0.063-1.55v-6.125c0-0.46,0.024-1.05,0.063-1.55h-2c0.038,0.5,0.066,1.09,0.066,1.55
	v6.125c0,0.499-0.028,1.039-0.066,1.55H109.188z M119.988,16.438c-0.038,0.476-0.063,1.103-0.063,1.576v7.751h-0.296l-6.473-6.61
	v4.958c0,0.499,0.026,1.039,0.067,1.55h-1.706c0.039-0.511,0.065-1.051,0.065-1.55v-6.572l-0.975-0.987v-0.115h2.37l5.368,5.522
	v-3.973c0-0.499-0.023-1.036-0.064-1.55H119.988z M128.379,25.663l0.396-1.652l-0.101-0.05c-0.488,0.28-1.115,0.434-1.833,0.434
	h-3.024v-2.972h2.408c0.59,0,1.116,0.051,1.629,0.179l0.332-1.396h-4.369v-2.51h2.588c0.668,0,1.282,0.063,1.846,0.229l0.358-1.486
	h-6.727c0.04,0.5,0.064,1.09,0.064,1.55v6.125c0,0.499-0.024,1.039-0.064,1.55H128.379z M136.119,18.477
	c-0.614-0.552-1.719-0.923-2.678-0.923c-1.282,0-1.962,0.423-1.962,1.039c0,0.704,0.898,1.062,2.538,1.767
	c2.37,1.013,2.932,1.615,2.932,2.845c0,1.575-1.549,2.678-3.868,2.678c-1.306,0-2.663-0.476-3.471-0.999l0.346-1.679h0.114
	c0.616,0.793,1.91,1.319,3.025,1.319c1.204,0,2.049-0.448,2.049-1.167c0-0.678-0.677-0.974-2.522-1.741
	c-2.142-0.885-2.975-1.589-2.975-2.946c0-1.386,1.217-2.447,3.806-2.447c1.023,0,2.357,0.332,3.112,0.756l-0.345,1.499H136.119z"/>
<path fill-rule="evenodd" clip-rule="evenodd" fill="#DD5365" d="M14.612,6.609c0.267,0.004,0.415,0.11,0.578,0.194
	c0.316,0.168,0.521,0.308,0.942,0.314c0.222,0.001,0.448,0.027,0.656,0.126c0.724,0.344,1.136,1.574,1.265,2.252
	c0.044,0.236,0.023,0.479,0,0.715c-0.021,0.234-0.046,0.457,0,0.653c0.079,0.354,0.217,0.356,0.309,0.356h0.001
	c0.089,0,0.2-0.026,0.317-0.049c0.085-0.018,0.169-0.037,0.263-0.05c0.207-0.029,0.409-0.045,0.604-0.045
	c0.278,0,0.547,0.031,0.802,0.095c0.273,0.066,0.534,0.092,0.812,0.118c0.205,0.018,0.414,0.036,0.634,0.075
	c0.217,0.038,0.962,0.174,1.384,0.357c0.239,0.102,0.424,0.268,0.605,0.427c0.153,0.141,0.303,0.271,0.484,0.369
	c1.047,0.56,1.354,1.215,1.044,2.273c-0.03,0.105-0.063,0.217-0.096,0.326c-0.101,0.353-0.207,0.724-0.325,1.062
	c-0.147,0.435-0.377,0.623-0.646,0.845c-0.078,0.064-0.161,0.134-0.247,0.212c-0.251,0.232-0.437,0.523-0.631,0.835
	c-0.271,0.431-0.555,0.877-1.028,1.156c-0.39,0.229-0.704,0.245-1.097,0.266c-0.024,0.001-0.05,0.001-0.071,0.001
	c-0.177,0.085,0.012,0.458,0.141,0.686c0.069,0.12,0.147,0.256,0.217,0.44c0.047,0.131,0.05,0.271,0.052,0.401
	c0.004,0.118,0.006,0.227,0.037,0.309c0.015,0.039,0.069,0.09,0.122,0.137c0.096,0.083,0.214,0.19,0.262,0.356
	c0.12,0.403,0.082,1.265-0.037,1.569c-0.032,0.084-0.111,0.174-0.206,0.278c-0.071,0.081-0.151,0.174-0.18,0.229
	c-0.037,0.073-0.056,0.166-0.075,0.263c-0.029,0.145-0.062,0.313-0.168,0.463c-0.412,0.594-1.302,0.906-2.016,1.156
	c-0.177,0.062-0.344,0.121-0.483,0.177c-0.196,0.08-0.357,0.118-0.5,0.118c-0.205,0-0.363-0.076-0.545-0.161
	c-0.086-0.042-0.184-0.088-0.301-0.134c-0.302-0.114-0.579-0.139-0.901-0.167c-0.158-0.012-0.321-0.026-0.497-0.05
	c-0.336-0.048-0.549-0.201-0.754-0.341c-0.032-0.02-0.058-0.038-0.09-0.06h-0.031c-0.308,0-0.534-0.067-0.68-0.201
	c-0.332,0.479-0.837,0.844-1.572,1.143c-0.492,0.273-1.008,0.391-1.451,0.471c-0.124,0.038-0.223,0.067-0.313,0.096
	c-0.4,0.129-0.828,0.193-1.271,0.193c-0.159,0-0.325-0.011-0.482-0.027c-0.578-0.001-1.032-0.132-1.394-0.396
	c-0.388-0.189-0.728-0.438-1.012-0.733c-0.406-0.279-0.855-0.613-1.075-1.061c-0.261-0.535-0.133-0.774,0.033-1.082
	c0.047-0.083,0.094-0.175,0.14-0.279c0.009-0.025,0.023-0.054,0.037-0.087c0.294-0.673,0.389-0.968,0.409-1.092
	c-0.333-0.104-0.629-0.406-0.896-0.919c-0.145-0.283-0.3-0.534-0.396-0.65c-0.058-0.071-0.144-0.165-0.239-0.258
	c-0.062-0.06-0.145-0.131-0.169-0.155c-0.305-0.298-0.678-0.481-1.038-0.66c-0.327-0.162-0.663-0.328-0.937-0.578
	c-0.188-0.162-0.347-0.368-0.493-0.646c-0.432-0.667-0.857-1.375-0.979-2.077c-0.12-0.689,0.054-1.093,0.271-1.513
	c0.064-0.146,0.14-0.288,0.224-0.422c0.039-0.077,0.075-0.147,0.104-0.215c0.051-0.106,0.082-0.191,0.11-0.267
	c0.069-0.184,0.121-0.328,0.348-0.573C2.772,12.877,3,12.727,3.304,12.579c0.329-0.166,0.706-0.281,1.004-0.309
	c0.021-0.002,0.226-0.031,0.303-0.016c0.069,0.016,0.138,0.031,0.205,0.031c0.014,0,0.026,0,0.039-0.002
	c0.073-0.006,0.134-0.037,0.205-0.076c0.095-0.05,0.201-0.059,0.351-0.059h0.027c0.322,0.018,1.462,0.6,1.784,0.61
	c0,0,0.082,0.006,0.118-0.004c0.041-0.009,0.083-0.044,0.083-0.044c0.146-0.124,0.26-0.283,0.352-0.487
	c0.01-0.017,0.017-0.035,0.024-0.054L7.8,12.169c0.014-0.038,0.029-0.075,0.043-0.113v-0.001c0.013-0.041,0.027-0.079,0.038-0.121
	c0.064-0.218,0.11-0.458,0.153-0.687c0.013-0.063,0.022-0.13,0.035-0.191l0.014-0.054l0.013-0.069
	c0.003-0.013,0.01-0.065,0.01-0.065c0.008-0.016,0.01-0.035,0.016-0.051l0.003-0.014c0.002-0.015,0.007-0.03,0.008-0.048
	l0.008-0.018c0.003-0.02,0.007-0.035,0.014-0.057l0.001-0.006c0.005-0.017,0.008-0.035,0.015-0.053l0.005-0.014
	c0.003-0.021,0.011-0.039,0.015-0.058v-0.004c0.009-0.019,0.012-0.036,0.02-0.052l0.004-0.017c0.005-0.02,0.011-0.036,0.018-0.057
	l0.001-0.003c0.006-0.016,0.016-0.035,0.021-0.051l0.005-0.015c0.006-0.02,0.014-0.039,0.021-0.057v-0.001
	c0.011-0.018,0.015-0.033,0.023-0.051l0.007-0.016c0.009-0.017,0.016-0.034,0.025-0.051c0.117-0.231,0.19-0.512,0.269-0.811
	c0.16-0.601,0.324-1.215,0.854-1.54c0.234-0.141,0.478-0.162,0.713-0.183c0.201-0.018,0.39-0.036,0.562-0.123
	c0.146-0.074,0.27-0.177,0.398-0.284c0.18-0.152,0.369-0.312,0.632-0.391c0.028-0.01,0.053-0.016,0.082-0.022l0.019-0.006
	c0.024-0.007,0.053-0.013,0.076-0.018l0.016-0.005c0.021-0.004,0.044-0.008,0.064-0.015l0.021-0.001
	c0.022-0.006,0.049-0.009,0.072-0.015l0.021-0.001c0.019-0.003,0.038-0.007,0.058-0.01l0.023-0.002
	c0.02-0.002,0.043-0.004,0.066-0.006c0.008,0,0.028-0.002,0.028-0.002c0.016-0.002,0.032-0.002,0.048-0.004
	c0.012-0.001,0.027-0.001,0.042-0.001c0.016,0,0.028,0,0.044-0.003h0.034h0.037h0.027h0.035h0.024
	c0.084,0.003,0.178,0.006,0.275,0.014h0.006c0.037,0.002,0.071,0.004,0.106,0.009l0.017,0.002c0.037,0.004,0.071,0.007,0.107,0.01
	c0.086,0.009,0.164,0.013,0.24,0.013c0.233,0,0.412-0.037,0.66-0.09C14.221,6.651,14.468,6.606,14.612,6.609"/>
<g>
	<defs>
		<path id="SVGID_1_" d="M14.289,6.768c-0.48,0.09-0.721,0.175-1.191,0.129c-0.429-0.042-0.839-0.072-1.302,0.068
			c-0.412,0.126-0.633,0.476-1.007,0.667c-0.409,0.21-0.868,0.061-1.266,0.302c-0.736,0.45-0.717,1.584-1.072,2.296
			c-0.393,0.782-0.224,2.005-0.97,2.601c0,0-0.046,0.036-0.109,0.05c-0.049,0.01-0.142,0.01-0.142,0.01
			c-0.344-0.009-1.357-0.584-1.806-0.608c-0.231-0.012-0.346,0.114-0.563,0.135c-0.107,0.01-0.199,0.001-0.287-0.007
			c-0.087-0.008-0.169-0.016-0.262-0.009c-0.314,0.03-0.683,0.158-0.953,0.295c-0.305,0.149-0.512,0.286-0.771,0.564
			c-0.299,0.323-0.262,0.442-0.433,0.805c-0.374,0.799-0.745,1.146-0.587,2.065c0.138,0.795,0.69,1.612,1.139,2.308
			c0.518,0.806,1.576,0.889,2.295,1.591c0.257,0.253,0.569,0.545,0.788,0.817c0.192,0.236,0.888,0.926,0.932,1.171
			c0.036,0.216-0.355,1.085-0.455,1.321c-0.216,0.499-0.472,0.632-0.177,1.234c0.355,0.712,1.365,1.158,1.944,1.665
			c0.785,0.68,1.961,0.428,2.919,0.279c1-0.152,1.892-0.302,2.669-1.099c0.404-0.414,0.577-0.84,1.255-0.608
			c0.504,0.168,0.691,0.528,1.234,0.608c0.526,0.076,0.95,0.043,1.424,0.226c0.53,0.203,0.65,0.415,1.249,0.176
			c0.7-0.282,1.946-0.581,2.436-1.284c0.154-0.218,0.125-0.494,0.229-0.704c0.079-0.15,0.341-0.379,0.383-0.495
			c0.104-0.27,0.146-1.097,0.035-1.472c-0.066-0.229-0.319-0.323-0.381-0.481c-0.082-0.218-0.009-0.495-0.09-0.718
			c-0.2-0.547-0.693-1.061-0.336-1.304c0.057-0.034,0.792-0.01,1.208-0.255c0.773-0.457,1.013-1.401,1.635-1.974
			c0.377-0.342,0.68-0.479,0.861-1.003c0.149-0.438,0.281-0.918,0.419-1.383c0.313-1.067-0.069-1.628-0.977-2.114
			c-0.418-0.223-0.667-0.612-1.077-0.791c-0.359-0.154-0.99-0.284-1.355-0.349c-0.514-0.088-0.966-0.074-1.458-0.195
			c-0.434-0.108-0.883-0.118-1.356-0.048c-0.495,0.073-0.885,0.308-1.035-0.358c-0.094-0.427,0.082-0.927,0-1.369
			c-0.127-0.678-0.525-1.848-1.193-2.166c-0.395-0.19-0.847-0.056-1.271-0.293c-0.376-0.211-0.562-0.309-0.927-0.309
			C14.459,6.755,14.379,6.759,14.289,6.768"/>
	</defs>
	<clipPath id="SVGID_2_">
		<use xlink:href="#SVGID_1_"  overflow="visible"/>
	</clipPath>
	
		<radialGradient id="SVGID_3_" cx="-82.9727" cy="787.0205" r="1" gradientTransform="matrix(10.9647 0 0 -10.9647 923.1823 8646.1738)" gradientUnits="userSpaceOnUse">
		<stop  offset="0" style="stop-color:#FFFFFF"/>
		<stop  offset="0.0675" style="stop-color:#FFFFFF"/>
		<stop  offset="0.3804" style="stop-color:#F9DDE3"/>
		<stop  offset="1" style="stop-color:#DD5365"/>
	</radialGradient>
	<rect x="1.411" y="6.755" clip-path="url(#SVGID_2_)" fill="url(#SVGID_3_)" width="24.087" height="20.162"/>
</g>
<g>
	<defs>
		<path id="SVGID_4_" d="M14.494,6.738c-0.061,0.006-0.127,0.014-0.205,0.029c-0.48,0.09-0.717,0.163-1.191,0.118
			c-0.074-0.008-0.351-0.022-0.459-0.023c-0.271-0.008-0.546,0.014-0.843,0.103c-0.412,0.126-0.633,0.476-1.007,0.667
			c-0.409,0.21-0.868,0.061-1.266,0.302c-0.736,0.45-0.717,1.584-1.072,2.296c-0.294,0.587-0.273,1.414-0.556,2.044
			c0.021,0.229,0.063,0.454,0.127,0.671c0.11,0.352,0.794,0.325,0.668,1.008l0.027,0.11c0.55,1.822,3.805,1.373,4.732,0.662
			c0.472-0.366,1.375-0.66,1.737-1.114c0.313-0.405,1.343-0.729,1.602-1.16c0.405-0.672,0.927-1.577,0.877-2.192
			c-0.15-1.901-1.302-2.781-2.193-3.189c-0.425-0.194-0.551-0.331-0.928-0.331C14.529,6.737,14.511,6.738,14.494,6.738"/>
	</defs>
	<clipPath id="SVGID_5_">
		<use xlink:href="#SVGID_4_"  overflow="visible"/>
	</clipPath>
	
		<radialGradient id="SVGID_6_" cx="-104.7905" cy="805.0801" r="1" gradientTransform="matrix(8.4246 0 0 -8.4246 895.283 6790.5684)" gradientUnits="userSpaceOnUse">
		<stop  offset="0" style="stop-color:#DD5365"/>
		<stop  offset="0.2086" style="stop-color:#DD5365"/>
		<stop  offset="0.2967" style="stop-color:#DF5C6D"/>
		<stop  offset="0.4394" style="stop-color:#E47483"/>
		<stop  offset="0.6187" style="stop-color:#EC9BA6"/>
		<stop  offset="0.8259" style="stop-color:#F6D0D7"/>
		<stop  offset="0.8712" style="stop-color:#F9DDE3"/>
		<stop  offset="1" style="stop-color:#F9DDE3"/>
	</radialGradient>
	<rect x="7.895" y="6.737" clip-path="url(#SVGID_5_)" fill="url(#SVGID_6_)" width="9.82" height="9.147"/>
</g>
<g>
	<defs>
		<path id="SVGID_7_" d="M14.819,6.971c-0.063,0.008-0.134,0.02-0.213,0.032c-0.499,0.093-0.749,0.181-1.24,0.132
			c-0.08-0.006-0.387-0.022-0.475-0.031c-0.28-0.011-0.567,0.011-0.873,0.103c-0.429,0.13-0.662,0.487-1.048,0.683
			c-0.426,0.22-0.906,0.064-1.314,0.311c-0.41,0.249-0.896,1.139-1.047,2.26c-0.051,0.374,0.206,0.726,0.157,1.153
			c-0.219,1.822,0.3,1.408,0.688,2.147c0.728,1.376,0.656,1.798,0.295,1.724c0.402,0.484,0.772,1.103,0.474,1.496
			c1.241,0.267,2.82-0.07,3.425-0.534c0.495-0.383,1.176-0.754,1.554-1.232c0.329-0.417,0.936-1.746,1.208-2.188
			c0.422-0.695,0.882-0.836,1.212-2.124c0.555-2.155-0.541-3.076-1.697-3.563c-0.362-0.15-0.831-0.37-1.069-0.37
			C14.841,6.969,14.83,6.97,14.819,6.971"/>
	</defs>
	<clipPath id="SVGID_8_">
		<use xlink:href="#SVGID_7_"  overflow="visible"/>
	</clipPath>
	
		<radialGradient id="SVGID_9_" cx="-95.1323" cy="800.5576" r="0.9993" gradientTransform="matrix(9.3886 0 0 -8.9389 906.6723 7165.8306)" gradientUnits="userSpaceOnUse">
		<stop  offset="0" style="stop-color:#DD5365"/>
		<stop  offset="0.0868" style="stop-color:#DE596B"/>
		<stop  offset="0.2058" style="stop-color:#E26B7B"/>
		<stop  offset="0.3436" style="stop-color:#E88895"/>
		<stop  offset="0.4941" style="stop-color:#F0B0BA"/>
		<stop  offset="0.638" style="stop-color:#F9DDE3"/>
		<stop  offset="0.7644" style="stop-color:#FAE4E9"/>
		<stop  offset="0.9536" style="stop-color:#FEF9FA"/>
		<stop  offset="1" style="stop-color:#FFFFFF"/>
	</radialGradient>
	<rect x="8.547" y="6.969" clip-path="url(#SVGID_8_)" fill="url(#SVGID_9_)" width="9.628" height="10.277"/>
</g>
<g>
	<defs>
		<path id="SVGID_10_" d="M12.976,18.417c-0.768,0.201-2.145,0.017-2.815,0.477c-0.591,0.403-1.147,0.971-1.429,1.614
			c-0.698,0.764-1.456,1.434-1.877,2.028c-0.474,0.655-0.559,1.695-0.255,2.297c0.841,1.675,2.953,2.206,4.564,1.696
			c1.563-0.353,3.479-0.796,3.695-2.875c0.107-1.03,0.395-2.091,0.056-3.042c-0.254-0.697-0.316-2.245-1.532-2.245
			C13.259,18.367,13.125,18.383,12.976,18.417"/>
	</defs>
	<clipPath id="SVGID_11_">
		<use xlink:href="#SVGID_10_"  overflow="visible"/>
	</clipPath>
	
		<radialGradient id="SVGID_12_" cx="-140.8345" cy="834.7939" r="1.0003" gradientTransform="matrix(6.0957 0 0 -6.0957 868.3321 5108.6079)" gradientUnits="userSpaceOnUse">
		<stop  offset="0" style="stop-color:#FFFFFF"/>
		<stop  offset="0.411" style="stop-color:#F9DDE3"/>
		<stop  offset="1" style="stop-color:#DD5365"/>
	</radialGradient>
	<rect x="6.296" y="18.367" clip-path="url(#SVGID_11_)" fill="url(#SVGID_12_)" width="8.958" height="8.672"/>
</g>
<g>
	<defs>
		<path id="SVGID_13_" d="M1.565,15.864c-0.017,0.755,0.591,1.57,0.923,2.216c0.479,0.938,0.915,0.974,1.765,1.432
			c0.709,0.383,1.158,0.831,1.56,1.603c1.04,1.998,2.172,0.135,3.074-0.597c0.667-0.542,1.079-1.754,0.883-2.624
			c-0.131-0.579-0.602-1.422-1.085-1.779l0.302,0.205c-0.382-0.378-0.087-0.854-0.258-1.311c-0.149-0.406-0.392-0.9-0.607-1.347
			c-0.323-0.671-0.691-0.502-1.02-0.334c-0.177,0.089-0.341,0.179-0.48,0.141c-0.427-0.11-1.045-0.25-1.446-0.408
			c-0.275-0.108-0.555-0.158-0.827-0.158C2.901,12.902,1.602,14.296,1.565,15.864"/>
	</defs>
	<clipPath id="SVGID_14_">
		<use xlink:href="#SVGID_13_"  overflow="visible"/>
	</clipPath>
	
		<radialGradient id="SVGID_15_" cx="-113.04" cy="811.7783" r="0.9986" gradientTransform="matrix(7.7512 0 0 -7.7512 886.0637 6310.4541)" gradientUnits="userSpaceOnUse">
		<stop  offset="0" style="stop-color:#FFFFFF"/>
		<stop  offset="0.0675" style="stop-color:#FFFFFF"/>
		<stop  offset="0.4294" style="stop-color:#F9DDE3"/>
		<stop  offset="1" style="stop-color:#DD5365"/>
	</radialGradient>
	<rect x="1.548" y="12.902" clip-path="url(#SVGID_14_)" fill="url(#SVGID_15_)" width="8.417" height="10.21"/>
</g>
<g>
	<defs>
		<path id="SVGID_16_" d="M18.522,11.505c-0.434,0.075-0.887,0.392-1.193,0.604c-0.344,0.271-0.551,0.951-0.897,1.155
			c-0.799,0.372-0.822,0.563-1.259,1.257c-0.356,0.568-0.808,1.366-1.161,1.985c-0.005,0.242,0.016,0.483,0.061,0.713
			c0.072,0.389,0.518,1.01,0.506,1.35l0.018-0.136c0.365,1.978,4.389,2.575,3.649,1.609c-1.915-2.489,1.063-3.705,1.439-3.24
			c2.341,2.909,3.281,1.197,3.507,0.901c0.481-0.651,0.857-1.314,0.975-1.954c0.745-4.132-1.568-3.553-2.877-4.119
			c-0.061-0.003-0.132-0.002-0.207,0.003c-0.502,0.03-0.756,0.083-1.234-0.029c-0.074-0.017-0.152-0.034-0.226-0.054
			c-0.072-0.005-0.147-0.019-0.233-0.04c-0.153-0.024-0.308-0.041-0.467-0.041C18.792,11.47,18.66,11.48,18.522,11.505"/>
	</defs>
	<clipPath id="SVGID_17_">
		<use xlink:href="#SVGID_16_"  overflow="visible"/>
	</clipPath>
	
		<radialGradient id="SVGID_18_" cx="-61.3042" cy="769.2139" r="1" gradientTransform="matrix(15.631 0 0 -15.631 986.5792 12034.8398)" gradientUnits="userSpaceOnUse">
		<stop  offset="0" style="stop-color:#DD5365"/>
		<stop  offset="0.3067" style="stop-color:#DD5365"/>
		<stop  offset="0.4112" style="stop-color:#E36E7E"/>
		<stop  offset="0.6346" style="stop-color:#F1B3BD"/>
		<stop  offset="0.7607" style="stop-color:#F9DDE3"/>
		<stop  offset="1" style="stop-color:#F9DDE3"/>
	</radialGradient>
	<rect x="14.006" y="11.47" clip-path="url(#SVGID_17_)" fill="url(#SVGID_18_)" width="10.904" height="9.539"/>
</g>
<g>
	<defs>
		<path id="SVGID_19_" d="M18.109,19.726c0.008,0.002,0.015-0.005,0.019-0.01c0.003-0.004,0.004-0.009,0.001-0.009
			C18.126,19.707,18.12,19.712,18.109,19.726 M17.298,12.103c-0.121,0.132-0.246,0.257-0.312,0.365
			c-0.171,0.283-0.253,0.437-0.577,0.619c-0.225,0.124-0.396,0.182-0.557,0.365c-0.156,0.181-0.275,0.371-0.414,0.563
			c-0.265,0.377-0.777,0.466-1.237,0.473c-0.113,0.004-0.222-0.004-0.325-0.005c-0.634,0.413-1.301,0.647-1.91,0.499
			c-0.376-0.095-0.847-0.763-1.2-0.709c-0.356,0.053,0.204,0.236-0.079,0.539c-0.315,0.338-0.695,0.061-0.962-0.218
			c-0.183-0.188-0.31-0.378-0.328-0.373c-0.078,0.024,0.011,0.223,0.006,0.314c-0.018,0.2-0.196,0.317-0.216,0.518
			c-0.022,0.198,0.007,0.311,0.032,0.413c0.028,0.122,0.09,0.274,0.081,0.482c-0.01,0.351-0.009,0.237-0.021,0.589
			c-0.03,0.692-0.319,0.981-0.49,1.667c-0.182,0.747,0.591,1.142-0.339,2.541c-0.31,0.464-1.705,1.113-1.619,1.662
			c0.396-0.067,0.614-0.506,0.897-0.792c0.668-0.675,2.495-1.384,3.568-1.433c1.119-0.052,0.047,1.19,0.36,1.433
			c0.301,0.236-0.308,0.891,0.036,0.725c0.359-0.174,0.846-1.799,1.042-2.198c0.128-0.262,1.899-4.368,1.945,1.828
			c0.009,0.59,0.356,0.875,0.193,1.443c-0.082,0.268-1.119,1.76,0.591,1.591c0.229-1.293-0.749-2.209-0.243-2.841
			c0.269-0.335,1.212-0.396,1.195-0.833c-0.038-0.96,0.405-0.938,0.814-0.916c0.252,0.013,0.492,0.026,0.598-0.188
			c0.163-0.334,0.244-0.459,0.279-0.5c-0.018-0.003-0.038-0.032-0.049-0.145c-0.044-0.426,0.336-0.429,0.159-0.834
			c0.406,0.098,0.519-0.303,0.854-0.396c0.229-0.065,0.693-0.038,0.928,0.001c0.563,0.092,0.839,1.005,0.955,0.947
			c0.133-0.195-0.183-0.683-0.479-0.955c-0.236-0.218-0.521-0.657-0.713-0.912c-0.287-0.374-0.102-0.88-0.521-1.096
			c-0.129-0.064-0.233-0.042-0.359-0.019c-0.185,0.035-0.416,0.068-0.841-0.19c-2.221,1.573-0.341-0.8-0.476-1.382
			c-0.271-0.767-0.872-0.988-0.24-2.637c0.002-0.009-0.004-0.016-0.012-0.016C17.311,12.094,17.304,12.097,17.298,12.103"/>
	</defs>
	<clipPath id="SVGID_20_">
		<use xlink:href="#SVGID_19_"  overflow="visible"/>
	</clipPath>
	
		<radialGradient id="SVGID_21_" cx="-108.4253" cy="807.9355" r="0.9994" gradientTransform="matrix(8.1181 0 0 -8.1181 894.1222 6577.4521)" gradientUnits="userSpaceOnUse">
		<stop  offset="0" style="stop-color:#FFFFFF"/>
		<stop  offset="0.092" style="stop-color:#FFFFFF"/>
		<stop  offset="0.3742" style="stop-color:#F9DDE3"/>
		<stop  offset="0.4668" style="stop-color:#F1B7C0"/>
		<stop  offset="0.5878" style="stop-color:#E98C99"/>
		<stop  offset="0.6967" style="stop-color:#E26D7D"/>
		<stop  offset="0.7888" style="stop-color:#DE5A6B"/>
		<stop  offset="0.8528" style="stop-color:#DD5365"/>
		<stop  offset="1" style="stop-color:#DD5365"/>
	</radialGradient>
	<rect x="6.746" y="12.094" clip-path="url(#SVGID_20_)" fill="url(#SVGID_21_)" width="14.344" height="13.079"/>
</g>
<path fill-rule="evenodd" clip-rule="evenodd" fill="#FFFFFF" d="M10.273,20.024c-0.233-0.168,0-0.756,0.275-1.053
	c0.277-0.294,0.7-0.773,0.588-0.828c-0.108-0.056-0.588,0.055-0.735,0c-0.147-0.056,0.828-0.442,0.939-0.498
	c0.11-0.055-0.7-0.276-0.996-0.313c-0.295-0.036-0.9,0.056-0.846-0.075c0.055-0.127,0.406-0.293,0.478-0.367
	c0.073-0.073-0.46-0.35-0.498-0.479c-0.034-0.128,0.111-0.257,0.664-0.128c0.554,0.128,1.015,0.074,1.253,0.128
	c0.239,0.057,0.368,0.11,0.46,0.166c0.093,0.057,0.16-0.145,0.235-0.114c0.077,0.03,0.251,0.146,0.267,0.03
	c0.016-0.113-0.075-0.318-0.229-0.455c-0.152-0.137-0.393-0.411-0.424-0.509c-0.031-0.1-0.153-0.334-0.016-0.387
	c0.137-0.054,0.258-0.008,0.334-0.04c0.075-0.029,0.212-0.232,0.409-0.15c0.198,0.084,0.289,0.159,0.35,0.206
	c0.061,0.046,0.175,0.074,0.265,0.046c0.092-0.031,0.245-0.215,0.418-0.107c0.175,0.107,0.487,0.356,0.768,0.296
	c0.28-0.062,0.439-0.197,0.523-0.364s0.32-0.69,0.419-0.789c0.097-0.101,0.349-0.297,0.311-0.221
	c-0.037,0.074-0.287,0.63-0.273,0.91c0.014,0.282-0.044,0.351,0.046,0.419c0.09,0.067,0.204,0.045,0.304,0
	c0.099-0.047,0.258-0.159,0.28-0.091c0.022,0.067-0.562,0.463-0.736,0.629c-0.174,0.167-0.342,0.509-0.257,0.646
	c0.083,0.136,0.416,0.076,0.582,0.076c0.169,0,0.525,0.022,0.479,0.104c-0.046,0.084-0.646,0.487-0.646,0.555
	c0,0.068,0.365,0.196,0.57,0.205c0.205,0.008,0.692,0.083,0.88,0.129c0.189,0.046,0.349,0.039,0.387,0.145
	c0.039,0.105,0.101,0.196,0.031,0.205c-0.069,0.008-0.477-0.054-0.615-0.106c-0.137-0.054-0.843-0.213-1.002-0.204
	c-0.16,0.007-0.63-0.009-0.713,0.15c-0.085,0.16,0.264,0.266,0.341,0.336c0.076,0.067,0.357,0.363,0.183,0.394
	c-0.174,0.031-0.319-0.099-0.388-0.121c-0.067-0.023-0.342-0.213-0.409-0.267c-0.069-0.052-0.363-0.371-0.51-0.356
	c-0.144,0.015-0.441,0.068-0.605,0.175c-0.168,0.105-0.352,0.311-0.449,0.425c-0.1,0.114-0.502,0.372-0.669,0.511
	c-0.167,0.135-1.086,0.863-1.253,0.985C10.876,19.993,10.461,20.16,10.273,20.024"/>
<path fill-rule="evenodd" clip-rule="evenodd" fill="#B50029" d="M12.925,14.579c-0.065-0.101-0.042-0.338,0.016-0.485
	c0.047-0.127,0.44-0.849,0.849-0.711c0.165,0.055,0.274,0.125,0.322,0.3c0.082,0.292,0.092,0.728-0.132,0.952
	C13.66,14.955,13.109,14.85,12.925,14.579"/>
<path fill-rule="evenodd" clip-rule="evenodd" fill="#B50029" d="M11.015,15.455c0.113-0.021,0.267-0.161,0.293-0.274
	c0.035-0.152,0.337-0.166,0.351-0.226c0.015-0.062-0.312-0.854-0.487-0.926c-0.21-0.09-0.272,0.055-0.462,0.039
	c-0.146-0.013-0.276-0.07-0.366,0.088c-0.135,0.245-0.387,0.563-0.185,0.83C10.362,15.256,10.653,15.527,11.015,15.455"/>
<path fill-rule="evenodd" clip-rule="evenodd" fill="#B50029" d="M15.576,16.092c-0.055,0.063-0.174,0.107-0.248,0.027
	c0.24-0.288,0.44-0.396,0.737-0.619c0.105-0.112,0.021-0.595,0.075-0.754c0.056-0.16,0.551-0.499,0.769-0.384
	c0.111,0.058,0.219,0.092,0.281,0.189c0.118,0.183,0.115,0.49,0.116,0.629c0.007,0.196-0.1,0.339-0.157,0.528
	c-0.054,0.18-0.382,0.153-0.53,0.167c-0.196,0.018-0.384-0.134-0.569-0.02C15.946,15.921,15.659,15.999,15.576,16.092"/>
<path fill-rule="evenodd" clip-rule="evenodd" fill="#B50029" d="M13.363,16.769c0.065-0.121-0.004-0.297,0.018-0.424
	c0.015-0.102,0.051-0.26-0.06-0.321c-0.052,0.239-0.093,0.512-0.002,0.744C13.329,16.796,13.361,16.772,13.363,16.769"/>
<path fill-rule="evenodd" clip-rule="evenodd" fill="#B50029" d="M8.873,17.417c0.255-0.372,0.545-0.497,0.882-0.562
	c0.008-0.044-0.094-0.08-0.13-0.081c-0.231-0.045-0.407-0.185-0.556-0.362c-0.288-0.347-0.455-0.627-0.926-0.482
	c-0.501,0.153-0.521,0.975-0.38,1.374C7.931,17.781,8.579,17.842,8.873,17.417"/>
<path fill-rule="evenodd" clip-rule="evenodd" fill="#B50029" d="M18.761,16.801c0.515-0.193,0.934,0.062,0.679,0.488
	c-0.129,0.219-0.087,0.472-0.234,0.694c-0.115,0.176-0.401,0.271-0.614,0.195c-0.193-0.068-0.466-0.191-0.603-0.332
	c-0.159-0.164-0.205-0.295-0.463-0.363c-0.42-0.11-0.878-0.004-1.288-0.159c0.469-0.237,1.001,0.021,1.491-0.013
	C17.942,17.297,18.088,16.924,18.761,16.801"/>
<path fill-rule="evenodd" clip-rule="evenodd" fill="#B50029" d="M16.226,17.312c-0.131-0.068-0.275-0.075-0.369-0.013
	C15.945,17.32,16.138,17.348,16.226,17.312"/>
<path fill-rule="evenodd" clip-rule="evenodd" fill="#B50029" d="M9.902,18.806c-0.47-0.559-1.461,0.506-1.531,0.576
	c-0.071,0.069-0.262,0.207-0.28,0.281c-0.058,0.222,0.454,0.519,0.613,0.611c0.209,0.121,0.389,0.435,0.677,0.214
	c0.284-0.212,0.309-0.417,0.384-0.746c0.068-0.291,0.188-0.594,0.411-0.801c0.227-0.209,0.503-0.365,0.688-0.615
	C10.412,18.289,10.229,18.659,9.902,18.806"/>
<path fill-rule="evenodd" clip-rule="evenodd" fill="#B50029" d="M16.891,16.386c-0.091-0.357-0.724,0.018-0.882-0.015
	c0.181,0.046,0.444,0.032,0.683,0.067C16.761,16.453,16.91,16.462,16.891,16.386"/>
<path fill-rule="evenodd" clip-rule="evenodd" fill="#B50029" d="M14.166,18.446c0.18,0.099,0.238,0.346,0.423,0.456
	c0.157,0.092,0.387,0.208,0.541,0.328c0.083,0.065,0.176,0.364,0.036,0.432c-0.205,0.101-0.279-0.296-0.383,0.036
	c-0.104,0.329-0.506,0.484-0.583,0.836c-0.053,0.245-0.222,0.581-0.066,0.818c0.047,0.073,0.126,0.108,0.211,0.118
	c0.187,0.023,0.215,0.012,0.378,0.114c0.202,0.129,0.368,0.186,0.587,0.085c0.21-0.098,0.383-0.248,0.431-0.487
	c-0.026-0.261-0.121-0.514-0.111-0.778c0.006-0.264,0.124-0.419-0.014-0.682c-0.107-0.211-0.204-0.32-0.39-0.462
	c-0.142-0.106-0.19-0.308-0.293-0.452c-0.171-0.238-0.477-0.514-0.585-0.631c-0.109-0.117-0.228-0.191-0.408-0.191
	c-0.18,0.001-0.442,0.202-0.572,0.356c-0.169,0.203-0.399,0.316-0.574,0.484c-0.19,0.183-0.148,0.463-0.245,0.691
	c-0.082,0.194-0.237,0.424-0.257,0.638c0.13-0.072,0.22-0.276,0.299-0.395c0.059-0.087,0.115-0.178,0.183-0.261
	c0.074-0.086,0.181-0.089,0.26-0.163c0.229-0.219,0.252-0.494,0.401-0.74C13.559,18.389,13.978,18.351,14.166,18.446"/>
<path fill-rule="evenodd" clip-rule="evenodd" fill="#B50029" d="M18.453,20.668c-0.016-0.141-0.063-0.28-0.029-0.423
	c0.043-0.177-0.019-0.318-0.104-0.484c-0.097-0.19-0.396-0.635-0.662-0.515c-0.092,0.042-0.184,0.156-0.295,0.092
	c-0.135-0.078-0.177-0.197-0.345-0.254c-0.15-0.052-0.31-0.076-0.466-0.117c-0.103-0.025-0.193-0.054-0.326-0.064
	c0.104,0.217,0.459,0.349,0.634,0.494c0.38,0.314,0.198,0.677,0.173,1.077c-0.004,0.126-0.046,0.298,0.039,0.417
	c0.083,0.121,0.4,0.145,0.476,0.189c0.041,0.027,0.428,0.159,0.594,0.066C18.308,21.052,18.467,20.774,18.453,20.668"/>
<path fill-rule="evenodd" clip-rule="evenodd" fill="#B50029" d="M14.222,24.348c0.114-0.022,0.27,0.098,0.52,0.192
	c0.251,0.097,0.453,0.155,0.654,0.165c0.203,0.008,0.578,0.241,0.644,0.375c0.067,0.135,0.107,0.5-0.009,0.713
	c-0.116,0.209-0.318,0.489-0.212,0.95c0.105,0.462,0.298,0.635-0.038,0.607c-0.337-0.03-0.586-0.146-0.78-0.203
	c-0.191-0.057-0.47-0.087-0.682-0.346c-0.211-0.261-0.348-0.211-0.693-0.424c-0.346-0.211-0.558-0.653-0.384-0.846
	c0.172-0.193,0.701-0.664,0.767-0.769C14.077,24.656,14.173,24.357,14.222,24.348"/>
<path fill-rule="evenodd" clip-rule="evenodd" fill="#B50029" d="M21.089,21.627c0-0.107,0.25-0.274,0.267-0.344
	c0.014-0.066,0.021-0.478-0.024-0.651c-0.045-0.175-0.074-0.364,0.055-0.448c0.13-0.084,0.485-0.198,0.696-0.106
	c0.214,0.092,0.39,0.176,0.585,0.25c0.198,0.076,0.715,0.343,0.807,0.533c0.09,0.188,0.213,0.394,0.074,0.599
	c-0.137,0.205-0.135,0.349-0.241,0.441c-0.099,0.084-0.365,0.279-0.509,0.462c-0.146,0.183-0.252,0.57-0.427,0.653
	c-0.174,0.084-0.522,0.189-0.622,0.068c-0.099-0.122-0.15-0.387-0.129-0.493c0.024-0.106,0.265-0.305,0.205-0.479
	c-0.061-0.175-0.236-0.197-0.425-0.267C21.21,21.778,21.089,21.733,21.089,21.627"/>
<path fill-rule="evenodd" clip-rule="evenodd" fill="#B50029" d="M4.928,23.175c-0.094-0.101-0.186-0.187-0.14-0.287
	c0.046-0.102,0.162-0.316,0.188-0.488c0.021-0.169,0.015-0.571,0-0.688c-0.017-0.115,0.061-0.293,0.093-0.402
	c0.03-0.109-0.008-0.311,0.19-0.38c0.203-0.068,0.413-0.047,0.59-0.015c0.179,0.031,0.534,0.123,0.636,0.317
	c0.101,0.192,0.163,0.417,0.28,0.494c0.114,0.077,0.471,0.233,0.478,0.289c0.008,0.052-0.068,0.123-0.193,0.339
	c-0.124,0.218-0.116,0.775-0.133,0.882c-0.012,0.109-0.006,0.521-0.145,0.612c-0.14,0.093-0.364,0-0.565-0.1
	c-0.201-0.102-0.49-0.212-0.604-0.318C5.5,23.335,5.5,23.213,5.431,23.182C5.362,23.151,5.023,23.276,4.928,23.175"/>
<path fill-rule="evenodd" clip-rule="evenodd" fill="#B50029" d="M12.458,21.154c0.079,0.083,0.106,0.354,0.104,0.433
	c-0.008,0.158-0.023,0.381-0.103,0.484c-0.081,0.105-0.36,0.254-0.443,0.284c-0.083,0.028-0.335,0.118-0.476-0.008
	c-0.063-0.054-0.274-0.199-0.342-0.331c-0.065-0.133-0.141-0.633,0.113-0.915c0.12-0.135,0.34-0.146,0.483-0.266
	c0.128-0.105,0.243-0.226,0.38-0.318c0.011,0.139-0.1,0.307-0.004,0.432C12.239,21.039,12.378,21.067,12.458,21.154"/>
<path fill-rule="evenodd" clip-rule="evenodd" fill="#B50029" d="M15.617,18.01c-0.177-0.023-0.254-0.083-0.443-0.077
	c0.109,0.163,0.392,0.137,0.568,0.204c0.081,0.029,0.139,0.086,0.197,0.122c0.194,0.11,0.548,0.241,0.598,0.299
	c0.047,0.06,0.396,0.21,0.584,0.136c0.08-0.028,0.221-0.061,0.186-0.163c-0.149-0.306-0.579-0.197-0.809-0.342
	c-0.075-0.045-0.075-0.106-0.188-0.125c-0.11-0.021-0.24-0.008-0.321-0.04C15.908,17.988,15.74,18.024,15.617,18.01"/>
<path fill-rule="evenodd" clip-rule="evenodd" fill="#B50029" d="M13.542,15.253c0,0,0.004,0.049-0.025,0.18
	c-0.028,0.131-0.086,0.414,0.032,0.642c0,0,0.064-0.075,0.048-0.279c-0.016-0.205,0.017-0.228,0.019-0.295
	C13.617,15.433,13.542,15.253,13.542,15.253"/>
<path fill-rule="evenodd" clip-rule="evenodd" fill="#B50029" d="M12.762,17.656c0.077,0.095-0.028,0.246-0.093,0.33
	c-0.067,0.094-0.183,0.146-0.411,0.386c-0.227,0.241-0.47,0.517-0.529,0.599c-0.064,0.083-0.208,0.305-0.264,0.257
	c-0.055-0.051,0.111-0.36,0.152-0.428c0.041-0.068,0.282-0.399,0.365-0.448c0.083-0.047,0.51-0.406,0.497-0.455
	c-0.016-0.048-0.159-0.033-0.229-0.021c-0.067,0.016-0.392,0.133-0.482,0.153c-0.089,0.021-0.198-0.034-0.069-0.146
	c0.132-0.109,0.166-0.131,0.236-0.146c0.066-0.013,0.263-0.02,0.304-0.061c0.041-0.042,0.046-0.173,0.005-0.199
	c-0.041-0.029-0.102-0.009-0.159-0.009c-0.054,0-0.71-0.116-0.819-0.137s-0.736-0.187-0.848-0.207
	c-0.109-0.02-0.123-0.097,0.056-0.097c0.18,0,0.504,0.063,0.621,0.063c0.116,0,0.254-0.021,0.379-0.015
	c0.124,0.008,0.475,0.069,0.578,0.036c0.104-0.036,0.248-0.099,0.269-0.166s0.035-0.15-0.028-0.213
	c-0.062-0.063-0.338-0.248-0.414-0.394c-0.073-0.144-0.149-0.289-0.226-0.33s-0.207-0.063-0.263-0.14
	c-0.055-0.075-0.082-0.282,0.014-0.241c0.096,0.043,0.359,0.182,0.401,0.235c0.04,0.055,0.108,0.192,0.191,0.29
	c0.083,0.095,0.262,0.263,0.345,0.31c0.082,0.049,0.247,0.171,0.297,0.275c0.262,0.014,0.315,0,0.488,0.009
	c0.172,0.005,0.443,0.031,0.496,0.061c0.057,0.027,0.243,0.116,0.305,0.055c0.062-0.063,0.232-0.426,0.303-0.517
	c0.067-0.089,0.386-0.482,0.447-0.585c0.063-0.104,0.436-0.399,0.47-0.38c0.033,0.021,0.109,0.067-0.028,0.193
	c-0.138,0.123-0.531,0.51-0.586,0.605c-0.056,0.098-0.275,0.454-0.318,0.531c-0.039,0.075-0.157,0.159-0.121,0.206
	c0.032,0.049,0.261,0.11,0.309,0.158c0.047,0.049,0.194,0.312,0.089,0.381c-0.103,0.068-0.227,0.005-0.315-0.09
	c-0.092-0.096-0.14-0.2-0.235-0.262c-0.095-0.063-0.213-0.098-0.393-0.159c-0.18-0.063-0.579-0.075-0.688-0.049
	c-0.11,0.027-0.33,0.104-0.339,0.228C12.514,17.25,12.554,17.402,12.762,17.656"/>
<path fill-rule="evenodd" clip-rule="evenodd" fill="#B50029" d="M13.072,16.539c-0.063,0-0.269-0.186-0.338-0.323
	c-0.069-0.139-0.215-0.4-0.263-0.462c-0.047-0.063-0.075-0.2-0.124-0.241c-0.047-0.042-0.267-0.303-0.205-0.338
	c0.063-0.033,0.288,0.194,0.317,0.256c0.026,0.062,0.246,0.364,0.302,0.439c0.055,0.077,0.221,0.339,0.262,0.415
	C13.064,16.36,13.134,16.539,13.072,16.539"/>
<path fill="#00125D" d="M61.783,2.112c-0.629,0.502-1.652,0.439-2.442,0.344l0.097-1.575C59.058,0.472,58.807,0.095,58.209,0
	c-0.788,0.6-0.065,1.86-0.378,2.772c-0.506,0.187-1.213,0.317-1.778,0.317c-0.316-0.064-0.569-0.57-0.884-0.224
	c-0.252,1.701,0,3.625,1.133,4.914c0.536,0.128,1.147-0.378,1.654-0.315c0.097,1.547-0.143,3.086,0.145,4.567l0.185,0.187
	C59.391,10.801,59,8.912,59.34,7.213c0.821-0.033,1.721-0.408,2.568-0.127l0.788-0.785c0.35-0.539-0.313-0.85-0.44-1.293
	c0.44-0.599,1.166-0.979,1.193-1.762C63.011,2.739,62.444,2.237,61.783,2.112 M56.777,6.301L56.65,6.107
	c0.221-0.846-0.594-2.227,0.958-2.515h0.252l0.065,2.55C57.674,6.301,57.088,6.301,56.777,6.301 M59.25,5.7l0.091-2.454
	c0.538-0.19,1.515-0.029,2.084-0.029C60.948,4.131,60.924,5.597,59.25,5.7"/>
<path fill="#00125D" d="M77.938,6.804c-0.661,0.249-1.417,0.281-2.141,0.249V6.991c0.158-1.039,1.132-0.87,1.635-1.34
	c0.125-0.222,0.285-0.327,0-0.519c-0.725-0.125-0.687-0.788-1.472-0.85c-0.317,0.062-0.221,0.443-0.473,0.565
	c-0.221,0.066-1.285,0.096-1.478-0.029c-0.156-1.196,1.566-0.243,2.039-0.936c0.187-0.346-0.158-0.512-0.346-0.638l-3.181,0.409
	l-0.063-0.063c0.283-0.413,0.969-0.795,1.472-0.7l-0.184,0.354c0.539,0,0.853-0.255,1.262-0.568c1.007-0.316,2.548,0.597,2.77-0.787
	c-0.186-0.754-1.053-0.315-1.465-0.379c0.1-0.19,0.271-0.375,0.271-0.631c-0.222-0.47-0.386-0.54-0.795-0.634
	c-0.661,0.22-0.884,1.008-1.29,1.513l-1.783,0.137l-0.124-0.914c-0.315-0.505-0.605-0.479-1.08-0.607
	c-0.66,0.382-0.092,1.232-0.06,1.737c-0.443,0.218-1.106,0.125-1.418,0.531c0.028,0.315,0.22,0.603,0.408,0.788
	c0.409,0.283,0.913-0.029,1.32-0.124c0.696,0.536-0.502,0.378-0.439,0.851c0.188,0.629,0.978,0.199,1.449,0.232
	c0.063,0.186,0.095,0.554-0.028,0.742c-1.437,0.479-1.324-0.85-2.334-0.504c-0.376,0.22-0.093,0.632-0.124,0.883l-0.662,0.064
	c-0.217,0.03-0.252,0.283-0.252,0.471c0.221,0.376,0.662,0.451,1.134,0.391c0.156,0.125,0.188,0.9,0.127,1.055
	c-0.79,0.189-1.642,0.222-2.426,0.41c-0.067,0.283,0.097,0.347,0.188,0.599c0.094,0.253,0.38,0.38,0.727,0.284
	c1.164-0.281,2.328-0.691,3.589-0.756l0.092,0.13c-0.03,0.155,0.097,0.502-0.03,0.598l-2.176,0.379
	c-0.154,0.154-0.029,0.217,0.036,0.345c0.348,1.102,1.447,0.142,2.14,0.489c0.095,0.944,0.063,1.935,0.381,2.786
	c1.102-0.568,0.64-1.966,0.891-2.979c0.754-0.155,1.659,0.125,2.382,0.192c0.25-0.222,0.662-0.238,0.597-0.648
	c-0.376-1.163-1.986-0.503-2.899-0.63l-0.126-0.124c-0.029-0.19-0.111-0.538,0.074-0.663c1.229-0.122,2.827,0,3.963,0.189
	l0.471-0.312c0.189-0.16,0.314-0.227,0.251-0.478C78.505,7.083,78.257,6.832,77.938,6.804 M72.745,7.212L71.644,7.28
	c0.162-0.285-0.06-1.496,0.538-1.367l0.563,0.024V7.212z M74.072,7.053c0-0.249-0.103-1.615,1.132-1.311
	C75.204,6.06,74.389,6.926,74.072,7.053"/>
<path fill="#00125D" d="M108.362,1.896c-0.631,0.597-1.71,0.494-2.542,0.398c0.101-0.564-0.232-0.964-0.495-1.396
	c-0.464-0.2-0.933-0.497-1.261-0.031l0.328,1.492c-0.265,0.233-0.673,0.233-0.969,0.329c-0.597,0.069-1.658,0.499-1.658-0.563
	c-0.263-0.098-0.431-0.496-0.731-0.229c-0.102,0.993-0.797,1.789-0.629,2.818c0.163,0.299,0.27,0.797,0.73,0.729
	c0.601-0.267,0.43-1.061,0.761-1.527l1.291-0.529c0.532-0.034,1.304-0.597,1.74,0.065c0.296,0.101,0.454,0.069,0.752-0.065
	c0.233-0.498,1.089-0.399,1.554-0.297c-0.136,0.528-0.895,0.859-1.127,1.226c1.028,0.199,1.758-0.697,2.688-0.431
	c0.398,0.1,0.96,0.163,1.224-0.2c0.103-0.298,0.103-0.63-0.063-0.895C109.294,2.759,109.09,1.797,108.362,1.896"/>
<path fill="#00125D" d="M87.182,2.444c0.342,0.099,0.848,0.169,1.15-0.033c0.14-0.272,0.409-0.544,0.241-0.919
	c-0.408-0.267-0.782-0.911-1.322-0.911c-0.508,0.371-0.069,1.083-0.271,1.628L87.182,2.444z"/>
<path fill="#00125D" d="M90.64,3.121h0.201c0.407,0.101,0.543,0.439,0.711,0.743c0.376,0.104,0.486-0.167,0.723-0.402
	c0.136-0.341,0.274-0.849,0.038-1.223c-0.511-0.54-1.164-0.847-1.877-0.575C90.128,2.276,91.08,2.543,90.64,3.121"/>
<path fill="#00125D" d="M89.757,7.035c0.137-0.271,0.371-0.255,0.272-0.594c-0.172-0.607-0.848-0.381-1.289-0.648
	c-0.167-0.853,0.713-1.349,0.68-2.127c-0.238-0.58-0.884-0.747-1.459-0.883l-1.695,0.709c-0.133-0.271-0.474-0.541-0.78-0.676
	c-0.203,1.048,0.038,2.397-0.031,3.517l-0.172,0.272c-0.672,0.134-1.32,0.336-1.963,0.61c-0.104,0.303,0.067,0.354,0.166,0.594
	c0.513,0.167,1.125-0.094,1.63-0.094c0.105,0.406-0.135,0.895-0.067,1.3c-0.135,0.407-0.237,0.95-0.642,1.019l-0.104,1.152
	c0,0.17,0,0.406,0.205,0.406c1.188-0.982,0.947-2.797,1.252-4.117c0.374,0.305,0.305,1.17,0.711,1.54
	c0.307,0.071,0.199-0.159,0.336-0.396c0.203-0.34-0.031-0.897-0.203-1.203c0.066-0.203,0.889-0.136,0.993-0.237
	c0.201,0.542,0.104,1.51,0.066,2.049c-0.171,0.78-1.227,0.094-1.703,0.06c-0.029,0.203,0.207,0.306,0.207,0.476
	c0.948,0.374,0.44,1.897,1.694,1.83c0.34-0.236,0.64-0.508,0.845-0.884c-0.066-1.15-0.101-2.521,0.035-3.608
	C89.043,7.138,89.486,7.237,89.757,7.035 M87.762,6.104l-0.499,0.102c0-0.406,0.071-1.146-0.473-1.315
	c-0.238-0.066-0.36-0.278-0.426,0.159l0.192,1.301c-0.066,0.07-0.457,0.118-0.598,0.118c-0.064-0.645,0.141-1.447,0.174-2.091
	l1.595-0.678l0.103,0.132C87.728,4.613,87.831,5.324,87.762,6.104"/>
<path fill="#00125D" d="M89.318,5.29c1.489-0.24,3.187-0.406,4.844-0.339c0.201-0.104,0.305-0.338,0.305-0.543
	c-0.202-0.271-0.473-0.811-0.911-0.711c-1.425,0.475-2.951,0.609-4.407,0.951C89.082,4.918,89.25,5.087,89.318,5.29"/>
<path fill="#00125D" d="M104.39,5.11l0.066-0.564c-0.134-0.596-0.636-0.63-1.136-0.693c-0.969,1.934-1.866,2.824-3.084,4.41
	C101.895,7.765,103.196,6.438,104.39,5.11"/>
<path fill="#00125D" d="M106.978,5.012c-0.498,0.131-1.068-0.297-1.401-0.099c0.198,0.332,0.994,0.365,0.629,0.828l0.43-0.029
	c0.669,0.164,1.097,0.796,1.396,1.324c0.463,0.167,0.86-0.134,1.129-0.398c0.165-0.301,0.073-0.401,0.007-0.765
	C108.637,5.208,107.842,4.313,106.978,5.012"/>
<path fill="#00125D" d="M94.199,10.091c-0.477,0.172-1.122,0.104-1.391-0.372c-0.441-1.119-0.132-2.564,0.369-3.583l-0.101-0.203
	c-0.539-1.015-1.354,0.035-2.132-0.099c-0.306-0.106-0.609-0.273-0.778,0.099c0.134,0.948-0.037,1.862-0.345,2.645
	c-0.233,0.406-0.436,1.049-0.944,1.116v0.407c0,0.271,0.085,0.51,0.39,0.51c0.715-0.474,1.053-1.289,1.426-2.033
	c0.271-0.677,0.306-1.423,0.574-2.101c0.174,0,0.52-0.171,0.654-0.035c-0.272,1.695-0.973,4.013,0.623,5.165
	c0.669,0.374,2.396,0.293,3.244-0.488c0.438-1.254-0.474-2.269-0.611-3.389C95.01,8.543,95.078,9.683,94.199,10.091"/>
<path fill="#00125D" d="M107.632,9.618c-0.661,0.264-1.54,0.399-2.302,0.199c-0.034-0.53,0.035-1.186,0.134-1.681l1.475-0.169
	c0.332-0.16,0.592-0.435,0.461-0.801c-0.231-0.332-0.661-0.496-1.029-0.63c-0.993,0.696-2.289,0.63-3.446,0.831
	c-0.07,0.729,0.686,0.878,1.25,1.111c-0.198,0.43,0.063,1.372-0.198,1.804c-0.662,0.1-1.517,0.066-2.111,0.396
	c-0.234,0.101-0.17,0.334-0.104,0.501c0.232,0.262,0.499,0.566,0.898,0.531c1.856-0.297,3.977-0.33,5.768-0.063
	c0.466-0.301,0.662-0.734,0.531-1.265C108.528,10.082,108.13,9.752,107.632,9.618"/>
</svg>
